<?xml version="1.0" encoding="UTF-8"?>
<svg version="1.1" xmlns="http://www.w3.org/2000/svg" width="512" height="512">
<path d="M0 0 C4.91726424 4.87752877 6.49113725 8.99176638 6.66015625 15.82055664 C6.6535641 17.26712229 6.64171957 18.7136722 6.625 20.16015625 C6.62048828 20.90269653 6.61597656 21.64523682 6.61132812 22.41027832 C6.59960889 24.23188723 6.58167557 26.05345432 6.5625 27.875 C7.54626354 27.87386084 8.53002708 27.87272168 9.54360163 27.871548 C67.8134064 27.80433879 126.08321088 27.75295488 184.35304598 27.72180401 C191.34522734 27.71806195 198.33740861 27.71417229 205.32958984 27.71020508 C206.02540198 27.7098128 206.72121413 27.70942052 207.43811148 27.70901636 C229.99802805 27.69622859 252.55792211 27.67369188 275.11782503 27.64610834 C298.95475349 27.61701629 322.79166604 27.59901415 346.62861192 27.59273452 C360.91159501 27.58861246 375.19451345 27.57558028 389.47747664 27.5512506 C399.26386314 27.53542677 409.05021608 27.53059202 418.83661444 27.53449587 C424.48789574 27.53642264 430.13906385 27.53341139 435.79032516 27.51738358 C440.96078109 27.50282606 446.13104731 27.50202064 451.30151181 27.51230332 C453.17509584 27.51357491 455.04869153 27.50973433 456.92225249 27.50035045 C459.46390812 27.48835738 462.00487385 27.49477181 464.54651833 27.50585651 C465.27838122 27.49797547 466.01024411 27.49009443 466.76428467 27.48197457 C471.41428787 27.52797865 474.61739716 28.40778549 478.5625 30.875 C479.82174171 33.39348342 479.69133097 35.11570417 479.69672108 37.93568993 C479.70117892 39.01357446 479.70563676 40.091459 479.71022969 41.2020067 C479.70995315 42.99262999 479.70995315 42.99262999 479.70967102 44.81942749 C479.71334771 46.08013176 479.7170244 47.34083602 479.7208125 48.63974345 C479.73084853 52.15059019 479.73455185 55.66141983 479.73720181 59.17227888 C479.74110005 62.95423074 479.75067862 66.73616899 479.75941467 70.51811218 C479.77919132 79.65641575 479.7892462 88.79472046 479.79814246 97.93304008 C479.80252286 102.23310763 479.80789026 106.53317394 479.81313133 110.83324051 C479.83014379 125.12142621 479.8446394 139.40961113 479.85188007 153.6978054 C479.85379006 157.40693538 479.85571038 161.11606536 479.85766602 164.82519531 C479.85814976 165.74711503 479.8586335 166.66903475 479.8591319 167.61889143 C479.86743757 182.5634762 479.89278345 197.50798106 479.92524669 212.45253091 C479.95828118 227.78462341 479.97632551 243.11667525 479.97952431 258.44880354 C479.98169262 267.06180947 479.99048812 275.67469882 480.01598549 284.28767014 C480.03764315 291.62064772 480.04576731 298.95348043 480.03601871 306.28648637 C480.03145976 310.02980163 480.03345202 313.77281767 480.05278015 317.5160923 C480.07353108 321.56980945 480.06347267 325.62285685 480.05024719 329.67660522 C480.06670106 331.46053635 480.06670106 331.46053635 480.08348733 333.28050649 C480.07490644 334.36360652 480.06632555 335.44670655 480.05748463 336.56262779 C480.05846144 337.49869342 480.05943824 338.43475905 480.06044465 339.39919031 C479.40670869 342.64960344 478.11671001 343.82544241 475.5625 345.875 C471.954409 347.077697 468.67058713 347.0113825 464.91566181 346.99804783 C464.12541814 346.99920167 463.33517447 347.00035552 462.52098402 347.00154433 C459.85082669 347.00420879 457.18072865 346.99969019 454.51057434 346.99525452 C452.58582806 346.99569025 450.66108184 346.9965652 448.73633593 346.99784368 C443.42997306 347.00008817 438.12363024 346.99606797 432.81726992 346.99106562 C427.10152283 346.98676065 421.38577694 346.98820758 415.67002869 346.9889679 C405.76135298 346.9894931 395.85268384 346.98634665 385.94400978 346.98073006 C371.61760152 346.9726146 357.29119645 346.96999979 342.96478613 346.96874207 C319.72302291 346.96655162 296.48126326 346.9599003 273.23950195 346.95043945 C250.65779641 346.94125789 228.0760918 346.93417287 205.49438477 346.92993164 C204.79854929 346.92980011 204.10271381 346.92966859 203.38579241 346.92953308 C196.39804691 346.92821458 189.41030141 346.92693876 182.4225559 346.92569422 C123.80253496 346.91524977 65.1825175 346.89760042 6.5625 346.875 C6.56916183 348.0724585 6.57582367 349.26991699 6.58268738 350.50366211 C6.64357223 361.8031406 6.68850811 373.10258569 6.71793652 384.40219116 C6.73357469 390.21106823 6.75477942 396.01981258 6.78881836 401.82861328 C6.82147739 407.43719788 6.83936692 413.04565502 6.84713173 418.65432739 C6.85266346 420.79129034 6.86346558 422.92824652 6.87969017 425.06515503 C6.90155116 428.0644219 6.90446327 431.06316593 6.90307617 434.0625 C6.913862 434.94075943 6.92464783 435.81901886 6.9357605 436.72389221 C6.90339092 443.2164225 5.88763942 448.79271356 1.87109375 454.1171875 C-3.17219572 458.5182209 -7.65551897 460.79291854 -14.4375 460.875 C-20.46798285 460.22597942 -24.42071031 458.3871939 -28.5 453.875 C-32.21387683 449.26105419 -32.58364989 445.44891041 -32.56892776 439.68220806 C-32.57200672 438.57045062 -32.57200672 438.57045062 -32.57514787 437.43623343 C-32.58083799 434.93295164 -32.57935815 432.42972452 -32.57794189 429.92643738 C-32.58052437 428.12146116 -32.58353721 426.31648552 -32.5869453 424.51151067 C-32.59503225 419.53598021 -32.59680581 414.56046417 -32.59754276 409.58492792 C-32.59939036 404.22489367 -32.60693618 398.86486695 -32.61367798 393.50483704 C-32.62727358 381.77771411 -32.63328785 370.0505946 -32.63768864 358.32346511 C-32.64044883 351.00506947 -32.64468576 343.68667516 -32.64919281 336.36828041 C-32.66138678 316.11723889 -32.67168604 295.86619843 -32.6750679 275.61515331 C-32.67528747 274.31845432 -32.67550703 273.02175533 -32.67573325 271.68576242 C-32.67595153 270.38591226 -32.67616981 269.0860621 -32.6763947 267.74682254 C-32.67683817 265.11270916 -32.67728474 262.47859579 -32.67773438 259.84448242 C-32.6779558 258.53786352 -32.67817723 257.23124462 -32.67840537 255.8850312 C-32.68235484 234.70491876 -32.69981284 213.5248407 -32.7230939 192.34474155 C-32.74678749 170.61447776 -32.75926883 148.88423124 -32.76043582 127.15395433 C-32.76135367 114.94711677 -32.76713369 102.74032401 -32.78525543 90.53349876 C-32.8006295 80.14068274 -32.80579282 69.74792535 -32.79751733 59.35510012 C-32.79360134 54.05011873 -32.79458659 48.74525551 -32.80857468 43.44028854 C-32.82125672 38.58636562 -32.82016644 33.73265035 -32.80798396 28.87872795 C-32.80601705 27.12030869 -32.80915095 25.36187501 -32.81782833 23.60347607 C-32.82886119 21.21716863 -32.82147536 18.83160176 -32.8094368 16.44531536 C-32.81703199 15.75923168 -32.82462718 15.073148 -32.83245254 14.36627391 C-32.77425591 9.03940976 -31.33078791 5.11818669 -27.89453125 1.046875 C-19.39939652 -6.29808709 -9.09597673 -7.29347125 0 0 Z " fill="#FE4B54" transform="translate(32.4375,28.125)"/>
<path d="M0 0 C4.124159 5.46712995 5.06643089 11.256106 5.06892967 17.95092773 C5.07328999 18.68713915 5.07765032 19.42335056 5.08214277 20.18187141 C5.09305417 22.63836505 5.08269655 25.09429211 5.07235718 27.55078125 C5.07581537 29.33390082 5.08058102 31.11701825 5.08653891 32.90013123 C5.09905633 37.79214973 5.0928751 42.68399254 5.08358026 47.57601166 C5.07679318 52.85488574 5.08726931 58.13372958 5.09552002 63.41259766 C5.10886316 73.75080293 5.10597701 84.08894289 5.0972821 94.42715073 C5.09050826 102.82888068 5.08958754 111.23059232 5.09285355 119.63232422 C5.09331325 120.82788657 5.09377294 122.02344893 5.09424657 123.25524044 C5.09520575 125.68396632 5.09617838 128.1126922 5.09716435 130.54141808 C5.10571995 153.31811975 5.09588143 176.09478521 5.07976325 198.87148094 C5.06635992 218.41694293 5.06868797 237.96235147 5.08251953 257.5078125 C5.09857233 280.20275248 5.10489596 302.89766072 5.09568274 325.59260559 C5.09472709 328.01242065 5.09378398 330.43223571 5.09285355 332.85205078 C5.09239072 334.04266082 5.09192789 335.23327085 5.09145104 336.45995998 C5.08886026 344.85205789 5.09323407 353.24413568 5.10029221 361.63623047 C5.10870405 371.86272327 5.10643366 382.08914698 5.09044997 392.31563187 C5.08256306 397.53380384 5.0794829 402.7518606 5.08939743 407.97003174 C5.09833601 412.7467702 5.09342516 417.52328664 5.07746477 422.30000496 C5.07411345 424.02802371 5.07581895 425.75606122 5.08309214 427.48406792 C5.09222484 429.83412711 5.08284802 432.18342748 5.06892967 434.53344727 C5.06844262 435.83838638 5.06795556 437.1433255 5.06745374 438.48780823 C4.46781934 444.47443228 2.79664914 450.04387533 -1.87109375 454.1171875 C-7.11466656 458.29670806 -12.26766632 459.67708552 -18.921875 458.9609375 C-25.6381677 457.41180777 -29.550988 453.94179745 -33.30859375 448.2421875 C-34.46721295 444.7663299 -34.44924928 441.66393745 -34.44002151 438.04939556 C-34.44310047 436.93763812 -34.44310047 436.93763812 -34.44624162 435.80342093 C-34.45193174 433.30013914 -34.4504519 430.79691202 -34.44903564 428.29362488 C-34.45161812 426.48864866 -34.45463096 424.68367302 -34.45803905 422.87869817 C-34.466126 417.90316771 -34.46789956 412.92765167 -34.46863651 407.95211542 C-34.47048411 402.59208117 -34.47802993 397.23205445 -34.48477173 391.87202454 C-34.49836733 380.14490161 -34.5043816 368.4177821 -34.50878239 356.69065261 C-34.51154258 349.37225697 -34.51577951 342.05386266 -34.52028656 334.73546791 C-34.53248053 314.48442639 -34.54277979 294.23338593 -34.54616165 273.98234081 C-34.54638122 272.68564182 -34.54660078 271.38894283 -34.546827 270.05294992 C-34.54704528 268.75309976 -34.54726356 267.4532496 -34.54748845 266.11401004 C-34.54793192 263.47989666 -34.54837849 260.84578329 -34.54882812 258.21166992 C-34.54904955 256.90505102 -34.54927098 255.59843212 -34.54949912 254.2522187 C-34.55344859 233.07210626 -34.57090659 211.8920282 -34.59418765 190.71192905 C-34.61788124 168.98166526 -34.63036258 147.25141874 -34.63152957 125.52114183 C-34.63244742 113.31430427 -34.63822744 101.10751151 -34.65634918 88.90068626 C-34.67172325 78.50787024 -34.67688657 68.11511285 -34.66861108 57.72228762 C-34.66469509 52.41730623 -34.66568034 47.11244301 -34.67966843 41.80747604 C-34.69235047 36.95355312 -34.69126019 32.09983785 -34.67907771 27.24591545 C-34.6771108 25.48749619 -34.6802447 23.72906251 -34.68892208 21.97066357 C-34.69995494 19.58435613 -34.69256911 17.19878926 -34.68053055 14.81250286 C-34.68812574 14.12641918 -34.69572093 13.4403355 -34.70354629 12.73346141 C-34.64534966 7.40659726 -33.20188166 3.48537419 -29.765625 -0.5859375 C-20.18789484 -8.86692034 -9.51323255 -8.3017353 0 0 Z " fill="#2E3033" transform="translate(34.30859375,29.7578125)"/>
<path d="M0 0 C2.00390625 0.1484375 2.00390625 0.1484375 4 1 C5.08984375 2.5390625 5.08984375 2.5390625 5.9375 4.625 C6.42283203 5.81802734 6.42283203 5.81802734 6.91796875 7.03515625 C9.08643649 12.97691442 11.06437855 18.97894802 13 25 C13.77714355 25.01981934 14.55428711 25.03963867 15.35498047 25.06005859 C18.86200691 25.15507009 22.36841794 25.26484559 25.875 25.375 C27.70998047 25.42140625 27.70998047 25.42140625 29.58203125 25.46875 C30.74863281 25.50742188 31.91523438 25.54609375 33.1171875 25.5859375 C34.19597168 25.6173584 35.27475586 25.6487793 36.38623047 25.68115234 C39 26 39 26 41 28 C40.85572003 31.17706424 40.41071389 32.59036565 38.14233398 34.8527832 C36.95619507 35.69329224 36.95619507 35.69329224 35.74609375 36.55078125 C34.89208984 37.16630859 34.03808594 37.78183594 33.15820312 38.41601562 C32.26037109 39.04185547 31.36253906 39.66769531 30.4375 40.3125 C29.53580078 40.95767578 28.63410156 41.60285156 27.70507812 42.26757812 C25.47868843 43.85785648 23.24383581 45.43448156 21 47 C23.02916933 55.49757942 23.02916933 55.49757942 25.6875 63.8125 C27.05545732 67.71687819 27.26280188 70.88277054 27 75 C25.0078125 75.86328125 25.0078125 75.86328125 22 76 C19.03676136 74.39420096 16.49114656 72.30090801 13.875 70.1875 C12.4559455 69.07654653 11.03668277 67.96585898 9.6171875 66.85546875 C8.99440918 66.35684326 8.37163086 65.85821777 7.72998047 65.34448242 C4.75860609 62.75886828 4.75860609 62.75886828 1.07421875 62.18896484 C-1.36199688 63.14154351 -3.11580337 64.37892214 -5.1875 65.9765625 C-6.35925781 66.85828125 -6.35925781 66.85828125 -7.5546875 67.7578125 C-9.18867161 69.00548727 -10.81887727 70.25812556 -12.4453125 71.515625 C-13.22648437 72.10085937 -14.00765625 72.68609375 -14.8125 73.2890625 C-15.87404297 74.10431396 -15.87404297 74.10431396 -16.95703125 74.93603516 C-19 76 -19 76 -21.19921875 75.73193359 C-23 75 -23 75 -24 74 C-23.4969204 67.47433889 -21.78793716 61.79340529 -19.640625 55.6484375 C-17.9796837 50.80781913 -17.9796837 50.80781913 -19 46 C-20.75850712 44.34798302 -20.75850712 44.34798302 -23 42.94140625 C-23.804375 42.39033203 -24.60875 41.83925781 -25.4375 41.27148438 C-27.14403233 40.13336259 -28.85236616 38.99793735 -30.5625 37.86523438 C-31.366875 37.31287109 -32.17125 36.76050781 -33 36.19140625 C-33.7425 35.69842041 -34.485 35.20543457 -35.25 34.69750977 C-37.48049945 32.53391285 -37.84157838 31.07406011 -38 28 C-36 26 -36 26 -33.29443359 25.77294922 C-32.17375488 25.78342285 -31.05307617 25.79389648 -29.8984375 25.8046875 C-28.08085938 25.81435547 -28.08085938 25.81435547 -26.2265625 25.82421875 C-24.95554687 25.84097656 -23.68453125 25.85773438 -22.375 25.875 C-21.09625 25.88402344 -19.8175 25.89304688 -18.5 25.90234375 C-15.33314833 25.92597697 -12.16666576 25.95892371 -9 26 C-8.82694336 25.16359985 -8.82694336 25.16359985 -8.65039062 24.31030273 C-7.54129961 19.11609636 -6.19603154 14.09406022 -4.5 9.0625 C-4.28730469 8.40443359 -4.07460937 7.74636719 -3.85546875 7.06835938 C-2.88149505 4.14942591 -2.20543734 2.20543734 0 0 Z " fill="#FFDE59" transform="translate(103,104)"/>
<path d="M0 0 C0.99 0 1.98 0 3 0 C4.32 2.64 5.64 5.28 7 8 C10.63 8 14.26 8 18 8 C16 12 16 12 13.8125 13.9375 C13.214375 14.618125 12.61625 15.29875 12 16 C12.10613836 18.45224694 12.10613836 18.45224694 13 21 C13.33944795 22.99897128 13.67421616 24.99875639 14 27 C11.76182479 26.52039103 10.00642765 26.00361555 8 24.875 C6.06662614 23.84687508 6.06662614 23.84687508 4.0625 24.125 C1.31254231 25.29164872 -0.69543454 27.11995976 -3 29 C-3.66 29 -4.32 29 -5 29 C-5 25.37 -5 21.74 -5 18 C-8.465 16.02 -8.465 16.02 -12 14 C-12 13.01 -12 12.02 -12 11 C-8.7 10.67 -5.4 10.34 -2 10 C-1.34 6.7 -0.68 3.4 0 0 Z " fill="#FFDA59" transform="translate(198,153)"/>
<path d="M0 0 C0.99 0 1.98 0 3 0 C4.38671875 1.53125 4.38671875 1.53125 5.6875 3.5 C6.12449219 4.1496875 6.56148437 4.799375 7.01171875 5.46875 C7.50091797 6.22671875 7.50091797 6.22671875 8 7 C9.0725 6.67 10.145 6.34 11.25 6 C15 5 15 5 19 5 C18.42647107 8.87132028 16.51295648 11.08172796 14 14 C15.10632954 16.29776136 16.28060705 18.45328831 17.625 20.625 C19 23 19 23 19 25 C17.56206608 24.68950274 16.1246682 24.3765224 14.6875 24.0625 C13.88699219 23.88847656 13.08648437 23.71445313 12.26171875 23.53515625 C10 23 10 23 7 22 C6.731875 22.763125 6.46375 23.52625 6.1875 24.3125 C5.04865495 26.88988618 4.18583329 28.26954864 2 30 C1.34 30 0.68 30 0 30 C0 26.37 0 22.74 0 19 C-4.455 18.01 -4.455 18.01 -9 17 C-9 15.68 -9 14.36 -9 13 C-6.03 12.34 -3.06 11.68 0 11 C0 7.37 0 3.74 0 0 Z " fill="#FFDB59" transform="translate(197,112)"/>
<path d="M0 0 C0.99 0 1.98 0 3 0 C3.33 3.3 3.66 6.6 4 10 C9.445 10.495 9.445 10.495 15 11 C15 11.99 15 12.98 15 14 C12.69 15.32 10.38 16.64 8 18 C8 21.63 8 25.26 8 29 C4 28 4 28 2.0625 25.875 C1.381875 25.25625 0.70125 24.6375 0 24 C-3.52324572 24.17186564 -5.02591724 25.01727816 -8 27 C-8.99 27 -9.98 27 -11 27 C-10.04109589 21.10958904 -10.04109589 21.10958904 -9.0625 18.5 C-8.72943381 15.98668587 -8.72943381 15.98668587 -10.2734375 14.42578125 C-11.36985977 13.36281787 -12.4964221 12.32996816 -13.65234375 11.33203125 C-14.09707031 10.89246094 -14.54179687 10.45289062 -15 10 C-15 9.34 -15 8.68 -15 8 C-11.37 8 -7.74 8 -4 8 C-2.68 5.36 -1.36 2.72 0 0 Z " fill="#FFDB59" transform="translate(178,81)"/>
<path d="M0 0 C0.66 0 1.32 0 2 0 C2.33 3.63 2.66 7.26 3 11 C5.97 11.99 8.94 12.98 12 14 C11.67 14.99 11.34 15.98 11 17 C8.05480723 18.04111729 5.08376572 18.43536684 2 19 C2 22.63 2 26.26 2 30 C1.01 30 0.02 30 -1 30 C-3.1875 27 -3.1875 27 -5 24 C-8.96 24.33 -12.92 24.66 -17 25 C-15.51799926 21.29499816 -14.091496 18.32738 -12 15 C-12.3609375 14.51789063 -12.721875 14.03578125 -13.09375 13.5390625 C-13.5578125 12.90742188 -14.021875 12.27578125 -14.5 11.625 C-15.19609375 10.68527344 -15.19609375 10.68527344 -15.90625 9.7265625 C-17 8 -17 8 -17 6 C-12.53160785 5.78721942 -9.17737474 6.40861915 -5 8 C-4.731875 7.4225 -4.46375 6.845 -4.1875 6.25 C-2.97070811 3.94449957 -1.69666121 1.97943808 0 0 Z " fill="#FFDC59" transform="translate(180,182)"/>
</svg>
