<?xml version="1.0" encoding="UTF-8"?>
<svg version="1.1" xmlns="http://www.w3.org/2000/svg" width="512" height="512">
<path d="M0 0 C5.53684105 4.08671601 8.8025612 8.25602456 10.625 14.9375 C10.8503006 17.73628622 10.81594981 20.5070965 10.75 23.3125 C10.74097656 24.04855469 10.73195312 24.78460938 10.72265625 25.54296875 C10.69930144 27.3412888 10.66343836 29.13943911 10.625 30.9375 C12.1075628 30.9346521 12.1075628 30.9346521 13.62007636 30.93174666 C72.15701518 30.81974267 130.69395319 30.73409719 189.23097585 30.68217335 C196.25448865 30.67593654 203.27800121 30.66945379 210.30151367 30.6628418 C211.00044626 30.662188 211.69937884 30.66153421 212.4194912 30.6608606 C235.08342244 30.639545 257.74729144 30.60198187 280.41118495 30.5560139 C304.35649916 30.50753497 328.3017726 30.47752531 352.24713451 30.46705753 C366.59619554 30.46018583 380.94507793 30.43845703 395.29408399 30.39791767 C405.12439445 30.37155398 414.95461213 30.36348454 424.7849554 30.36999311 C430.46251955 30.37320592 436.13977084 30.36816925 441.81727982 30.34147263 C447.01061195 30.31723013 452.20341936 30.3158538 457.3967751 30.33300553 C459.27976926 30.33512689 461.1627955 30.32870829 463.04572602 30.31308409 C465.59807668 30.29312936 468.14851257 30.30376058 470.70083141 30.32226086 C471.80737931 30.30255825 471.80737931 30.30255825 472.93628171 30.28245762 C476.7223505 30.34482905 478.51336175 30.85445088 481.58110976 33.13658786 C483.84838848 36.24362774 484.25031889 37.57783149 484.25141239 41.36733341 C484.26383443 42.45119109 484.27625647 43.53504877 484.28905493 44.65175062 C484.2772192 45.83676096 484.26538347 47.0217713 484.25318909 48.24269104 C484.26383067 50.13759235 484.26383067 50.13759235 484.27468723 52.0707745 C484.29362949 55.57507979 484.28136547 59.07868796 484.2639643 62.58297575 C484.25060366 66.36286006 484.26602259 70.14264149 484.27778625 73.92251587 C484.29617652 81.32612198 484.28764162 88.72946438 484.26969803 96.13306231 C484.25568 102.14885125 484.2517775 108.16456853 484.2551403 114.18037224 C484.25585647 115.46400366 484.25585647 115.46400366 484.2565871 116.77356703 C484.25761341 118.51192945 484.25866877 120.25029186 484.25975286 121.98865425 C484.26832259 137.36382688 484.25163552 152.73887205 484.22192383 168.11401367 C484.19308071 183.03984937 484.1860049 197.9655015 484.20141602 212.89135742 C484.21816857 229.13870477 484.22222245 245.38596494 484.20470566 261.63331455 C484.20286123 263.3650242 484.20102651 265.09673386 484.19920158 266.82844353 C484.19828949 267.68051581 484.1973774 268.5325881 484.19643768 269.41048076 C484.19082677 275.42095741 484.19414456 281.43139157 484.20074654 287.44186592 C484.20846967 294.76382506 484.20176395 302.08560334 484.1765715 309.40752596 C484.16405316 313.14476336 484.15795794 316.88171885 484.16911316 320.61896706 C484.1809652 324.66600506 484.16194185 328.71229882 484.1396637 332.7592926 C484.14790446 333.94653366 484.15614523 335.13377472 484.16463572 336.35699278 C484.15358803 337.43824271 484.14254034 338.51949265 484.13115788 339.63350773 C484.12996639 340.56794714 484.12877491 341.50238655 484.12754732 342.46514231 C483.43733555 345.8607437 482.47384437 346.96716663 479.625 348.9375 C476.8841782 349.3260873 474.5469835 349.4684802 471.80826187 349.42969131 C471.01179924 349.43430669 470.2153366 349.43892207 469.39473873 349.44367731 C466.7091367 349.45431791 464.02448191 349.4362777 461.33892822 349.41851807 C459.40094234 349.42026139 457.46295737 349.4237619 455.52497745 349.42887473 C450.18655676 349.43784544 444.84845531 349.42178226 439.51007533 349.40176249 C433.75821723 349.38453203 428.00637798 349.39033106 422.25450134 349.39337158 C412.28468795 349.39547174 402.31497906 349.38289299 392.34519196 349.36042023 C377.93046678 349.32794929 363.51579228 349.31749823 349.10103449 349.31246826 C325.71560238 349.3037079 302.33022601 349.27710652 278.94482422 349.23925781 C256.22444956 349.20252784 233.5040898 349.1741896 210.78369141 349.15722656 C210.08350529 349.15670046 209.38331917 349.15617435 208.66191529 349.15563231 C201.63043932 349.15035828 194.59896323 349.14525502 187.56748704 349.14027687 C173.2432124 349.13013167 158.91893874 349.11884666 144.59466553 349.10687256 C142.62124367 349.1052242 142.62124367 349.1052242 140.60795471 349.10354254 C97.28028124 349.06685164 53.95263679 349.00391586 10.625 348.9375 C10.63166183 350.14748657 10.63832367 351.35747314 10.64518738 352.60412598 C10.70606991 364.02133398 10.751007 375.43850893 10.78043652 386.85584259 C10.79607527 392.72525309 10.81728108 398.59453226 10.85131836 404.46386719 C10.88397529 410.13080634 10.90186648 415.79761937 10.90963173 421.46464539 C10.91516384 423.62393681 10.92596668 425.78322154 10.94219017 427.94245911 C10.96404835 430.97285746 10.96696338 434.00273829 10.96557617 437.03320312 C10.976362 437.92081329 10.98714783 438.80842346 10.9982605 439.72293091 C10.96599387 446.26064593 10.07046916 452.06308766 5.6875 457.21484375 C5.006875 457.76269531 4.32625 458.31054688 3.625 458.875 C2.944375 459.44089844 2.26375 460.00679688 1.5625 460.58984375 C-3.4104652 464.04886188 -9.58018222 463.47113432 -15.375 462.9375 C-20.79148887 461.2295981 -24.14367308 457.40433427 -27.375 452.9375 C-28.5336192 449.4616424 -28.51565553 446.35924995 -28.50642776 442.74470806 C-28.50950672 441.63295062 -28.50950672 441.63295062 -28.51264787 440.49873343 C-28.51833799 437.99545164 -28.51685815 435.49222452 -28.51544189 432.98893738 C-28.51802437 431.18396116 -28.52103721 429.37898552 -28.5244453 427.57401067 C-28.53253225 422.59848021 -28.53430581 417.62296417 -28.53504276 412.64742792 C-28.53689036 407.28739367 -28.54443618 401.92736695 -28.55117798 396.56733704 C-28.56477358 384.84021411 -28.57078785 373.1130946 -28.57518864 361.38596511 C-28.57794883 354.06756947 -28.58218576 346.74917516 -28.58669281 339.43078041 C-28.59888678 319.17973889 -28.60918604 298.92869843 -28.6125679 278.67765331 C-28.61278747 277.38095432 -28.61300703 276.08425533 -28.61323325 274.74826242 C-28.61345153 273.44841226 -28.61366981 272.1485621 -28.6138947 270.80932254 C-28.61433817 268.17520916 -28.61478474 265.54109579 -28.61523438 262.90698242 C-28.6154558 261.60036352 -28.61567723 260.29374462 -28.61590537 258.9475312 C-28.61985484 237.76741876 -28.63731284 216.5873407 -28.6605939 195.40724155 C-28.68428749 173.67697776 -28.69676883 151.94673124 -28.69793582 130.21645433 C-28.69885367 118.00961677 -28.70463369 105.80282401 -28.72275543 93.59599876 C-28.7381295 83.20318274 -28.74329282 72.81042535 -28.73501733 62.41760012 C-28.73110134 57.11261873 -28.73208659 51.80775551 -28.74607468 46.50278854 C-28.75875672 41.64886562 -28.75766644 36.79515035 -28.74548396 31.94122795 C-28.74351705 30.18280869 -28.74665095 28.42437501 -28.75532833 26.66597607 C-28.76636119 24.27966863 -28.75897536 21.89410176 -28.7469368 19.50781536 C-28.75453199 18.82173168 -28.76212718 18.135648 -28.76995254 17.42877391 C-28.71130926 12.06102742 -27.31235436 8.03776824 -23.65625 4.07421875 C-23.0684375 3.59597656 -22.480625 3.11773437 -21.875 2.625 C-21.2871875 2.13386719 -20.699375 1.64273437 -20.09375 1.13671875 C-14.61970373 -2.68267262 -6.07270556 -1.91177768 0 0 Z " fill="#FE4B55" transform="translate(28.375,25.0625)"/>
<path d="M0 0 C1.24624146 -0.00478363 2.49248291 -0.00956726 3.77648926 -0.01449585 C7.08265982 -0.01876532 10.38765061 0.00131791 13.69366455 0.02929688 C15.71721878 0.03905512 17.73968898 0.02933197 19.76318359 0.01220703 C23.65513353 -0.01868523 27.54548315 -0.0149393 31.4375 0 C32.64281372 -0.01012115 33.84812744 -0.02024231 35.08996582 -0.03067017 C39.80429468 0.03539528 43.25341936 0.17278009 47.48706055 2.32739258 C50.36242479 7.86772857 49.82809902 13.59688024 49.70703125 19.71484375 C49.69769836 21.09773986 49.69058449 22.48065257 49.68559265 23.86357117 C49.66655948 27.49226025 49.6174932 31.11993854 49.56207275 34.74822998 C49.5107991 38.45506111 49.48806147 42.16205661 49.46289062 45.86914062 C49.40936852 53.13457394 49.3241033 60.39917625 49.21875 67.6640625 C49.98438766 67.65295944 50.75002533 67.64185638 51.53886414 67.63041687 C58.76287652 67.53013034 65.98655027 67.45405569 73.21107769 67.40500164 C76.92511943 67.37893409 80.63858486 67.34359041 84.35229492 67.28686523 C87.93794713 67.23244036 91.52304591 67.20262058 95.10907936 67.18967628 C96.47545902 67.18045486 97.84180919 67.16244669 99.2079525 67.13541222 C109.82260525 66.9337604 109.82260525 66.9337604 114.55541992 69.40942383 C117.18979304 74.56410283 116.93163731 79.51760607 116.8828125 85.2265625 C116.88759613 86.45060791 116.89237976 87.67465332 116.89730835 88.93579102 C116.90070778 91.5213347 116.89150263 94.10692134 116.87060547 96.69238281 C116.84384466 100.65006346 116.87035625 104.60490758 116.90234375 108.5625 C116.89903966 111.07552709 116.89263347 113.58855242 116.8828125 116.1015625 C116.89293365 117.28500244 116.90305481 118.46844238 116.91348267 119.68774414 C116.84692051 124.3529643 116.69490339 127.73237297 114.55541992 131.91870117 C109.01933986 134.81454052 103.29005523 134.27349311 97.16796875 134.15234375 C95.78507264 134.14301086 94.40215993 134.13589699 93.01924133 134.13090515 C89.39055225 134.11187198 85.76287396 134.0628057 82.13458252 134.00738525 C78.42775139 133.9561116 74.72075589 133.93337397 71.01367188 133.90820312 C63.74823856 133.85468102 56.48363625 133.7694158 49.21875 133.6640625 C49.22874275 134.79372688 49.22874275 134.79372688 49.23893738 135.94621277 C49.29911296 143.05252319 49.34475706 150.15874496 49.37418652 157.26523876 C49.38982533 160.91855448 49.41103048 164.57165921 49.44506836 168.22485352 C49.47772625 171.75211466 49.49561644 175.27917318 49.50338173 178.80657387 C49.51160133 180.80350558 49.53501061 182.80035608 49.55863953 184.79716492 C49.55897942 186.62849724 49.55897942 186.62849724 49.55932617 188.49682617 C49.56931892 190.10565926 49.56931892 190.10565926 49.57951355 191.74699402 C49.16587163 195.09162737 48.20618226 196.96611578 46.21875 199.6640625 C43.63615533 200.95535984 41.73069258 200.81948109 38.83862305 200.85693359 C37.71372971 200.87299652 36.58883636 200.88905945 35.42985535 200.90560913 C30.28308909 200.94997726 25.13641199 200.99156352 19.98950195 201.01416016 C17.27236221 201.02749461 14.5559744 201.05533632 11.83911133 201.09619141 C7.9279177 201.15500418 4.01708948 201.17282213 0.10546875 201.1875 C-1.10925613 201.21016937 -2.32398102 201.23283875 -3.57551575 201.25619507 C-8.32282072 201.24426754 -11.78536926 201.1671998 -16.05615234 199.00952148 C-18.91745282 193.46063945 -18.39064588 187.73361293 -18.26953125 181.61328125 C-18.26019836 180.23038514 -18.25308449 178.84747243 -18.24809265 177.46455383 C-18.22905948 173.83586475 -18.1799932 170.20818646 -18.12457275 166.57989502 C-18.0732991 162.87306389 -18.05056147 159.16606839 -18.02539062 155.45898438 C-17.97186852 148.19355106 -17.8866033 140.92894875 -17.78125 133.6640625 C-18.9297065 133.68071709 -18.9297065 133.68071709 -20.10136414 133.69770813 C-27.32537652 133.79799466 -34.54905027 133.87406931 -41.77357769 133.92312336 C-45.48761943 133.94919091 -49.20108486 133.98453459 -52.91479492 134.04125977 C-56.50044713 134.09568464 -60.08554591 134.12550442 -63.67157936 134.13844872 C-65.03795902 134.14767014 -66.40430919 134.16567831 -67.7704525 134.19271278 C-78.38510525 134.3943646 -78.38510525 134.3943646 -83.11791992 131.91870117 C-85.75229304 126.76402217 -85.49413731 121.81051893 -85.4453125 116.1015625 C-85.45009613 114.87751709 -85.45487976 113.65347168 -85.45980835 112.39233398 C-85.46320778 109.8067903 -85.45400263 107.22120366 -85.43310547 104.63574219 C-85.40634466 100.67806154 -85.43285625 96.72321742 -85.46484375 92.765625 C-85.46153966 90.25259791 -85.45513347 87.73957258 -85.4453125 85.2265625 C-85.45543365 84.04312256 -85.46555481 82.85968262 -85.47598267 81.64038086 C-85.40942051 76.9751607 -85.25740339 73.59575203 -83.11791992 69.40942383 C-77.58183986 66.51358448 -71.85255523 67.05463189 -65.73046875 67.17578125 C-64.34757264 67.18511414 -62.96465993 67.19222801 -61.58174133 67.19721985 C-57.95305225 67.21625302 -54.32537396 67.2653193 -50.69708252 67.32073975 C-46.99025139 67.3720134 -43.28325589 67.39475103 -39.57617188 67.41992188 C-32.31073856 67.47344398 -25.04613625 67.5587092 -17.78125 67.6640625 C-17.79235306 66.89842484 -17.80345612 66.13278717 -17.81489563 65.34394836 C-17.91518216 58.11993598 -17.99125681 50.89626223 -18.04031086 43.67173481 C-18.06637841 39.95769307 -18.10172209 36.24422764 -18.15844727 32.53051758 C-18.21287214 28.94486537 -18.24269192 25.35976659 -18.25563622 21.77373314 C-18.26485764 20.40735348 -18.28286581 19.04100331 -18.30990028 17.67486 C-18.51135009 7.07084072 -18.51135009 7.07084072 -16.04956055 2.32739258 C-10.83111045 -0.32841533 -5.77404793 -0.04848533 0 0 Z " fill="#F5F4F4" transform="translate(253.78125,114.3359375)"/>
<path d="M0 0 C5.55583231 4.10073337 8.75475357 8.25418188 10.625 14.9375 C10.80333506 17.42009701 10.8778233 19.91115109 10.87947559 22.40014458 C10.88428531 23.50100017 10.88428531 23.50100017 10.88919219 24.62409526 C10.89749721 27.08467144 10.89156618 29.54500453 10.88569641 32.00558472 C10.88871687 33.78697689 10.89260581 35.56836778 10.89728898 37.34975636 C10.90759139 42.24625754 10.90538144 47.14268568 10.90110838 52.03919291 C10.89864523 57.31946148 10.90765022 62.59971227 10.91514587 67.87997437 C10.92790636 78.22512363 10.92968488 88.57024695 10.92734561 98.91540276 C10.92556379 107.32289886 10.92730917 115.73038707 10.93157005 124.13788223 C10.93216524 125.33371557 10.93276043 126.5295489 10.93337366 127.76161961 C10.93458539 130.19082855 10.93579952 132.6200375 10.93701603 135.04924645 C10.94789678 157.83928289 10.94572655 180.62930454 10.93963119 203.41934182 C10.93446161 224.27458884 10.9457176 245.12978916 10.96472941 265.98502694 C10.98409498 287.39221486 10.99236605 308.79938068 10.98860615 330.20657742 C10.98669216 342.22787139 10.989201 354.24912561 11.00332069 366.27041245 C11.01521914 376.50426874 11.01665664 386.73806082 11.00453053 396.97191797 C10.99863105 402.19412966 10.99757195 407.41622379 11.00953293 412.63842773 C11.02035509 417.41894163 11.01733212 422.19923928 11.00327124 426.9797429 C11.00061419 428.70916943 11.00302238 430.43861271 11.01100711 432.16802286 C11.02111253 434.5200002 11.01269221 436.87122577 10.99973011 439.22317314 C10.99981263 441.18220804 10.99981263 441.18220804 10.99989682 443.18081939 C10.47476258 448.4429649 9.18142904 453.10806828 5.6875 457.21484375 C5.006875 457.76269531 4.32625 458.31054688 3.625 458.875 C2.944375 459.44089844 2.26375 460.00679688 1.5625 460.58984375 C-3.4104652 464.04886188 -9.58018222 463.47113432 -15.375 462.9375 C-20.79148887 461.2295981 -24.14367308 457.40433427 -27.375 452.9375 C-28.5336192 449.4616424 -28.51565553 446.35924995 -28.50642776 442.74470806 C-28.50950672 441.63295062 -28.50950672 441.63295062 -28.51264787 440.49873343 C-28.51833799 437.99545164 -28.51685815 435.49222452 -28.51544189 432.98893738 C-28.51802437 431.18396116 -28.52103721 429.37898552 -28.5244453 427.57401067 C-28.53253225 422.59848021 -28.53430581 417.62296417 -28.53504276 412.64742792 C-28.53689036 407.28739367 -28.54443618 401.92736695 -28.55117798 396.56733704 C-28.56477358 384.84021411 -28.57078785 373.1130946 -28.57518864 361.38596511 C-28.57794883 354.06756947 -28.58218576 346.74917516 -28.58669281 339.43078041 C-28.59888678 319.17973889 -28.60918604 298.92869843 -28.6125679 278.67765331 C-28.61278747 277.38095432 -28.61300703 276.08425533 -28.61323325 274.74826242 C-28.61345153 273.44841226 -28.61366981 272.1485621 -28.6138947 270.80932254 C-28.61433817 268.17520916 -28.61478474 265.54109579 -28.61523438 262.90698242 C-28.6154558 261.60036352 -28.61567723 260.29374462 -28.61590537 258.9475312 C-28.61985484 237.76741876 -28.63731284 216.5873407 -28.6605939 195.40724155 C-28.68428749 173.67697776 -28.69676883 151.94673124 -28.69793582 130.21645433 C-28.69885367 118.00961677 -28.70463369 105.80282401 -28.72275543 93.59599876 C-28.7381295 83.20318274 -28.74329282 72.81042535 -28.73501733 62.41760012 C-28.73110134 57.11261873 -28.73208659 51.80775551 -28.74607468 46.50278854 C-28.75875672 41.64886562 -28.75766644 36.79515035 -28.74548396 31.94122795 C-28.74351705 30.18280869 -28.74665095 28.42437501 -28.75532833 26.66597607 C-28.76636119 24.27966863 -28.75897536 21.89410176 -28.7469368 19.50781536 C-28.75453199 18.82173168 -28.76212718 18.135648 -28.76995254 17.42877391 C-28.71130926 12.06102742 -27.31235436 8.03776824 -23.65625 4.07421875 C-23.0684375 3.59597656 -22.480625 3.11773437 -21.875 2.625 C-21.2871875 2.13386719 -20.699375 1.64273437 -20.09375 1.13671875 C-14.61970373 -2.68267262 -6.07270556 -1.91177768 0 0 Z " fill="#2E3033" transform="translate(28.375,25.0625)"/>
</svg>
