<?xml version="1.0" encoding="UTF-8"?>
<svg version="1.1" xmlns="http://www.w3.org/2000/svg" width="512" height="512">
<path d="M0 0 C8.99845787 5.29321051 14.12211221 11.43588236 17.375 21.4375 C19.62927414 32.00164743 17.90919237 41.11120279 12.09765625 50.1640625 C9.62155974 53.43183613 6.84966008 56.23449387 3.375 58.4375 C2.715 58.4375 2.055 58.4375 1.375 58.4375 C1.375 61.0775 1.375 63.7175 1.375 66.4375 C2.31546734 66.43636084 3.25593467 66.43522168 4.22490102 66.434048 C59.91422923 66.36685778 115.6035537 66.3154704 171.29291429 66.28430401 C177.97351519 66.28055171 184.65411602 66.27667224 191.3347168 66.27270508 C192.33193588 66.27211666 192.33193588 66.27211666 193.3493008 66.27151636 C214.91164926 66.25872417 236.47397419 66.23618418 258.03630838 66.20860834 C280.8152267 66.17952941 303.59413289 66.16151704 326.37306947 66.15523452 C340.02498301 66.15110979 353.67682902 66.13806326 367.32872178 66.1137506 C376.67917308 66.09794252 386.02958926 66.09308842 395.38005296 66.09699587 C400.78185678 66.09892512 406.18354225 66.09588357 411.58532524 66.07988358 C416.52432422 66.06536046 421.46312447 66.06449789 426.4021323 66.07480332 C428.19490996 66.07607831 429.98769967 66.07220868 431.78045336 66.06285045 C434.20592535 66.05091915 436.63066731 66.05723311 439.05612659 66.06835651 C440.11520562 66.05653495 440.11520562 66.05653495 441.19568017 66.04447457 C443.94485011 66.07322762 445.9363212 66.1681907 448.30883437 67.62470025 C449.7750745 70.11774604 449.75107583 71.92147095 449.75252342 74.81143951 C449.76034666 75.93373254 449.76816991 77.05602557 449.77623022 78.21232748 C449.76953805 79.450537 449.76284589 80.68874652 449.75595093 81.96447754 C449.7606309 83.27574442 449.76531087 84.58701131 449.77013266 85.93801355 C449.78269569 89.58542665 449.77644838 93.23260531 449.76717401 96.88001943 C449.76040544 100.81054758 449.77085381 104.74103452 449.77911377 108.67155457 C449.79247681 116.37449313 449.78956195 124.07734416 449.78087585 131.78028619 C449.7741098 138.03877824 449.7731779 144.2972457 449.7764473 150.55574036 C449.776907 151.44535868 449.77736669 152.334977 449.77784032 153.25155345 C449.77879947 155.05860866 449.77977211 156.86566386 449.7807581 158.67271906 C449.78931952 175.6306804 449.77946607 192.58859315 449.763357 209.54654652 C449.74995313 224.10771551 449.75228101 238.66881277 449.76611328 253.22998047 C449.78215582 270.12588798 449.78849548 287.02175285 449.77927649 303.91766691 C449.77832081 305.71819782 449.7773777 307.51872873 449.7764473 309.31925964 C449.77598447 310.20523194 449.77552164 311.09120424 449.77504479 312.00402418 C449.77245092 318.25739796 449.77683444 324.51074477 449.78388596 330.76411438 C449.79228645 338.38145689 449.79005149 345.99870661 449.77404372 353.61603844 C449.76614137 357.50499462 449.76310263 361.39379593 449.77299118 365.28275108 C449.7835329 369.49214396 449.7709744 373.70114336 449.75595093 377.91052246 C449.76264309 379.14873198 449.76933526 380.3869415 449.77623022 381.66267252 C449.76840697 382.78496555 449.76058373 383.90725858 449.75252342 385.06356049 C449.75179284 386.52209513 449.75179284 386.52209513 449.75104749 388.01009512 C449.375 390.4375 449.375 390.4375 448.30883437 392.25029975 C445.35792897 394.06189007 442.41425452 393.84412729 439.05612659 393.80664349 C438.30133877 393.81010502 437.54655095 393.81356655 436.76889077 393.81713298 C434.21916982 393.82512492 431.67000801 393.81157302 429.12031555 393.79826355 C427.28218886 393.7995708 425.44406272 393.80219573 423.60593957 393.80603105 C418.53894627 393.81276378 413.47214191 393.80070515 408.40517271 393.78569686 C402.94709665 393.77278081 397.48903186 393.77712281 392.03094482 393.77940369 C382.56914544 393.78097923 373.10740797 393.77154067 363.64562416 393.75469017 C349.96536359 393.7303428 336.28513306 393.72249927 322.60485318 393.7187262 C300.41127597 393.71215501 278.21772874 393.69220147 256.02416992 393.66381836 C234.46102063 393.63627326 212.89788016 393.61501841 191.3347168 393.60229492 C190.67025649 393.60190034 190.00579619 393.60150576 189.32120073 393.60109923 C181.98642973 393.59675125 174.65165864 393.5925757 167.3168875 393.58847082 C112.00289568 393.55735413 56.6889649 393.50203985 1.375 393.4375 C1.375 431.7175 1.375 469.9975 1.375 509.4375 C-9.515 509.4375 -20.405 509.4375 -31.625 509.4375 C-31.6189037 505.9711749 -31.6189037 505.9711749 -31.61268425 502.43482304 C-31.51778774 447.59488086 -31.47571863 392.7550913 -31.49652898 337.91506634 C-31.49907612 331.16709187 -31.50113201 324.41911729 -31.50292969 317.67114258 C-31.50311694 316.9996402 -31.50330419 316.32813782 -31.50349712 315.63628688 C-31.50933561 293.8733027 -31.48273826 272.11050515 -31.43930914 250.3475682 C-31.3935886 227.34803887 -31.38485108 204.34869808 -31.4150821 181.34912628 C-31.43199733 167.57109879 -31.41931679 153.79374826 -31.36893077 140.01579981 C-31.33721618 130.57124341 -31.3421951 121.12715322 -31.37615602 111.68260635 C-31.39467123 106.2310458 -31.39688605 100.78074793 -31.35556984 95.32928467 C-31.31809399 90.33743707 -31.32672654 85.34786391 -31.37194325 80.35610007 C-31.38017142 78.55110176 -31.37151697 76.74593041 -31.34421335 74.94111986 C-30.98675529 65.17247347 -30.98675529 65.17247347 -34.82632661 56.5084151 C-37.42536761 54.11541504 -37.42536761 54.11541504 -40.18203938 52.2863993 C-45.03018443 48.61719075 -47.48372576 42.32289459 -48.625 36.4375 C-49.58330473 25.86472815 -47.62237345 17.2116097 -41.375 8.5625 C-31.45311023 -3.3140233 -13.92536151 -6.59344769 0 0 Z " fill="#FE4C56" transform="translate(55.625,2.5625)"/>
<path d="M0 0 C73.40753656 -0.12099405 73.40753656 -0.12099405 104.00585938 -0.14648438 C111.01000998 -0.15235829 118.01416038 -0.15841982 125.01831055 -0.16479492 C125.89620725 -0.16558617 126.77410396 -0.16637741 127.67860359 -0.16719264 C141.86493042 -0.18025246 156.0512209 -0.20391045 170.23752616 -0.23145839 C184.78870805 -0.25947991 199.33987088 -0.27616936 213.89107865 -0.28226548 C222.87516879 -0.2863887 231.85915623 -0.29942702 240.84321477 -0.3237494 C246.99790291 -0.33956647 253.15253769 -0.34440954 259.3072447 -0.34050413 C262.86202962 -0.33857627 266.41663466 -0.34160049 269.97138786 -0.35761642 C273.81960055 -0.37482858 277.66757626 -0.3689902 281.51582336 -0.36076355 C282.64713269 -0.36950207 283.77844202 -0.3782406 284.94403344 -0.38724393 C286.48394552 -0.37828421 286.48394552 -0.37828421 288.05496693 -0.36914349 C289.38835487 -0.37085223 289.38835487 -0.37085223 290.74867994 -0.37259549 C293 0 293 0 296 3 C296 59.1 296 115.2 296 173 C147.83 173 -0.34 173 -153 173 C-153 166.73 -153 160.46 -153 154 C-102.51 154 -52.02 154 0 154 C0 103.18 0 52.36 0 0 Z " fill="#F4F3F3" transform="translate(209,69)"/>
<path d="M0 0 C8.99845787 5.29321051 14.12211221 11.43588236 17.375 21.4375 C19.62927414 32.00164743 17.90919237 41.11120279 12.09765625 50.1640625 C9.62155974 53.43183613 6.84966008 56.23449387 3.375 58.4375 C2.715 58.4375 2.055 58.4375 1.375 58.4375 C1.375 61.0775 1.375 63.7175 1.375 66.4375 C51.535 66.4375 101.695 66.4375 153.375 66.4375 C153.375 117.2575 153.375 168.0775 153.375 220.4375 C102.885 220.4375 52.395 220.4375 0.375 220.4375 C0.4471875 231.58015625 0.519375 242.7228125 0.59375 254.203125 C0.63983153 261.49714934 0.6857707 268.79117375 0.73071289 276.08520508 C0.73645266 277.01656143 0.74219242 277.94791778 0.74810612 278.90749705 C0.79072917 285.83416273 0.83295957 292.76083076 0.875 299.6875 C0.88094854 300.66621803 0.88689708 301.64493606 0.89302588 302.65331221 C1.21593598 355.85236846 1.47453456 409.0498544 1.4375 462.25 C1.43621597 464.10852348 1.43621597 464.10852348 1.43490601 466.0045929 C1.424109 480.48224878 1.40407065 494.95986972 1.375 509.4375 C-9.515 509.4375 -20.405 509.4375 -31.625 509.4375 C-31.6189037 505.9711749 -31.6189037 505.9711749 -31.61268425 502.43482304 C-31.51778774 447.59488086 -31.47571863 392.7550913 -31.49652898 337.91506634 C-31.49907612 331.16709187 -31.50113201 324.41911729 -31.50292969 317.67114258 C-31.50311694 316.9996402 -31.50330419 316.32813782 -31.50349712 315.63628688 C-31.50933561 293.8733027 -31.48273826 272.11050515 -31.43930914 250.3475682 C-31.3935886 227.34803887 -31.38485108 204.34869808 -31.4150821 181.34912628 C-31.43199733 167.57109879 -31.41931679 153.79374826 -31.36893077 140.01579981 C-31.33721618 130.57124341 -31.3421951 121.12715322 -31.37615602 111.68260635 C-31.39467123 106.2310458 -31.39688605 100.78074793 -31.35556984 95.32928467 C-31.31809399 90.33743707 -31.32672654 85.34786391 -31.37194325 80.35610007 C-31.38017142 78.55110176 -31.37151697 76.74593041 -31.34421335 74.94111986 C-30.98675529 65.17247347 -30.98675529 65.17247347 -34.82632661 56.5084151 C-37.42536761 54.11541504 -37.42536761 54.11541504 -40.18203938 52.2863993 C-45.03018443 48.61719075 -47.48372576 42.32289459 -48.625 36.4375 C-49.58330473 25.86472815 -47.62237345 17.2116097 -41.375 8.5625 C-31.45311023 -3.3140233 -13.92536151 -6.59344769 0 0 Z " fill="#43499C" transform="translate(55.625,2.5625)"/>
<path d="M0 0 C148.17 0 296.34 0 449 0 C449 18.15 449 36.3 449 55 C445.79338398 58.20661602 445.09581664 58.34829955 440.80992445 58.39302543 C440.10226743 58.38514439 439.3946104 58.37726335 438.66550922 58.36914349 C437.90903303 58.37260502 437.15255683 58.37606655 436.37315711 58.37963298 C433.81769321 58.38762502 431.26278717 58.37407293 428.70735168 58.36076355 C426.8651002 58.3620708 425.02284925 58.36469573 423.1806013 58.36853105 C418.10220659 58.37526382 413.02400039 58.36320509 407.94562972 58.34819686 C402.47528361 58.33528087 397.00494874 58.33962281 391.53459167 58.34190369 C382.05151143 58.34347924 372.56849295 58.33404063 363.08542824 58.31719017 C349.37439859 58.29284285 335.66339891 58.28499928 321.95234998 58.2812262 C299.70885876 58.274655 277.4653964 58.25470144 255.22192383 58.22631836 C233.61027193 58.19877328 211.99862883 58.17751842 190.38696289 58.16479492 C189.72100853 58.16440034 189.05505417 58.16400576 188.36891938 58.16359923 C181.01765629 58.15925125 173.66639311 58.1550757 166.31512988 58.15097082 C110.87672927 58.11985411 55.43836891 58.0661764 0 58 C0 38.86 0 19.72 0 0 Z " fill="#FE4C56" transform="translate(56,338)"/>
<path d="M0 0 C8.99845787 5.29321051 14.12211221 11.43588236 17.375 21.4375 C19.62927414 32.00164743 17.90919237 41.11120279 12.09765625 50.1640625 C9.62155974 53.43183613 6.84966008 56.23449387 3.375 58.4375 C2.715 58.4375 2.055 58.4375 1.375 58.4375 C1.375 207.2675 1.375 356.0975 1.375 509.4375 C-9.515 509.4375 -20.405 509.4375 -31.625 509.4375 C-31.6189037 505.9711749 -31.6189037 505.9711749 -31.61268425 502.43482304 C-31.51778774 447.59488086 -31.47571863 392.7550913 -31.49652898 337.91506634 C-31.49907612 331.16709187 -31.50113201 324.41911729 -31.50292969 317.67114258 C-31.50311694 316.9996402 -31.50330419 316.32813782 -31.50349712 315.63628688 C-31.50933561 293.8733027 -31.48273826 272.11050515 -31.43930914 250.3475682 C-31.3935886 227.34803887 -31.38485108 204.34869808 -31.4150821 181.34912628 C-31.43199733 167.57109879 -31.41931679 153.79374826 -31.36893077 140.01579981 C-31.33721618 130.57124341 -31.3421951 121.12715322 -31.37615602 111.68260635 C-31.39467123 106.2310458 -31.39688605 100.78074793 -31.35556984 95.32928467 C-31.31809399 90.33743707 -31.32672654 85.34786391 -31.37194325 80.35610007 C-31.38017142 78.55110176 -31.37151697 76.74593041 -31.34421335 74.94111986 C-30.98675529 65.17247347 -30.98675529 65.17247347 -34.82632661 56.5084151 C-37.42536761 54.11541504 -37.42536761 54.11541504 -40.18203938 52.2863993 C-45.03018443 48.61719075 -47.48372576 42.32289459 -48.625 36.4375 C-49.58330473 25.86472815 -47.62237345 17.2116097 -41.375 8.5625 C-31.45311023 -3.3140233 -13.92536151 -6.59344769 0 0 Z " fill="#2E3033" transform="translate(55.625,2.5625)"/>
<path d="M0 0 C148.17 0 296.34 0 449 0 C449 12.54 449 25.08 449 38 C300.83 38 152.66 38 0 38 C0 25.46 0 12.92 0 0 Z " fill="#FE4B55" transform="translate(56,300)"/>
<path d="M0 0 C1.25706415 0.00056958 1.25706415 0.00056958 2.53952354 0.00115067 C3.98463588 -0.00183591 3.98463588 -0.00183591 5.45894241 -0.00488281 C7.06542575 -0.00051355 7.06542575 -0.00051355 8.70436329 0.00394398 C9.83227816 0.00308955 10.96019304 0.00223513 12.12228715 0.00135481 C15.93338861 -0.00030327 19.74444686 0.00522674 23.55554432 0.01067311 C26.27486935 0.01151049 28.99419352 0.01084145 31.71351856 0.0102306 C37.58431239 0.00970517 43.45509515 0.01285398 49.32588619 0.01846844 C57.81415963 0.02658084 66.3024277 0.02919839 74.7907046 0.03045643 C88.56095369 0.03264736 102.33119687 0.03930856 116.10144275 0.04875904 C129.48132527 0.0579321 142.86120617 0.06501345 156.24109119 0.06926686 C157.47731328 0.06966094 157.47731328 0.06966094 158.73850954 0.07006299 C162.87284256 0.07136798 167.0071756 0.0726317 171.14150864 0.07387489 C205.46303733 0.08424878 239.78455834 0.1021426 274.10608143 0.1241985 C274.10608143 12.9941985 274.10608143 25.8641985 274.10608143 39.1241985 C182.69608143 39.1241985 91.28608143 39.1241985 -2.89391857 39.1241985 C-2.89391857 0.18977602 -2.89391857 0.18977602 0 0 Z " fill="#FE4F59" transform="translate(230.89391857385635,183.8758015036583)"/>
<path d="M0 0 C91.08 0 182.16 0 276 0 C276 12.54 276 25.08 276 38 C184.92 38 93.84 38 0 38 C0 25.46 0 12.92 0 0 Z " fill="#FE4B55" transform="translate(229,127)"/>
<path d="M0 0 C90.09 0 180.18 0 273 0 C278.67254597 11.34509194 275 25.31580161 275 38 C184.25 38 93.5 38 0 38 C0 25.46 0 12.92 0 0 Z " fill="#FE4B55" transform="translate(229,69)"/>
<path d="M0 0 C148.17 0 296.34 0 449 0 C449 18.15 449 36.3 449 55 C448.67 55 448.34 55 448 55 C448 43.45 448 31.9 448 20 C300.16 20 152.32 20 0 20 C0 13.4 0 6.8 0 0 Z " fill="#F5F0F1" transform="translate(56,338)"/>
<path d="M0 0 C148.17 0 296.34 0 449 0 C449 6.6 449 13.2 449 20 C300.83 20 152.66 20 0 20 C0 13.4 0 6.8 0 0 Z " fill="#F5F1F1" transform="translate(56,280)"/>
<path d="M0 0 C50.49 0 100.98 0 153 0 C153 0.33 153 0.66 153 1 C106.47 1 59.94 1 12 1 C12.33 3.31 12.66 5.62 13 8 C15.64 8 18.28 8 21 8 C19.71034824 9.37562854 18.37310707 10.70766393 17 12 C16.34 12 15.68 12 15 12 C15.350625 12.763125 15.70125 13.52625 16.0625 14.3125 C17 17 17 17 16 20 C15.443125 19.46375 14.88625 18.9275 14.3125 18.375 C13.549375 17.92125 12.78625 17.4675 12 17 C9.40952023 17.75285597 9.40952023 17.75285597 7 19 C6.01 19 5.02 19 4 19 C4.2475 17.9275 4.495 16.855 4.75 15.75 C5.42428622 11.97254504 5.42428622 11.97254504 3.0625 9.5625 C2.381875 9.046875 1.70125 8.53125 1 8 C4.465 7.505 4.465 7.505 8 7 C8.66 5.02 9.32 3.04 10 1 C6.7 1 3.4 1 0 1 C0 0.67 0 0.34 0 0 Z " fill="#5F64AA" transform="translate(56,69)"/>
<path d="M0 0 C2.35953094 2.35953094 2.49141413 3.77895617 3 7 C5.64 7 8.28 7 11 7 C10.154375 7.66 9.30875 8.32 8.4375 9 C5.81089794 11.6303496 5.81089794 11.6303496 5.890625 14.11328125 C6.15774969 16.09211284 6.57033783 18.04999475 7 20 C6.2575 19.484375 5.515 18.96875 4.75 18.4375 C2.20915447 16.7932769 2.20915447 16.7932769 -0.0625 17.1875 C-2.09507174 18.03986879 -4.0570659 18.95914244 -6 20 C-5.731875 18.783125 -5.46375 17.56625 -5.1875 16.3125 C-4.82432666 14.13313307 -4.82432666 14.13313307 -5 12 C-7.27127334 8.97590636 -7.27127334 8.97590636 -10 7 C-7.36 7 -4.72 7 -2 7 C-1.34 4.69 -0.68 2.38 0 0 Z " fill="#E7E8F2" transform="translate(109,200)"/>
<path d="M0 0 C2.35953094 2.35953094 2.49141413 3.77895617 3 7 C5.64 7 8.28 7 11 7 C10.154375 7.66 9.30875 8.32 8.4375 9 C5.81089794 11.6303496 5.81089794 11.6303496 5.890625 14.11328125 C6.15774969 16.09211284 6.57033783 18.04999475 7 20 C6.2575 19.484375 5.515 18.96875 4.75 18.4375 C2.20915447 16.7932769 2.20915447 16.7932769 -0.0625 17.1875 C-2.09507174 18.03986879 -4.0570659 18.95914244 -6 20 C-5.731875 18.783125 -5.46375 17.56625 -5.1875 16.3125 C-4.82432666 14.13313307 -4.82432666 14.13313307 -5 12 C-7.27127334 8.97590636 -7.27127334 8.97590636 -10 7 C-7.36 7 -4.72 7 -2 7 C-1.34 4.69 -0.68 2.38 0 0 Z " fill="#E7E8F2" transform="translate(150,72)"/>
<path d="M0 0 C2.35953094 2.35953094 2.49141413 3.77895617 3 7 C5.64 7 8.28 7 11 7 C10.154375 7.66 9.30875 8.32 8.4375 9 C5.81089794 11.6303496 5.81089794 11.6303496 5.890625 14.11328125 C6.15774969 16.09211284 6.57033783 18.04999475 7 20 C3.535 18.02 3.535 18.02 0 16 C-1.98 17.32 -3.96 18.64 -6 20 C-5.731875 18.783125 -5.46375 17.56625 -5.1875 16.3125 C-4.82432666 14.13313307 -4.82432666 14.13313307 -5 12 C-7.27127334 8.97590636 -7.27127334 8.97590636 -10 7 C-7.36 7 -4.72 7 -2 7 C-1.34 4.69 -0.68 2.38 0 0 Z " fill="#E9EAF3" transform="translate(130,184)"/>
<path d="M0 0 C2.35953094 2.35953094 2.49141413 3.77895617 3 7 C5.64 7 8.28 7 11 7 C10.154375 7.66 9.30875 8.32 8.4375 9 C5.81089794 11.6303496 5.81089794 11.6303496 5.890625 14.11328125 C6.15774969 16.09211284 6.57033783 18.04999475 7 20 C3.535 18.02 3.535 18.02 0 16 C-1.98 17.32 -3.96 18.64 -6 20 C-5.731875 18.783125 -5.46375 17.56625 -5.1875 16.3125 C-4.82432666 14.13313307 -4.82432666 14.13313307 -5 12 C-7.27127334 8.97590636 -7.27127334 8.97590636 -10 7 C-7.36 7 -4.72 7 -2 7 C-1.34 4.69 -0.68 2.38 0 0 Z " fill="#EAEBF4" transform="translate(151,168)"/>
<path d="M0 0 C2.35953094 2.35953094 2.49141413 3.77895617 3 7 C5.64 7 8.28 7 11 7 C9.71034824 8.37562854 8.37310707 9.70766393 7 11 C6.34 11 5.68 11 5 11 C5.66 13.97 6.32 16.94 7 20 C3.535 18.02 3.535 18.02 0 16 C-1.98 17.32 -3.96 18.64 -6 20 C-5.731875 18.783125 -5.46375 17.56625 -5.1875 16.3125 C-4.82432666 14.13313307 -4.82432666 14.13313307 -5 12 C-7.27127334 8.97590636 -7.27127334 8.97590636 -10 7 C-7.36 7 -4.72 7 -2 7 C-1.34 4.69 -0.68 2.38 0 0 Z " fill="#EBEBF4" transform="translate(172,152)"/>
<path d="M0 0 C0.66 0.33 1.32 0.66 2 1 C2.625 4.0625 2.625 4.0625 3 7 C5.64 7 8.28 7 11 7 C10.154375 7.66 9.30875 8.32 8.4375 9 C5.81089794 11.6303496 5.81089794 11.6303496 5.890625 14.11328125 C6.15774969 16.09211284 6.57033783 18.04999475 7 20 C6.2575 19.484375 5.515 18.96875 4.75 18.4375 C2.19759615 16.77437194 2.19759615 16.77437194 -0.125 17.25 C-0.74375 17.4975 -1.3625 17.745 -2 18 C-2.99 18.33 -3.98 18.66 -5 19 C-4.67 16.36 -4.34 13.72 -4 11 C-6.475 10.01 -6.475 10.01 -9 9 C-9 8.34 -9 7.68 -9 7 C-5.535 6.505 -5.535 6.505 -2 6 C-1.34 4.02 -0.68 2.04 0 0 Z " fill="#EAEBF4" transform="translate(173,188)"/>
<path d="M0 0 C0.66 0.33 1.32 0.66 2 1 C2.625 4.0625 2.625 4.0625 3 7 C5.64 7 8.28 7 11 7 C10.154375 7.66 9.30875 8.32 8.4375 9 C5.81089794 11.6303496 5.81089794 11.6303496 5.890625 14.11328125 C6.15774969 16.09211284 6.57033783 18.04999475 7 20 C6.2575 19.484375 5.515 18.96875 4.75 18.4375 C2.19759615 16.77437194 2.19759615 16.77437194 -0.125 17.25 C-0.74375 17.4975 -1.3625 17.745 -2 18 C-2.99 18.33 -3.98 18.66 -5 19 C-4.67 16.36 -4.34 13.72 -4 11 C-6.475 10.01 -6.475 10.01 -9 9 C-9 8.34 -9 7.68 -9 7 C-5.535 6.505 -5.535 6.505 -2 6 C-1.34 4.02 -0.68 2.04 0 0 Z " fill="#EAEBF4" transform="translate(76,116)"/>
<path d="M0 0 C0.66 0 1.32 0 2 0 C2.33 1.98 2.66 3.96 3 6 C5.64 6 8.28 6 11 6 C11 6.66 11 7.32 11 8 C8.5 9.625 8.5 9.625 6 11 C6.33 13.31 6.66 15.62 7 18 C6.1646875 17.4740625 6.1646875 17.4740625 5.3125 16.9375 C1.55681863 15.41492647 -1.2832512 16.76108373 -5 18 C-4.67 15.69 -4.34 13.38 -4 11 C-4.825 10.54625 -5.65 10.0925 -6.5 9.625 C-7.7375 8.820625 -7.7375 8.820625 -9 8 C-9 7.34 -9 6.68 -9 6 C-6.36 6 -3.72 6 -1 6 C-0.67 4.02 -0.34 2.04 0 0 Z " fill="#EAEBF4" transform="translate(192,173)"/>
<path d="M0 0 C2.35953094 2.35953094 2.49141413 3.77895617 3 7 C5.64 7 8.28 7 11 7 C9.71034824 8.37562854 8.37310707 9.70766393 7 11 C6.34 11 5.68 11 5 11 C5.66 13.64 6.32 16.28 7 19 C6.236875 18.67 5.47375 18.34 4.6875 18 C0.41535909 16.41036617 -1.95586595 17.25118528 -6 19 C-5.5978125 17.4221875 -5.5978125 17.4221875 -5.1875 15.8125 C-4.5625 11.85416667 -4.5625 11.85416667 -7.4375 9.0625 C-8.283125 8.381875 -9.12875 7.70125 -10 7 C-7.36 7 -4.72 7 -2 7 C-1.34 4.69 -0.68 2.38 0 0 Z " fill="#EDEEF5" transform="translate(193,136)"/>
<path d="M0 0 C0.66 0.33 1.32 0.66 2 1 C2.625 4.0625 2.625 4.0625 3 7 C5.64 7 8.28 7 11 7 C10.154375 7.680625 9.30875 8.36125 8.4375 9.0625 C5.5625 11.85416667 5.5625 11.85416667 6.1875 15.8125 C6.5896875 17.3903125 6.5896875 17.3903125 7 19 C6.401875 18.690625 5.80375 18.38125 5.1875 18.0625 C2.91043228 16.89790296 2.91043228 16.89790296 0 16 C-2.19038423 17.37168238 -2.19038423 17.37168238 -4 19 C-4.66 18.67 -5.32 18.34 -6 18 C-5.34 15.69 -4.68 13.38 -4 11 C-4.639375 10.71125 -5.27875 10.4225 -5.9375 10.125 C-8 9 -8 9 -9 7 C-6.69 7 -4.38 7 -2 7 C-1.34 4.69 -0.68 2.38 0 0 Z " fill="#EEEFF6" transform="translate(66,199)"/>
<path d="M0 0 C0.66 0.33 1.32 0.66 2 1 C2.625 4.0625 2.625 4.0625 3 7 C5.31 7 7.62 7 10 7 C9.319375 7.495 8.63875 7.99 7.9375 8.5 C5.80204136 10.74267312 5.80204136 10.74267312 5.95703125 13.046875 C6.22259233 15.04389436 6.60490464 17.02452318 7 19 C6.2575 18.484375 5.515 17.96875 4.75 17.4375 C2.20915447 15.7932769 2.20915447 15.7932769 -0.0625 16.1875 C-2.09507174 17.03986879 -4.0570659 17.95914244 -6 19 C-5.67 16.36 -5.34 13.72 -5 11 C-5.66 10.54625 -6.32 10.0925 -7 9.625 C-7.66 9.08875 -8.32 8.5525 -9 8 C-9 7.34 -9 6.68 -9 6 C-6.69 6 -4.38 6 -2 6 C-1.34 4.02 -0.68 2.04 0 0 Z " fill="#ECECF5" transform="translate(90,184)"/>
<path d="M0 0 C1.5 1.3125 1.5 1.3125 3 3 C3 3.99 3 4.98 3 6 C5.64 6 8.28 6 11 6 C10.154375 6.680625 9.30875 7.36125 8.4375 8.0625 C5.5625 10.85416667 5.5625 10.85416667 6.1875 14.8125 C6.455625 15.864375 6.72375 16.91625 7 18 C6.1646875 17.4740625 6.1646875 17.4740625 5.3125 16.9375 C1.55681863 15.41492647 -1.2832512 16.76108373 -5 18 C-4.67 15.36 -4.34 12.72 -4 10 C-6.475 9.01 -6.475 9.01 -9 8 C-9 7.34 -9 6.68 -9 6 C-6.36 6 -3.72 6 -1 6 C-0.67 4.02 -0.34 2.04 0 0 Z " fill="#ECEDF5" transform="translate(115,166)"/>
<path d="M0 0 C2.35953094 2.35953094 2.49141413 3.77895617 3 7 C5.64 7 8.28 7 11 7 C9.71034824 8.37562854 8.37310707 9.70766393 7 11 C6.34 11 5.68 11 5 11 C5.66 13.64 6.32 16.28 7 19 C6.401875 18.690625 5.80375 18.38125 5.1875 18.0625 C2.91043228 16.89790296 2.91043228 16.89790296 0 16 C-1.36733028 16.95298777 -2.70264493 17.95374591 -4 19 C-4.66 19 -5.32 19 -6 19 C-5.34 16.36 -4.68 13.72 -4 11 C-4.928125 10.566875 -4.928125 10.566875 -5.875 10.125 C-8 9 -8 9 -10 7 C-7.36 7 -4.72 7 -2 7 C-1.34 4.69 -0.68 2.38 0 0 Z " fill="#F0F0F7" transform="translate(155,129)"/>
<path d="M0 0 C0.66 0.33 1.32 0.66 2 1 C2.625 4.0625 2.625 4.0625 3 7 C5.31 7 7.62 7 10 7 C9.319375 7.495 8.63875 7.99 7.9375 8.5 C5.80204136 10.74267312 5.80204136 10.74267312 5.95703125 13.046875 C6.22259233 15.04389436 6.60490464 17.02452318 7 19 C6.2575 18.484375 5.515 17.96875 4.75 17.4375 C2.20915447 15.7932769 2.20915447 15.7932769 -0.0625 16.1875 C-2.09507174 17.03986879 -4.0570659 17.95914244 -6 19 C-5.67 16.36 -5.34 13.72 -5 11 C-5.66 10.54625 -6.32 10.0925 -7 9.625 C-7.66 9.08875 -8.32 8.5525 -9 8 C-9 7.34 -9 6.68 -9 6 C-6.69 6 -4.38 6 -2 6 C-1.34 4.02 -0.68 2.04 0 0 Z " fill="#ECECF5" transform="translate(148,104)"/>
<path d="M0 0 C2 3 2 3 3 6 C5.31 6.33 7.62 6.66 10 7 C8.625 9 8.625 9 7 11 C6.34 11 5.68 11 5 11 C5.33 13.64 5.66 16.28 6 19 C5.2575 18.46375 4.515 17.9275 3.75 17.375 C2.8425 16.92125 1.935 16.4675 1 16 C-1.16666667 16.66666667 -1.16666667 16.66666667 -3 18 C-3.99 18.33 -4.98 18.66 -6 19 C-5.5978125 17.4221875 -5.5978125 17.4221875 -5.1875 15.8125 C-4.5625 11.85416667 -4.5625 11.85416667 -7.4375 9.0625 C-8.283125 8.381875 -9.12875 7.70125 -10 7 C-7.36 7 -4.72 7 -2 7 C-1.855625 6.030625 -1.71125 5.06125 -1.5625 4.0625 C-1 1 -1 1 0 0 Z " fill="#EFF0F6" transform="translate(177,116)"/>
<path d="M0 0 C0.66 0 1.32 0 2 0 C2.33 2.31 2.66 4.62 3 7 C5.64 7 8.28 7 11 7 C10.154375 7.86625 9.30875 8.7325 8.4375 9.625 C6.17846588 12.29015261 5.98160412 12.66887413 6.1875 16.375 C6.455625 17.24125 6.72375 18.1075 7 19 C6.2575 18.46375 5.515 17.9275 4.75 17.375 C3.8425 16.92125 2.935 16.4675 2 16 C-0.16666667 16.66666667 -0.16666667 16.66666667 -2 18 C-2.99 18.33 -3.98 18.66 -5 19 C-4.9175 17.7625 -4.835 16.525 -4.75 15.25 C-4.7262052 11.89493302 -4.80358323 11.24552096 -7 8.5 C-7.66 8.005 -8.32 7.51 -9 7 C-6.36 7 -3.72 7 -1 7 C-0.67 4.69 -0.34 2.38 0 0 Z " fill="#F0F1F7" transform="translate(125,87)"/>
<path d="M0 0 C0.66 0 1.32 0 2 0 C2.33 2.31 2.66 4.62 3 7 C5.64 7 8.28 7 11 7 C10.154375 7.86625 9.30875 8.7325 8.4375 9.625 C6.17846588 12.29015261 5.98160412 12.66887413 6.1875 16.375 C6.455625 17.24125 6.72375 18.1075 7 19 C6.2575 18.46375 5.515 17.9275 4.75 17.375 C3.8425 16.92125 2.935 16.4675 2 16 C-0.16666667 16.66666667 -0.16666667 16.66666667 -2 18 C-2.99 18.33 -3.98 18.66 -5 19 C-4.9175 17.7625 -4.835 16.525 -4.75 15.25 C-4.7262052 11.89493302 -4.80358323 11.24552096 -7 8.5 C-7.66 8.005 -8.32 7.51 -9 7 C-6.36 7 -3.72 7 -1 7 C-0.67 4.69 -0.34 2.38 0 0 Z " fill="#EFEFF6" transform="translate(101,74)"/>
<path d="M0 0 C2 3 2 3 3 6 C5.31 6.33 7.62 6.66 10 7 C8.625 9 8.625 9 7 11 C6.34 11 5.68 11 5 11 C5.33 13.64 5.66 16.28 6 19 C5.2575 18.46375 4.515 17.9275 3.75 17.375 C2.8425 16.92125 1.935 16.4675 1 16 C-1.16666667 16.66666667 -1.16666667 16.66666667 -3 18 C-3.99 18.33 -4.98 18.66 -6 19 C-5.5978125 17.4221875 -5.5978125 17.4221875 -5.1875 15.8125 C-4.5625 11.85416667 -4.5625 11.85416667 -7.4375 9.0625 C-8.283125 8.381875 -9.12875 7.70125 -10 7 C-7.36 7 -4.72 7 -2 7 C-1.855625 6.030625 -1.71125 5.06125 -1.5625 4.0625 C-1 1 -1 1 0 0 Z " fill="#EFEFF6" transform="translate(192,72)"/>
<path d="M0 0 C0.66 0.33 1.32 0.66 2 1 C2.625 4.0625 2.625 4.0625 3 7 C5.64 7 8.28 7 11 7 C10.154375 7.680625 9.30875 8.36125 8.4375 9.0625 C5.5625 11.85416667 5.5625 11.85416667 6.1875 15.8125 C6.5896875 17.3903125 6.5896875 17.3903125 7 19 C6.401875 18.690625 5.80375 18.38125 5.1875 18.0625 C2.91043228 16.89790296 2.91043228 16.89790296 0 16 C-2.67676547 17.37249963 -2.67676547 17.37249963 -5 19 C-4.67 16.36 -4.34 13.72 -4 11 C-4.639375 10.71125 -5.27875 10.4225 -5.9375 10.125 C-8 9 -8 9 -9 7 C-5.535 6.505 -5.535 6.505 -2 6 C-1.34 4.02 -0.68 2.04 0 0 Z " fill="#F0F0F7" transform="translate(126,119)"/>
<path d="M0 0 C2 3 2 3 3 6 C5.31 6.33 7.62 6.66 10 7 C9.34 7.495 8.68 7.99 8 8.5 C5.1172783 12.10340212 5.69799003 14.46985042 6 19 C5.2575 18.46375 4.515 17.9275 3.75 17.375 C2.8425 16.92125 1.935 16.4675 1 16 C-1.16666667 16.66666667 -1.16666667 16.66666667 -3 18 C-3.99 18.33 -4.98 18.66 -6 19 C-5.5978125 17.4221875 -5.5978125 17.4221875 -5.1875 15.8125 C-4.5625 11.85416667 -4.5625 11.85416667 -7.4375 9.0625 C-8.283125 8.381875 -9.12875 7.70125 -10 7 C-7.36 7 -4.72 7 -2 7 C-1.855625 6.030625 -1.71125 5.06125 -1.5625 4.0625 C-1 1 -1 1 0 0 Z " fill="#F0F1F7" transform="translate(197,98)"/>
<path d="M0 0 C2 3 2 3 3 6 C5.31 6.33 7.62 6.66 10 7 C9.34 7.495 8.68 7.99 8 8.5 C5.1172783 12.10340212 5.69799003 14.46985042 6 19 C5.2575 18.46375 4.515 17.9275 3.75 17.375 C2.8425 16.92125 1.935 16.4675 1 16 C-1.16666667 16.66666667 -1.16666667 16.66666667 -3 18 C-3.99 18.33 -4.98 18.66 -6 19 C-5.47731534 16.23723823 -4.89130413 13.6739124 -4 11 C-4.804375 10.71125 -5.60875 10.4225 -6.4375 10.125 C-9 9 -9 9 -10 7 C-7.36 7 -4.72 7 -2 7 C-1.855625 6.030625 -1.71125 5.06125 -1.5625 4.0625 C-1 1 -1 1 0 0 Z " fill="#F2F3F8" transform="translate(194,199)"/>
<path d="M0 0 C0.66 0 1.32 0 2 0 C2.66 1.98 3.32 3.96 4 6 C6.97 6.495 6.97 6.495 10 7 C8.625 9 8.625 9 7 11 C6.34 11 5.68 11 5 11 C5.33 11.598125 5.66 12.19625 6 12.8125 C7 15 7 15 7 18 C6.1646875 17.4740625 6.1646875 17.4740625 5.3125 16.9375 C2.3876905 15.75176642 0.99249759 16.10225072 -2 17 C-4.23408113 17.99083967 -4.23408113 17.99083967 -6 19 C-5.34 16.36 -4.68 13.72 -4 11 C-4.825 10.54625 -5.65 10.0925 -6.5 9.625 C-7.7375 8.820625 -7.7375 8.820625 -9 8 C-9 7.34 -9 6.68 -9 6 C-6.36 6 -3.72 6 -1 6 C-0.67 4.02 -0.34 2.04 0 0 Z " fill="#EDEEF5" transform="translate(82,151)"/>
<path d="M0 0 C0.66 0 1.32 0 2 0 C2.33 2.31 2.66 4.62 3 7 C5.64 7 8.28 7 11 7 C9.71034824 8.37562854 8.37310707 9.70766393 7 11 C6.34 11 5.68 11 5 11 C5.350625 11.763125 5.70125 12.52625 6.0625 13.3125 C7 16 7 16 6 19 C5.443125 18.46375 4.88625 17.9275 4.3125 17.375 C3.549375 16.92125 2.78625 16.4675 2 16 C-0.59047977 16.75285597 -0.59047977 16.75285597 -3 18 C-3.99 18 -4.98 18 -6 18 C-5.7525 16.9275 -5.505 15.855 -5.25 14.75 C-4.57571378 10.97254504 -4.57571378 10.97254504 -6.9375 8.5625 C-7.618125 8.046875 -8.29875 7.53125 -9 7 C-5.535 6.505 -5.535 6.505 -2 6 C-1.34 4.02 -0.68 2.04 0 0 Z " fill="#F1F2F8" transform="translate(104,135)"/>
<path d="M0 0 C2.35953094 2.35953094 2.49141413 3.77895617 3 7 C5.31 7 7.62 7 10 7 C9.319375 7.495 8.63875 7.99 7.9375 8.5 C5.80204136 10.74267312 5.80204136 10.74267312 5.95703125 13.046875 C6.22259233 15.04389436 6.60490464 17.02452318 7 19 C6.4225 18.690625 5.845 18.38125 5.25 18.0625 C2.2375338 16.61927636 2.2375338 16.61927636 -1 16 C-3.72981832 17.35400645 -3.72981832 17.35400645 -6 19 C-5.7525 17.7625 -5.505 16.525 -5.25 15.25 C-4.90427779 13.07896977 -4.90427779 13.07896977 -5 11 C-6.77154652 8.47409152 -6.77154652 8.47409152 -9 7 C-6.69 7 -4.38 7 -2 7 C-1.855625 6.030625 -1.71125 5.06125 -1.5625 4.0625 C-1 1 -1 1 0 0 Z " fill="#F2F2F8" transform="translate(170,88)"/>
<path d="M0 0 C0.66 0.33 1.32 0.66 2 1 C2.625 4.0625 2.625 4.0625 3 7 C5.64 7 8.28 7 11 7 C9.71034824 8.37562854 8.37310707 9.70766393 7 11 C6.34 11 5.68 11 5 11 C5.350625 11.763125 5.70125 12.52625 6.0625 13.3125 C7 16 7 16 6 19 C5.443125 18.46375 4.88625 17.9275 4.3125 17.375 C3.549375 16.92125 2.78625 16.4675 2 16 C-0.59047977 16.75285597 -0.59047977 16.75285597 -3 18 C-3.99 18 -4.98 18 -6 18 C-5.7525 16.9275 -5.505 15.855 -5.25 14.75 C-4.57571378 10.97254504 -4.57571378 10.97254504 -6.9375 8.5625 C-7.618125 8.046875 -8.29875 7.53125 -9 7 C-5.535 6.505 -5.535 6.505 -2 6 C-1.34 4.02 -0.68 2.04 0 0 Z " fill="#F3F3F8" transform="translate(77,86)"/>
<path d="M0 0 C0.66 0 1.32 0 2 0 C2.33 1.98 2.66 3.96 3 6 C5.64 6 8.28 6 11 6 C9.71034824 7.37562854 8.37310707 8.70766393 7 10 C6.34 10 5.68 10 5 10 C5.350625 10.763125 5.70125 11.52625 6.0625 12.3125 C7 15 7 15 6 18 C5.443125 17.46375 4.88625 16.9275 4.3125 16.375 C3.549375 15.92125 2.78625 15.4675 2 15 C-0.59047977 15.75285597 -0.59047977 15.75285597 -3 17 C-3.99 17 -4.98 17 -6 17 C-5.7525 15.9275 -5.505 14.855 -5.25 13.75 C-4.57571378 9.97254504 -4.57571378 9.97254504 -6.9375 7.5625 C-7.618125 7.046875 -8.29875 6.53125 -9 6 C-5.535 5.505 -5.535 5.505 -2 5 C-1.34 3.35 -0.68 1.7 0 0 Z " fill="#F3F3F8" transform="translate(66,71)"/>
<path d="M0 0 C0.66 0.33 1.32 0.66 2 1 C2.625 4.0625 2.625 4.0625 3 7 C5.31 7 7.62 7 10 7 C9.319375 7.495 8.63875 7.99 7.9375 8.5 C5.80204136 10.74267312 5.80204136 10.74267312 5.95703125 13.046875 C6.22259233 15.04389436 6.60490464 17.02452318 7 19 C6.2575 18.484375 5.515 17.96875 4.75 17.4375 C2.20915447 15.7932769 2.20915447 15.7932769 -0.0625 16.1875 C-2.09507174 17.03986879 -4.0570659 17.95914244 -6 19 C-5.7525 17.7625 -5.505 16.525 -5.25 15.25 C-4.90427779 13.07896977 -4.90427779 13.07896977 -5 11 C-6.77154652 8.47409152 -6.77154652 8.47409152 -9 7 C-6.69 7 -4.38 7 -2 7 C-1.855625 6.030625 -1.71125 5.06125 -1.5625 4.0625 C-1 1 -1 1 0 0 Z " fill="#F1F2F8" transform="translate(150,200)"/>
<path d="M0 0 C2.35953094 2.35953094 2.49141413 3.77895617 3 7 C5.31 7 7.62 7 10 7 C9.01 7.7734375 9.01 7.7734375 8 8.5625 C5.34362457 11.79995755 5.68657868 13.92552281 6 18 C5.13375 17.4740625 5.13375 17.4740625 4.25 16.9375 C1.5611807 15.81715862 0.68358428 15.9936559 -2 17 C-3.3479743 17.63654342 -4.68596724 18.29605388 -6 19 C-5.7525 17.7625 -5.505 16.525 -5.25 15.25 C-4.90427779 13.07896977 -4.90427779 13.07896977 -5 11 C-6.77154652 8.47409152 -6.77154652 8.47409152 -9 7 C-6.69 7 -4.38 7 -2 7 C-1.855625 6.030625 -1.71125 5.06125 -1.5625 4.0625 C-1 1 -1 1 0 0 Z " fill="#F4F4F9" transform="translate(101,102)"/>
<path d="M0 0 C0.66 0.33 1.32 0.66 2 1 C2.625 4.0625 2.625 4.0625 3 7 C5.31 7 7.62 7 10 7 C9.319375 7.495 8.63875 7.99 7.9375 8.5 C5.80204136 10.74267312 5.80204136 10.74267312 5.95703125 13.046875 C6.22259233 15.04389436 6.60490464 17.02452318 7 19 C6.2575 18.484375 5.515 17.96875 4.75 17.4375 C2.19759615 15.77437194 2.19759615 15.77437194 -0.125 16.25 C-0.74375 16.4975 -1.3625 16.745 -2 17 C-2.99 17.33 -3.98 17.66 -5 18 C-4.9175 16.9275 -4.835 15.855 -4.75 14.75 C-4.63762783 10.95990735 -4.63762783 10.95990735 -7 8.5625 C-7.66 8.046875 -8.32 7.53125 -9 7 C-6.36 7 -3.72 7 -1 7 C-0.67 4.69 -0.34 2.38 0 0 Z " fill="#F4F4F9" transform="translate(135,148)"/>
<path d="M0 0 C2 3 2 3 3 6 C5.31 6.33 7.62 6.66 10 7 C8.625 9 8.625 9 7 11 C6.34 11 5.68 11 5 11 C5.33 13.64 5.66 16.28 6 19 C5.2265625 18.4740625 5.2265625 18.4740625 4.4375 17.9375 C1.05993333 16.6384359 -1.50468057 17.32782319 -5 18 C-5 14.37 -5 10.74 -5 7 C-4.01 7 -3.02 7 -2 7 C-1.855625 6.030625 -1.71125 5.06125 -1.5625 4.0625 C-1 1 -1 1 0 0 Z " fill="#EDEEF4" transform="translate(61,166)"/>
<path d="M0 0 C2.64 0 5.28 0 8 0 C8 0.66 8 1.32 8 2 C5.5 3.625 5.5 3.625 3 5 C3.33 7.64 3.66 10.28 4 13 C2.015625 11.82421875 2.015625 11.82421875 0 10 C-0.390625 7.51953125 -0.390625 7.51953125 -0.25 4.8125 C-0.21390625 3.91144531 -0.1778125 3.01039062 -0.140625 2.08203125 C-0.07101563 1.05142578 -0.07101563 1.05142578 0 0 Z " fill="#D6D7E4" transform="translate(56,104)"/>
<path d="M0 0 C1.98 0 3.96 0 6 0 C5.34 0.495 4.68 0.99 4 1.5 C1.1172783 5.10340212 1.69799003 7.46985042 2 12 C1.34 11.67 0.68 11.34 0 11 C0 7.37 0 3.74 0 0 Z " fill="#D9D9E2" transform="translate(56,138)"/>
</svg>
