<?xml version="1.0" encoding="UTF-8"?>
<svg version="1.1" xmlns="http://www.w3.org/2000/svg" width="512" height="512">
<path d="M0 0 C4.58253574 2.66688556 7.51875646 5.9627745 9.75 10.828125 C11.02038248 15.97771112 10.83454334 20.96929311 10.75 26.25 C10.74097656 27.31992187 10.73195312 28.38984375 10.72265625 29.4921875 C10.69919342 32.12002439 10.66636459 34.74739406 10.625 37.375 C12.10438884 37.3721521 12.10438884 37.3721521 13.61366433 37.36924666 C72.02534634 37.25724255 130.43702755 37.17159713 188.84879358 37.11967335 C195.8572851 37.11343654 202.8657764 37.10695379 209.87426758 37.1003418 C210.92042419 37.0993611 210.92042419 37.0993611 211.98771528 37.0983606 C234.60314478 37.07704502 257.21851191 37.03948192 279.8339036 36.9935139 C303.72799015 36.94503489 327.62203264 36.9150253 351.51616746 36.90455753 C365.83451919 36.89768584 380.1526919 36.87595713 394.47098855 36.83541767 C404.28027427 36.80905388 414.08946701 36.80098456 423.89878561 36.80749311 C429.56419843 36.81070591 435.22929771 36.80566942 440.89465523 36.77897263 C446.07688518 36.75472991 451.25858929 36.75335394 456.4408429 36.77050553 C458.31979942 36.77262687 460.1987881 36.76620845 462.07768085 36.75058409 C464.62458705 36.73062895 467.16957445 36.7412608 469.71644878 36.75976086 C470.82059016 36.74005825 470.82059016 36.74005825 471.94703743 36.71995762 C475.72947496 36.78240045 477.51566535 37.29363769 480.58013368 39.57408786 C482.84855602 42.68121111 483.25031871 44.01468478 483.25141239 47.80483341 C483.26383443 48.88869109 483.27625647 49.97254877 483.28905493 51.08925062 C483.2772192 52.27426096 483.26538347 53.4592713 483.25318909 54.68019104 C483.26383067 56.57509235 483.26383067 56.57509235 483.27468723 58.5082745 C483.29362949 62.01257979 483.28136547 65.51618796 483.2639643 69.02047575 C483.25060366 72.80036006 483.26602259 76.58014149 483.27778625 80.36001587 C483.29617652 87.76362198 483.28764162 95.16696438 483.26969803 102.57056231 C483.25568 108.58635125 483.2517775 114.60206853 483.2551403 120.61787224 C483.25585647 121.90150366 483.25585647 121.90150366 483.2565871 123.21106703 C483.25761341 124.94942945 483.25866877 126.68779186 483.25975286 128.42615425 C483.26832259 143.80132688 483.25163552 159.17637205 483.22192383 174.55151367 C483.19308071 189.47734937 483.1860049 204.4030015 483.20141602 219.32885742 C483.21816857 235.57620477 483.22222245 251.82346494 483.20470566 268.07081455 C483.20286123 269.8025242 483.20102651 271.53423386 483.19920158 273.26594353 C483.19828949 274.11801581 483.1973774 274.9700881 483.19643768 275.84798076 C483.19082677 281.85845741 483.19414456 287.86889157 483.20074654 293.87936592 C483.20846967 301.20132506 483.20176395 308.52310334 483.1765715 315.84502596 C483.16405316 319.58226336 483.15795794 323.31921885 483.16911316 327.05646706 C483.1809652 331.10350506 483.16194185 335.14979882 483.1396637 339.1967926 C483.14790446 340.38403366 483.15614523 341.57127472 483.16463572 342.79449278 C483.15358803 343.87574271 483.14254034 344.95699265 483.13115788 346.07100773 C483.12996639 347.00544714 483.12877491 347.93988655 483.12754732 348.90264231 C482.4374539 352.29766144 481.47286188 353.40456333 478.625 355.375 C475.88913825 355.76359517 473.55761433 355.90599348 470.82387924 355.86719131 C470.02910498 355.87180669 469.23433072 355.87642207 468.41547239 355.88117731 C465.73561303 355.89181776 463.05670299 355.87377784 460.37689209 355.85601807 C458.443031 355.85776139 456.50917083 355.86126191 454.57531571 355.86637473 C449.24829635 355.87534537 443.9215969 355.85928235 438.59461832 355.83926249 C432.85503027 355.82203193 427.11546112 355.82783107 421.37585449 355.83087158 C411.42732194 355.83297173 401.47889409 355.82039305 391.53038788 355.79792023 C377.14643178 355.76544921 362.76252646 355.75499822 348.37853768 355.74996826 C325.04301981 355.74120792 301.7075578 355.71460657 278.37207031 355.67675781 C255.70019827 355.64002781 233.02834115 355.61168958 210.35644531 355.59472656 C209.30840722 355.59393741 209.30840722 355.59393741 208.23919664 355.59313231 C201.22272406 355.58785828 194.20625137 355.58275502 187.18977858 355.57777687 C172.89606985 355.56763167 158.6023621 355.55634666 144.30865479 355.54437256 C142.99584771 355.54327365 141.68304063 355.54217474 140.33045152 355.54104254 C97.09527907 355.50435167 53.8601357 355.44141589 10.625 355.375 C10.63166183 356.67268311 10.63832367 357.97036621 10.64518738 359.30737305 C10.70605497 371.54868745 10.75099987 383.78997107 10.78043652 396.03140259 C10.79607903 402.3245475 10.8172918 408.61757004 10.85131836 414.91064453 C10.88396176 420.98606567 10.90186366 427.06136925 10.90963173 433.13687134 C10.91516625 435.45246226 10.92597382 437.76804689 10.94219017 440.08358765 C10.9640302 443.3319072 10.96696412 446.5797436 10.96557617 449.828125 C10.976362 450.78119034 10.98714783 451.73425568 10.9982605 452.71620178 C10.96817293 459.24211744 10.25055009 465.15216838 5.9765625 470.3984375 C5.40679687 470.84445312 4.83703125 471.29046875 4.25 471.75 C3.68539062 472.21148437 3.12078125 472.67296875 2.5390625 473.1484375 C-3.19720782 476.82433317 -8.73276926 477.11095544 -15.375 476.375 C-21.00713305 474.78888496 -24.28956404 471.8914771 -27.46484375 467.05859375 C-29.61125357 463.08819619 -29.51936535 459.36297751 -29.51201439 454.98476887 C-29.51466622 454.22224757 -29.51731804 453.45972628 -29.52005023 452.67409828 C-29.52775931 450.09817505 -29.52830301 447.52229937 -29.52890015 444.94636536 C-29.5329137 443.08919183 -29.53735175 441.23201918 -29.5421797 439.37484759 C-29.55416285 434.25496139 -29.55979768 429.13508463 -29.56436086 424.01518714 C-29.5703103 418.49969161 -29.58192173 412.98420739 -29.59265137 407.46871948 C-29.61718961 394.14093578 -29.63180417 380.81314832 -29.64471143 367.48534897 C-29.64842219 363.72255819 -29.65239551 359.95976778 -29.6564641 356.19697738 C-29.6816983 332.84259179 -29.70377278 309.48820526 -29.71619225 286.13380909 C-29.7191136 280.72258819 -29.72208112 275.31136733 -29.72509766 269.90014648 C-29.72546857 269.22786716 -29.72583947 268.55558784 -29.72622162 267.86293641 C-29.73837796 246.0645482 -29.76932345 224.26624071 -29.81101918 202.46789041 C-29.85501489 179.4251165 -29.88072568 156.38238065 -29.88611281 133.33955973 C-29.88952994 120.77715283 -29.9013208 108.21487329 -29.93421555 95.65250587 C-29.96217928 84.95559586 -29.97323149 74.25883932 -29.96202008 63.56189559 C-29.95682416 58.10266766 -29.95978109 52.64376131 -29.98448563 47.18457985 C-30.0069113 42.18734076 -30.00629017 37.1906555 -29.98728175 32.19340714 C-29.98447238 30.38514891 -29.99013213 28.57685366 -30.00509469 26.76865516 C-30.13192355 10.44407242 -30.13192355 10.44407242 -25.75255072 4.72799033 C-18.82233509 -2.07866629 -8.95651011 -4.11146464 0 0 Z " fill="#FE4B54" transform="translate(29.375,18.625)"/>
<path d="M0 0 C4.58253574 2.66688556 7.51875646 5.9627745 9.75 10.828125 C11.02038248 15.97771112 10.83454334 20.96929311 10.75 26.25 C10.74097656 27.31992187 10.73195312 28.38984375 10.72265625 29.4921875 C10.69919342 32.12002439 10.66636459 34.74739406 10.625 37.375 C12.10438884 37.3721521 12.10438884 37.3721521 13.61366433 37.36924666 C72.02534634 37.25724255 130.43702755 37.17159713 188.84879358 37.11967335 C195.8572851 37.11343654 202.8657764 37.10695379 209.87426758 37.1003418 C210.92042419 37.0993611 210.92042419 37.0993611 211.98771528 37.0983606 C234.60314478 37.07704502 257.21851191 37.03948192 279.8339036 36.9935139 C303.72799015 36.94503489 327.62203264 36.9150253 351.51616746 36.90455753 C365.83451919 36.89768584 380.1526919 36.87595713 394.47098855 36.83541767 C404.28027427 36.80905388 414.08946701 36.80098456 423.89878561 36.80749311 C429.56419843 36.81070591 435.22929771 36.80566942 440.89465523 36.77897263 C446.07688518 36.75472991 451.25858929 36.75335394 456.4408429 36.77050553 C458.31979942 36.77262687 460.1987881 36.76620845 462.07768085 36.75058409 C464.62458705 36.73062895 467.16957445 36.7412608 469.71644878 36.75976086 C470.82059016 36.74005825 470.82059016 36.74005825 471.94703743 36.71995762 C477.81864678 36.8168898 477.96919026 37.71919026 482.625 42.375 C482.625 75.705 482.625 109.035 482.625 143.375 C326.535 143.375 170.445 143.375 9.625 143.375 C9.955 213.335 10.285 283.295 10.625 355.375 C10.625 464.69253555 10.625 464.69253555 5.9765625 470.3984375 C5.40679687 470.84445312 4.83703125 471.29046875 4.25 471.75 C3.68539062 472.21148437 3.12078125 472.67296875 2.5390625 473.1484375 C-3.19720782 476.82433317 -8.73276926 477.11095544 -15.375 476.375 C-21.00713305 474.78888496 -24.28956404 471.8914771 -27.46484375 467.05859375 C-29.61125357 463.08819619 -29.51936535 459.36297751 -29.51201439 454.98476887 C-29.51466622 454.22224757 -29.51731804 453.45972628 -29.52005023 452.67409828 C-29.52775931 450.09817505 -29.52830301 447.52229937 -29.52890015 444.94636536 C-29.5329137 443.08919183 -29.53735175 441.23201918 -29.5421797 439.37484759 C-29.55416285 434.25496139 -29.55979768 429.13508463 -29.56436086 424.01518714 C-29.5703103 418.49969161 -29.58192173 412.98420739 -29.59265137 407.46871948 C-29.61718961 394.14093578 -29.63180417 380.81314832 -29.64471143 367.48534897 C-29.64842219 363.72255819 -29.65239551 359.95976778 -29.6564641 356.19697738 C-29.6816983 332.84259179 -29.70377278 309.48820526 -29.71619225 286.13380909 C-29.7191136 280.72258819 -29.72208112 275.31136733 -29.72509766 269.90014648 C-29.72546857 269.22786716 -29.72583947 268.55558784 -29.72622162 267.86293641 C-29.73837796 246.0645482 -29.76932345 224.26624071 -29.81101918 202.46789041 C-29.85501489 179.4251165 -29.88072568 156.38238065 -29.88611281 133.33955973 C-29.88952994 120.77715283 -29.9013208 108.21487329 -29.93421555 95.65250587 C-29.96217928 84.95559586 -29.97323149 74.25883932 -29.96202008 63.56189559 C-29.95682416 58.10266766 -29.95978109 52.64376131 -29.98448563 47.18457985 C-30.0069113 42.18734076 -30.00629017 37.1906555 -29.98728175 32.19340714 C-29.98447238 30.38514891 -29.99013213 28.57685366 -30.00509469 26.76865516 C-30.13192355 10.44407242 -30.13192355 10.44407242 -25.75255072 4.72799033 C-18.82233509 -2.07866629 -8.95651011 -4.11146464 0 0 Z " fill="#464554" transform="translate(29.375,18.625)"/>
<path d="M0 0 C155.76 0 311.52 0 472 0 C472 33.66 472 67.32 472 102 C467.54341681 106.45658319 467.54341681 106.45658319 462.44229019 106.5240339 C461.70196458 106.51352585 460.96163896 106.5030178 460.19887924 106.49219131 C459.40410498 106.49680669 458.60933072 106.50142207 457.79047239 106.50617731 C455.11061303 106.51681776 452.43170299 106.49877784 449.75189209 106.48101807 C447.818031 106.48276139 445.88417083 106.48626191 443.95031571 106.49137473 C438.62329635 106.50034537 433.2965969 106.48428235 427.96961832 106.46426249 C422.23003027 106.44703193 416.49046112 106.45283107 410.75085449 106.45587158 C400.80232194 106.45797173 390.85389409 106.44539305 380.90538788 106.42292023 C366.52143178 106.39044921 352.13752646 106.37999822 337.75353768 106.37496826 C314.41801981 106.36620792 291.0825578 106.33960657 267.74707031 106.30175781 C245.07519827 106.26502781 222.40334115 106.23668958 199.73144531 106.21972656 C198.68340722 106.21893741 198.68340722 106.21893741 197.61419664 106.21813231 C190.59772406 106.21285828 183.58125137 106.20775502 176.56477858 106.20277687 C162.27106985 106.19263167 147.9773621 106.18134666 133.68365479 106.16937256 C132.37084771 106.16827365 131.05804063 106.16717474 129.70545152 106.16604254 C86.4702746 106.12935167 43.23514541 106.06397624 0 106 C0 71.02 0 36.04 0 0 Z " fill="#FFE15A" transform="translate(40,268)"/>
<path d="M0 0 C5.82541702 3.39020171 8.87309539 7.85857962 10.625 14.375 C10.80698661 16.97329692 10.89583432 19.46102386 10.87947559 22.05628777 C10.88428531 23.1925992 10.88428531 23.1925992 10.88919219 24.35186642 C10.89750022 26.89284767 10.89156511 29.43359371 10.88569641 31.97457886 C10.88871673 33.81371819 10.89260561 35.65285627 10.89728898 37.49199212 C10.90759317 42.54811462 10.90538099 47.6041664 10.90110838 52.66029477 C10.89864555 58.11234383 10.90764981 63.56437567 10.91514587 69.01641846 C10.92790725 79.69845607 10.92968477 90.38046855 10.92734561 101.0625125 C10.92556389 109.74365463 10.92730895 118.42478912 10.93157005 127.10593033 C10.93246284 128.95796291 10.93246284 128.95796291 10.93337366 130.8474103 C10.93458538 133.35553725 10.93579952 135.86366419 10.93701603 138.37179114 C10.946657 159.22107085 10.94709325 180.07034004 10.94171212 200.91962074 C10.94154103 201.58272821 10.94136994 202.24583568 10.94119367 202.92903732 C10.94084702 204.27000177 10.94049849 205.61096621 10.94014808 206.95193065 C10.93479078 227.81774262 10.94272142 248.68351232 10.96118164 269.54931641 C10.98189744 292.99208693 10.99259406 316.43483534 10.98860615 339.87761605 C10.98669203 352.29014901 10.98920217 364.70264347 11.00332069 377.11516953 C11.01521811 387.68206516 11.01665781 398.24889859 11.00453053 408.81579505 C10.99863032 414.20812781 10.99757395 419.60034671 11.00953293 424.99267197 C11.02035264 429.92861902 11.01733505 434.86435661 11.00327124 439.8002937 C11.00061351 441.58624745 11.00302447 443.37221742 11.01100711 445.15815531 C11.02110746 447.5863662 11.01269639 450.01384818 10.99973011 452.44202995 C11.00703946 453.13483683 11.0143488 453.8276437 11.02187964 454.54144472 C10.95800392 460.3154018 9.68765323 465.84311759 5.9765625 470.3984375 C5.40679687 470.84445312 4.83703125 471.29046875 4.25 471.75 C3.68539062 472.21148437 3.12078125 472.67296875 2.5390625 473.1484375 C-3.19720782 476.82433317 -8.73276926 477.11095544 -15.375 476.375 C-21.00713305 474.78888496 -24.28956404 471.8914771 -27.46484375 467.05859375 C-29.61125357 463.08819619 -29.51936535 459.36297751 -29.51201439 454.98476887 C-29.51466622 454.22224757 -29.51731804 453.45972628 -29.52005023 452.67409828 C-29.52775931 450.09817505 -29.52830301 447.52229937 -29.52890015 444.94636536 C-29.5329137 443.08919183 -29.53735175 441.23201918 -29.5421797 439.37484759 C-29.55416285 434.25496139 -29.55979768 429.13508463 -29.56436086 424.01518714 C-29.5703103 418.49969161 -29.58192173 412.98420739 -29.59265137 407.46871948 C-29.61718961 394.14093578 -29.63180417 380.81314832 -29.64471143 367.48534897 C-29.64842219 363.72255819 -29.65239551 359.95976778 -29.6564641 356.19697738 C-29.6816983 332.84259179 -29.70377278 309.48820526 -29.71619225 286.13380909 C-29.7191136 280.72258819 -29.72208112 275.31136733 -29.72509766 269.90014648 C-29.72546857 269.22786716 -29.72583947 268.55558784 -29.72622162 267.86293641 C-29.73837796 246.0645482 -29.76932345 224.26624071 -29.81101918 202.46789041 C-29.85501489 179.4251165 -29.88072568 156.38238065 -29.88611281 133.33955973 C-29.88952994 120.77715283 -29.9013208 108.21487329 -29.93421555 95.65250587 C-29.96217928 84.95559586 -29.97323149 74.25883932 -29.96202008 63.56189559 C-29.95682416 58.10266766 -29.95978109 52.64376131 -29.98448563 47.18457985 C-30.0069113 42.18734076 -30.00629017 37.1906555 -29.98728175 32.19340714 C-29.98447238 30.38514891 -29.99013213 28.57685366 -30.00509469 26.76865516 C-30.13192355 10.44407242 -30.13192355 10.44407242 -25.75255072 4.72799033 C-18.82233509 -2.07866629 -8.95651011 -4.11146464 0 0 Z " fill="#2E3033" transform="translate(29.375,18.625)"/>
</svg>
