<?xml version="1.0" encoding="UTF-8"?>
<svg version="1.1" xmlns="http://www.w3.org/2000/svg" width="512" height="512">
<path d="M0 0 C5.45987676 5.45987676 6.39388443 9.90151997 7.25 17.25 C8.01341705 17.24333817 8.77683411 17.23667633 9.56338501 17.22981262 C16.77240732 17.16959838 23.98130698 17.12397344 31.19051552 17.09456348 C34.89648834 17.078935 38.60225264 17.05774881 42.30810547 17.02368164 C45.88724175 16.99098681 49.46617798 16.97312581 53.04545212 16.96536827 C54.40815757 16.95984284 55.77085259 16.94905296 57.13347244 16.93280983 C59.04801931 16.91090364 60.96276925 16.90977347 62.87744141 16.90942383 C63.96554108 16.90276199 65.05364075 16.89610016 66.17471313 16.88923645 C69.84298719 17.31956364 72.18355879 18.18836 75.25 20.25 C75.745 22.725 75.745 22.725 76.25 25.25 C81.2 25.25 86.15 25.25 91.25 25.25 C91.58 23.93 91.91 22.61 92.25 21.25 C94.2201361 18.8321057 95.20507691 18.26497436 98.25 17.25 C100.29185545 17.15480996 102.3367389 17.12084803 104.38081074 17.11857224 C105.67194005 17.11473109 106.96306937 17.11088995 108.29332381 17.1069324 C109.73455582 17.1077127 111.17578777 17.10859149 112.61701965 17.10955811 C114.14150956 17.10697528 115.6659988 17.10396236 117.19048709 17.1005547 C121.39071106 17.09247176 125.59091795 17.09069441 129.79114878 17.08995724 C134.31682014 17.08810894 138.84248258 17.08056276 143.3681488 17.07382202 C153.26888349 17.06022921 163.16961414 17.05421257 173.07035661 17.04981136 C179.24968632 17.04705067 185.42901447 17.04281365 191.60834312 17.03830719 C208.70941094 17.02611353 225.8104775 17.01581425 242.91154957 17.0124321 C244.006451 17.01221253 245.10135242 17.01199297 246.22943268 17.01176675 C247.32698638 17.01154847 248.42454008 17.01133019 249.55535299 17.0111053 C251.77949639 17.01066183 254.0036398 17.01021527 256.2277832 17.00976562 C257.3310403 17.0095442 258.4342974 17.00932277 259.57098653 17.00909463 C277.45317341 17.00514546 295.33531957 16.98768827 313.21749071 16.9644061 C331.56675765 16.94070816 349.91600413 16.92823097 368.26528662 16.92706418 C378.57182163 16.92614657 388.87830358 16.92037258 399.18482399 16.90224457 C407.9600202 16.88686462 416.73514696 16.88171067 425.51035408 16.88998267 C429.9890349 16.89389659 434.46757576 16.8929235 438.94623947 16.87892532 C443.04520257 16.86623085 447.14391991 16.86734452 451.24288245 16.87951604 C452.7267413 16.88148078 454.2106173 16.87835886 455.69445202 16.86967167 C457.71016159 16.85861656 459.7259519 16.86783708 461.74166584 16.8780632 C462.86173348 16.87746611 463.98180112 16.87686903 465.1358102 16.87625384 C468.73766168 17.30852619 471.15540445 18.38355187 474.25 20.25 C475.5210945 22.79218899 475.37770954 24.55994165 475.38142776 27.40718746 C475.38526891 28.50658907 475.38911005 29.60599068 475.3930676 30.73870748 C475.39220112 31.95648415 475.39133463 33.17426082 475.39044189 34.42893982 C475.39489858 36.35780654 475.39489858 36.35780654 475.3994453 38.32564026 C475.4075338 41.90682945 475.40930589 45.48799862 475.41004276 49.06919587 C475.41189008 52.926792 475.4194357 56.78437767 475.42617798 60.64196777 C475.43977429 69.08186281 475.44578785 77.52175311 475.45018864 85.96165729 C475.45294849 91.22786291 475.45718534 96.49406669 475.46169281 101.76027107 C475.47388646 116.33068826 475.48418605 130.90110397 475.4875679 145.47152615 C475.48778747 146.40449876 475.48800703 147.33747138 475.48823325 148.29871589 C475.48845153 149.23396193 475.48866981 150.16920797 475.4888947 151.1327948 C475.48933817 153.02806437 475.48978474 154.92333394 475.49023438 156.81860352 C475.4904558 157.75872923 475.49067723 158.69885495 475.49090537 159.66746933 C475.49485569 174.91017367 475.51231639 190.15283026 475.5355939 205.39551615 C475.55928016 221.03157745 475.57176848 236.66761477 475.57293582 252.30369431 C475.57385404 261.08823086 475.57964337 269.87270519 475.59775543 278.65722466 C475.61311961 286.13550816 475.61829872 293.61371022 475.61001733 301.0920065 C475.60609787 304.91008082 475.6071031 308.72799095 475.62107468 312.5460453 C475.63606027 316.67884235 475.62798573 320.81126584 475.61749268 324.94407654 C475.62554908 326.15962249 475.63360548 327.37516844 475.64190602 328.62754911 C475.63531618 329.72955847 475.62872633 330.83156782 475.6219368 331.9669714 C475.62283243 333.39897929 475.62283243 333.39897929 475.62374616 334.85991663 C475.1791503 337.70307941 474.53787609 338.55592308 472.25 340.25 C468.65992791 341.4466907 465.40140165 341.38643057 461.66563129 341.37304783 C460.88214112 341.37420167 460.09865094 341.37535552 459.29141864 341.37654433 C456.64423475 341.37920867 453.99711066 341.3746903 451.34992981 341.37025452 C449.44168273 341.37069026 447.53343571 341.37156521 445.62518901 341.37284368 C440.36443237 341.37508812 435.10369594 341.37106804 429.84294188 341.36606562 C424.176275 341.36176058 418.50960933 341.36320758 412.84294128 341.3639679 C403.01938925 341.3644931 393.19584384 341.3613467 383.37229347 341.35573006 C369.16896157 341.34761454 354.96563288 341.34499978 340.7622989 341.34374207 C317.72019273 341.34155163 294.67809052 341.33490033 271.63598633 341.32543945 C249.2482912 341.31625786 226.86059702 341.30917286 204.47290039 341.30493164 C203.78304114 341.30480011 203.09318189 341.30466859 202.38241781 341.30453308 C195.45468591 341.30321458 188.526954 341.30193876 181.59922209 341.30069422 C123.48281235 341.2902498 65.36640624 341.27260047 7.25 341.25 C7.25276538 341.79922874 7.25553076 342.34845749 7.25837994 342.91432953 C7.32474767 356.30280514 7.37414117 369.69125178 7.40543652 383.07985687 C7.42108049 389.55460244 7.44229596 396.02922911 7.47631836 402.50390625 C7.5089565 408.75439114 7.52686256 415.00476178 7.53463173 421.25532532 C7.54016719 423.63790179 7.55097658 426.02047214 7.56719017 428.40299988 C7.58902316 431.74471462 7.5919644 435.08595958 7.59057617 438.42773438 C7.601362 439.40885193 7.61214783 440.38996948 7.6232605 441.40081787 C7.58729673 449.42139587 6.14207768 456.35792232 0.25 462.25 C-6.58940974 466.98005907 -12.815926 468.19240966 -20.98828125 466.89453125 C-27.81930763 465.13663327 -31.7359823 460.90239228 -35.75 455.25 C-36.91422022 451.75733935 -36.89192857 448.63010728 -36.88422108 444.99753189 C-36.88657331 444.24990636 -36.88892554 443.50228084 -36.89134905 442.73199999 C-36.89804836 440.20675594 -36.89758055 437.68156324 -36.89717102 435.15631104 C-36.90046906 433.33554816 -36.9041945 431.51478601 -36.9083125 429.6940248 C-36.91834732 424.67482042 -36.92205167 419.655628 -36.92470181 414.636415 C-36.92860043 409.22932519 -36.93817901 403.82224489 -36.94691467 398.41516113 C-36.96669076 385.3498965 -36.97674637 372.28463108 -36.98564246 359.21935523 C-36.99002316 353.07073327 -36.9953905 346.92211218 -37.00063133 340.77349091 C-37.01764413 320.34144901 -37.0321394 299.90940766 -37.03938007 279.47735977 C-37.04129005 274.17338307 -37.04321037 268.86940637 -37.04516602 263.56542969 C-37.04564976 262.24711064 -37.0461335 260.92879158 -37.0466319 259.57052347 C-37.05493632 238.20354528 -37.08027997 216.83662698 -37.11274669 195.46967271 C-37.14578827 173.54617222 -37.16382617 151.62270017 -37.16702431 129.69917464 C-37.16919201 117.38441868 -37.1779787 105.06974426 -37.20348549 92.75501251 C-37.22515279 82.26962195 -37.23326246 71.78433274 -37.22351871 61.29892233 C-37.2189626 55.94720085 -37.22093629 50.59568867 -37.24028015 45.24399567 C-37.25783094 40.34617652 -37.25698006 35.44872061 -37.24138286 30.55089805 C-37.23899447 28.77765383 -37.24339373 27.00438499 -37.25521151 25.23117855 C-37.27027336 22.82228695 -37.26069854 20.41469193 -37.24498463 18.00583267 C-37.25520683 17.31595863 -37.26542904 16.62608458 -37.27596101 15.91530526 C-37.18983959 9.87418486 -35.00475047 5.8411235 -31.07421875 1.32421875 C-21.47197188 -6.81133647 -10.298942 -6.55387218 0 0 Z " fill="#FEFEFE" transform="translate(36.75,24.75)"/>
<path d="M0 0 C5.45987676 5.45987676 6.39388443 9.90151997 7.25 17.25 C8.01341705 17.24333817 8.77683411 17.23667633 9.56338501 17.22981262 C16.77240732 17.16959838 23.98130698 17.12397344 31.19051552 17.09456348 C34.89648834 17.078935 38.60225264 17.05774881 42.30810547 17.02368164 C45.88724175 16.99098681 49.46617798 16.97312581 53.04545212 16.96536827 C54.40815757 16.95984284 55.77085259 16.94905296 57.13347244 16.93280983 C59.04801931 16.91090364 60.96276925 16.90977347 62.87744141 16.90942383 C63.96554108 16.90276199 65.05364075 16.89610016 66.17471313 16.88923645 C69.76220737 17.31008732 72.16754066 18.3945255 75.25 20.25 C76.67662219 23.10324437 76.56033868 25.08454549 76.25 28.25 C74.93 29.9 73.61 31.55 72.25 33.25 C53.44 33.25 34.63 33.25 15.25 33.25 C15.25 129.61 15.25 225.97 15.25 325.25 C162.1 325.25 308.95 325.25 460.25 325.25 C460.25 228.89 460.25 132.53 460.25 33.25 C434.02015625 33.28480469 407.7903125 33.31960937 380.765625 33.35546875 C364.19531191 33.37078877 347.62500315 33.38537214 331.0546875 33.39648438 C322.35384097 33.40235828 313.65299461 33.4084198 304.95214844 33.41479492 C303.31631243 33.41598179 303.31631243 33.41598179 301.64742923 33.41719264 C284.02541816 33.43025189 266.40343636 33.45390958 248.78144267 33.48145839 C230.70574683 33.50948147 212.63006634 33.52616969 194.55434966 33.53226548 C183.39450552 33.53638836 172.23474408 33.54942495 161.07492539 33.5737494 C153.42934151 33.58956838 145.78380058 33.59440909 138.1382015 33.59050413 C133.72256817 33.58857659 129.30707966 33.59159714 124.89147186 33.60761642 C120.85232886 33.62216345 116.81342874 33.62298644 112.7742748 33.61269668 C111.30987466 33.61142404 109.84545967 33.61527364 108.381089 33.62464955 C106.39639934 33.63662221 104.41161824 33.62843476 102.42691422 33.61914349 C101.32268749 33.62028265 100.21846077 33.62142181 99.08077264 33.62259549 C95.90293086 33.20431763 94.54074014 32.45109652 92.25 30.25 C91.20547201 27.60059827 90.9987897 25.08182525 91.25 22.25 C93.40890458 19.24295434 94.73768947 18.42077018 98.25 17.25 C100.29185545 17.15480996 102.3367389 17.12084803 104.38081074 17.11857224 C105.67194005 17.11473109 106.96306937 17.11088995 108.29332381 17.1069324 C109.73455582 17.1077127 111.17578777 17.10859149 112.61701965 17.10955811 C114.14150956 17.10697528 115.6659988 17.10396236 117.19048709 17.1005547 C121.39071106 17.09247176 125.59091795 17.09069441 129.79114878 17.08995724 C134.31682014 17.08810894 138.84248258 17.08056276 143.3681488 17.07382202 C153.26888349 17.06022921 163.16961414 17.05421257 173.07035661 17.04981136 C179.24968632 17.04705067 185.42901447 17.04281365 191.60834312 17.03830719 C208.70941094 17.02611353 225.8104775 17.01581425 242.91154957 17.0124321 C244.006451 17.01221253 245.10135242 17.01199297 246.22943268 17.01176675 C247.32698638 17.01154847 248.42454008 17.01133019 249.55535299 17.0111053 C251.77949639 17.01066183 254.0036398 17.01021527 256.2277832 17.00976562 C257.3310403 17.0095442 258.4342974 17.00932277 259.57098653 17.00909463 C277.45317341 17.00514546 295.33531957 16.98768827 313.21749071 16.9644061 C331.56675765 16.94070816 349.91600413 16.92823097 368.26528662 16.92706418 C378.57182163 16.92614657 388.87830358 16.92037258 399.18482399 16.90224457 C407.9600202 16.88686462 416.73514696 16.88171067 425.51035408 16.88998267 C429.9890349 16.89389659 434.46757576 16.8929235 438.94623947 16.87892532 C443.04520257 16.86623085 447.14391991 16.86734452 451.24288245 16.87951604 C452.7267413 16.88148078 454.2106173 16.87835886 455.69445202 16.86967167 C457.71016159 16.85861656 459.7259519 16.86783708 461.74166584 16.8780632 C462.86173348 16.87746611 463.98180112 16.87686903 465.1358102 16.87625384 C468.73766168 17.30852619 471.15540445 18.38355187 474.25 20.25 C475.5210945 22.79218899 475.37770954 24.55994165 475.38142776 27.40718746 C475.38526891 28.50658907 475.38911005 29.60599068 475.3930676 30.73870748 C475.39220112 31.95648415 475.39133463 33.17426082 475.39044189 34.42893982 C475.39489858 36.35780654 475.39489858 36.35780654 475.3994453 38.32564026 C475.4075338 41.90682945 475.40930589 45.48799862 475.41004276 49.06919587 C475.41189008 52.926792 475.4194357 56.78437767 475.42617798 60.64196777 C475.43977429 69.08186281 475.44578785 77.52175311 475.45018864 85.96165729 C475.45294849 91.22786291 475.45718534 96.49406669 475.46169281 101.76027107 C475.47388646 116.33068826 475.48418605 130.90110397 475.4875679 145.47152615 C475.48778747 146.40449876 475.48800703 147.33747138 475.48823325 148.29871589 C475.48845153 149.23396193 475.48866981 150.16920797 475.4888947 151.1327948 C475.48933817 153.02806437 475.48978474 154.92333394 475.49023438 156.81860352 C475.4904558 157.75872923 475.49067723 158.69885495 475.49090537 159.66746933 C475.49485569 174.91017367 475.51231639 190.15283026 475.5355939 205.39551615 C475.55928016 221.03157745 475.57176848 236.66761477 475.57293582 252.30369431 C475.57385404 261.08823086 475.57964337 269.87270519 475.59775543 278.65722466 C475.61311961 286.13550816 475.61829872 293.61371022 475.61001733 301.0920065 C475.60609787 304.91008082 475.6071031 308.72799095 475.62107468 312.5460453 C475.63606027 316.67884235 475.62798573 320.81126584 475.61749268 324.94407654 C475.62554908 326.15962249 475.63360548 327.37516844 475.64190602 328.62754911 C475.63531618 329.72955847 475.62872633 330.83156782 475.6219368 331.9669714 C475.62283243 333.39897929 475.62283243 333.39897929 475.62374616 334.85991663 C475.1791503 337.70307941 474.53787609 338.55592308 472.25 340.25 C468.65992791 341.4466907 465.40140165 341.38643057 461.66563129 341.37304783 C460.88214112 341.37420167 460.09865094 341.37535552 459.29141864 341.37654433 C456.64423475 341.37920867 453.99711066 341.3746903 451.34992981 341.37025452 C449.44168273 341.37069026 447.53343571 341.37156521 445.62518901 341.37284368 C440.36443237 341.37508812 435.10369594 341.37106804 429.84294188 341.36606562 C424.176275 341.36176058 418.50960933 341.36320758 412.84294128 341.3639679 C403.01938925 341.3644931 393.19584384 341.3613467 383.37229347 341.35573006 C369.16896157 341.34761454 354.96563288 341.34499978 340.7622989 341.34374207 C317.72019273 341.34155163 294.67809052 341.33490033 271.63598633 341.32543945 C249.2482912 341.31625786 226.86059702 341.30917286 204.47290039 341.30493164 C203.78304114 341.30480011 203.09318189 341.30466859 202.38241781 341.30453308 C195.45468591 341.30321458 188.526954 341.30193876 181.59922209 341.30069422 C123.48281235 341.2902498 65.36640624 341.27260047 7.25 341.25 C7.25276538 341.79922874 7.25553076 342.34845749 7.25837994 342.91432953 C7.32474767 356.30280514 7.37414117 369.69125178 7.40543652 383.07985687 C7.42108049 389.55460244 7.44229596 396.02922911 7.47631836 402.50390625 C7.5089565 408.75439114 7.52686256 415.00476178 7.53463173 421.25532532 C7.54016719 423.63790179 7.55097658 426.02047214 7.56719017 428.40299988 C7.58902316 431.74471462 7.5919644 435.08595958 7.59057617 438.42773438 C7.601362 439.40885193 7.61214783 440.38996948 7.6232605 441.40081787 C7.58729673 449.42139587 6.14207768 456.35792232 0.25 462.25 C-6.58940974 466.98005907 -12.815926 468.19240966 -20.98828125 466.89453125 C-27.81930763 465.13663327 -31.7359823 460.90239228 -35.75 455.25 C-36.91422022 451.75733935 -36.89192857 448.63010728 -36.88422108 444.99753189 C-36.88657331 444.24990636 -36.88892554 443.50228084 -36.89134905 442.73199999 C-36.89804836 440.20675594 -36.89758055 437.68156324 -36.89717102 435.15631104 C-36.90046906 433.33554816 -36.9041945 431.51478601 -36.9083125 429.6940248 C-36.91834732 424.67482042 -36.92205167 419.655628 -36.92470181 414.636415 C-36.92860043 409.22932519 -36.93817901 403.82224489 -36.94691467 398.41516113 C-36.96669076 385.3498965 -36.97674637 372.28463108 -36.98564246 359.21935523 C-36.99002316 353.07073327 -36.9953905 346.92211218 -37.00063133 340.77349091 C-37.01764413 320.34144901 -37.0321394 299.90940766 -37.03938007 279.47735977 C-37.04129005 274.17338307 -37.04321037 268.86940637 -37.04516602 263.56542969 C-37.04564976 262.24711064 -37.0461335 260.92879158 -37.0466319 259.57052347 C-37.05493632 238.20354528 -37.08027997 216.83662698 -37.11274669 195.46967271 C-37.14578827 173.54617222 -37.16382617 151.62270017 -37.16702431 129.69917464 C-37.16919201 117.38441868 -37.1779787 105.06974426 -37.20348549 92.75501251 C-37.22515279 82.26962195 -37.23326246 71.78433274 -37.22351871 61.29892233 C-37.2189626 55.94720085 -37.22093629 50.59568867 -37.24028015 45.24399567 C-37.25783094 40.34617652 -37.25698006 35.44872061 -37.24138286 30.55089805 C-37.23899447 28.77765383 -37.24339373 27.00438499 -37.25521151 25.23117855 C-37.27027336 22.82228695 -37.26069854 20.41469193 -37.24498463 18.00583267 C-37.25520683 17.31595863 -37.26542904 16.62608458 -37.27596101 15.91530526 C-37.18983959 9.87418486 -35.00475047 5.8411235 -31.07421875 1.32421875 C-21.47197188 -6.81133647 -10.298942 -6.55387218 0 0 Z " fill="#000000" transform="translate(36.75,24.75)"/>
<path d="M0 0 C2.73304253 1.9285272 5.32390162 3.94724529 7.8984375 6.08203125 C8.74921875 6.77039063 9.6 7.45875 10.4765625 8.16796875 C24.68555346 20.24125248 36.75286304 39.20395598 38.8984375 58.08203125 C40.85755349 86.26181578 35.35681239 109.09159869 16.6640625 130.66015625 C0.54554489 147.83217174 -21.78255999 156.26634841 -45.09375 157.078125 C-68.97476384 157.39584531 -89.56272984 147.0200857 -106.46484375 130.81640625 C-124.06319238 112.45819801 -129.66965843 90.1864858 -129.37890625 65.3828125 C-128.76044994 44.64760327 -117.8750085 24.3382942 -103.1015625 10.08203125 C-74.51547167 -14.93549371 -32.84361293 -20.31009313 0 0 Z " fill="#EC1E33" transform="translate(319.1015625,131.91796875)"/>
<path d="M0 0 C2.73304253 1.9285272 5.32390162 3.94724529 7.8984375 6.08203125 C8.74921875 6.77039063 9.6 7.45875 10.4765625 8.16796875 C24.68555346 20.24125248 36.75286304 39.20395598 38.8984375 58.08203125 C40.85755349 86.26181578 35.35681239 109.09159869 16.6640625 130.66015625 C0.54554489 147.83217174 -21.78255999 156.26634841 -45.09375 157.078125 C-68.97476384 157.39584531 -89.56272984 147.0200857 -106.46484375 130.81640625 C-124.06319238 112.45819801 -129.66965843 90.1864858 -129.37890625 65.3828125 C-128.76044994 44.64760327 -117.8750085 24.3382942 -103.1015625 10.08203125 C-74.51547167 -14.93549371 -32.84361293 -20.31009313 0 0 Z M-88.1015625 18.08203125 C-88.8853125 18.70078125 -89.6690625 19.31953125 -90.4765625 19.95703125 C-104.71231928 31.88428693 -112.79912143 49.6088378 -114.44921875 67.9453125 C-114.93774492 88.39969081 -107.63768774 106.78815852 -93.9140625 121.83203125 C-79.54654181 135.17093037 -60.77960178 141.96081559 -41.3125 141.38671875 C-22.63032325 140.34258786 -5.65428596 131.74014379 6.8984375 118.08203125 C20.19745704 102.55148132 25.29932293 84.2547814 23.8984375 64.08203125 C21.88310691 46.06260483 12.27857515 29.64247876 -1.5234375 18.0234375 C-27.51635856 -1.55001973 -62.14155383 -2.41271244 -88.1015625 18.08203125 Z " fill="#020102" transform="translate(319.1015625,131.91796875)"/>
<path d="M0 0 C2.89067654 2.89067654 2.25292025 4.94622843 2.25726891 8.99724388 C2.26077498 9.72941899 2.26428105 10.4615941 2.26789337 11.21595633 C2.27727352 13.69469368 2.2722672 16.17319948 2.26742554 18.65194702 C2.27115848 20.43686288 2.27575856 22.22177711 2.28115618 24.00668871 C2.29344571 28.9313476 2.29311875 33.85593886 2.29076743 38.78060961 C2.29036076 44.08405142 2.30138403 49.3874711 2.31088257 54.69090271 C2.3275261 65.08872937 2.33299362 75.48653336 2.33410732 85.88437222 C2.33505621 94.33252123 2.33915849 102.78066272 2.34550858 111.22880936 C2.36313008 135.15788401 2.37234602 159.0869407 2.37084763 183.01602189 C2.37076772 184.30720928 2.3706878 185.59839666 2.37060547 186.92871094 C2.37052371 188.22146689 2.37044195 189.51422284 2.37035771 190.84615321 C2.36954453 211.80460018 2.38868771 232.76297532 2.4168822 253.7214015 C2.44557462 275.21884517 2.45942451 296.71625378 2.45769465 318.2137171 C2.45702949 330.29196746 2.4625768 342.37014254 2.48405075 354.4483757 C2.5022147 364.73113075 2.50664942 375.01377639 2.4930319 385.29654048 C2.48647799 390.54661735 2.48647196 395.79648403 2.5037384 401.04654121 C2.51936769 405.8480308 2.51671024 410.64914178 2.49917014 415.45062156 C2.49607772 417.19221122 2.49981608 418.93382844 2.51089029 420.67538564 C2.52490319 423.03441358 2.51451222 425.39209344 2.49777794 427.75107384 C2.49821267 429.06382203 2.49864741 430.37657023 2.49909532 431.72909868 C1.91774394 435.53907831 1.06357275 436.73469373 -2 439 C-4.80949163 439.4796693 -6.23769077 439.50602628 -8.62874854 437.91882515 C-10.7344965 434.97220139 -10.37619488 432.44990962 -10.37752342 428.86129761 C-10.38188374 428.12598068 -10.38624407 427.39066376 -10.39073652 426.63306451 C-10.40175391 424.14956101 -10.39124095 421.66660564 -10.38095093 419.18310547 C-10.38440494 417.39248811 -10.38916776 415.60187288 -10.39513266 413.81126213 C-10.40770764 408.87549159 -10.40144288 403.93989407 -10.39217401 399.00412273 C-10.38541034 393.68708281 -10.39585137 388.37007348 -10.40411377 383.05303955 C-10.41748206 372.63093643 -10.41455961 362.20889798 -10.40587585 351.78679228 C-10.39911186 343.31958706 -10.398177 334.85240001 -10.4014473 326.38519287 C-10.401907 325.18195873 -10.40236669 323.97872459 -10.40284032 322.73902881 C-10.40379946 320.2949926 -10.4047721 317.85095639 -10.4057581 315.40692019 C-10.41432106 292.46729483 -10.40446366 269.52770537 -10.388357 246.58808589 C-10.374953 226.88748197 -10.37728084 207.18693108 -10.39111328 187.48632812 C-10.40715311 164.6310622 -10.413497 141.77582779 -10.40427649 118.92055702 C-10.4033208 116.48530706 -10.40237769 114.0500571 -10.4014473 111.61480713 C-10.40098447 110.41649037 -10.40052164 109.21817362 -10.40004479 107.98354423 C-10.3974501 99.52253012 -10.40183619 91.06153593 -10.40888596 82.6005249 C-10.41728343 72.29508282 -10.41505784 61.98970933 -10.39904372 51.68427515 C-10.39113734 46.42220184 -10.38810955 41.16024304 -10.39799118 35.89817047 C-10.40688978 31.08695314 -10.40208562 26.27595714 -10.38605852 21.46476007 C-10.3826901 19.71851136 -10.38445061 17.97224419 -10.39168589 16.22600722 C-10.40072915 13.86330149 -10.39153368 11.50136694 -10.37752342 9.13870239 C-10.37703637 7.82307878 -10.37654931 6.50745518 -10.37604749 5.15196419 C-10 2 -10 2 -8.69906104 0.04211235 C-5.77201399 -1.75318035 -3.19361233 -0.75485382 0 0 Z " fill="#2D2F32" transform="translate(26,37)"/>
</svg>
