<?xml version="1.0" encoding="UTF-8"?>
<svg version="1.1" xmlns="http://www.w3.org/2000/svg" width="512" height="512">
<path d="M0 0 C5.45845703 3.07717797 8.83159604 7.37998762 10.75 13.375 C10.9453125 16.70703125 10.9453125 16.70703125 10.875 20.1875 C10.85695312 21.34894531 10.83890625 22.51039062 10.8203125 23.70703125 C10.79710937 24.58746094 10.77390625 25.46789062 10.75 26.375 C11.74298686 26.37348112 12.73597372 26.37196224 13.75905108 26.37039733 C57.50791209 26.30374133 101.25677846 26.24209223 145.00567627 26.20562744 C145.66770069 26.20507521 146.3297251 26.20452298 147.01181087 26.20395402 C161.39834183 26.19198323 175.78487336 26.18090238 190.17140572 26.17073868 C197.22624977 26.1657492 204.28109367 26.16056301 211.3359375 26.15527344 C212.03799053 26.1547504 212.74004356 26.15422737 213.46337092 26.15368848 C236.23128346 26.13663392 258.99915636 26.10658187 281.76704487 26.06981112 C305.82074747 26.03103417 329.87442411 26.00702161 353.92815709 25.99864602 C368.34321809 25.99314741 382.75816534 25.97575756 397.17319134 25.94333413 C407.04740576 25.92225064 416.92156105 25.91578593 426.79579636 25.92099449 C432.49952053 25.92356589 438.20304541 25.91952216 443.90673447 25.8981781 C449.12277561 25.87880059 454.33848229 25.87767248 459.5545384 25.89140442 C461.44693215 25.89310311 463.33934625 25.88795465 465.23169956 25.87546727 C467.79409649 25.85953419 470.35526845 25.86799152 472.9176445 25.88280869 C474.03294595 25.8670466 474.03294595 25.8670466 475.17077875 25.8509661 C478.49238749 25.89470232 480.44811223 26.16628965 483.20788735 28.07426244 C485.06751702 30.84871593 485.2519198 32.35521478 485.25615788 35.67899227 C485.26720556 36.7602422 485.27825325 37.84149214 485.28963572 38.95550722 C485.28139495 40.14274828 485.27315418 41.32998934 485.2646637 42.5532074 C485.27160922 43.81491495 485.27855475 45.0766225 485.28571075 46.37656361 C485.30438097 49.88109394 485.29801836 53.38520295 485.28755772 56.88975108 C485.28057798 60.66830889 485.2965543 64.44677907 485.30955505 68.22531128 C485.33122117 75.62867506 485.33106148 83.03188528 485.32292951 90.43527036 C485.31663495 96.45154751 485.31776154 102.46777981 485.32420158 108.48405647 C485.32510324 109.33965752 485.32600489 110.19525857 485.32693387 111.07678692 C485.32878504 112.81482514 485.3306476 114.55286335 485.33252143 116.29090155 C485.34910909 132.59750376 485.3403726 148.90401951 485.32353585 165.21061654 C485.30883898 180.13503648 485.32346537 195.05925511 485.35230602 209.98364913 C485.38168628 225.30114 485.39267625 240.6185379 485.38312382 255.93605572 C485.38210124 257.66807972 485.38110664 259.40010373 485.3801403 261.13212776 C485.37966391 261.98435432 485.37918752 262.83658088 485.3786967 263.71463249 C485.3765307 269.72414763 485.38634653 275.73357495 485.40091133 281.7430706 C485.41841182 289.06613983 485.41835039 296.38895236 485.39555968 303.71201139 C485.3843963 307.44943266 485.38130164 311.18640131 485.39986038 314.92380333 C485.41970813 318.97284654 485.40092803 323.02078134 485.37818909 327.06980896 C485.39594268 328.84732447 485.39594268 328.84732447 485.41405493 330.66074938 C485.40163289 331.74460706 485.38921085 332.82846474 485.37641239 333.94516659 C485.3761427 334.87976835 485.37587301 335.81437012 485.37559515 336.77729315 C484.45502736 340.59983759 482.8826696 342.04533626 479.75 344.375 C476.90051443 344.86270532 474.65279117 345.04074272 471.81021404 344.99023914 C471.01259756 344.99600836 470.21498108 345.00177759 469.39319441 345.00772163 C466.70949958 345.02099979 464.02729243 344.99849287 461.34367371 344.97627258 C459.40482348 344.97845222 457.46597468 344.98282875 455.52713376 344.98921841 C450.19090458 345.00042249 444.85517518 344.98036592 439.51900971 344.95532811 C433.7678509 344.93377651 428.01672127 344.94103978 422.26553345 344.94483948 C412.29844143 344.94746382 402.33151281 344.93174937 392.3644619 344.90365028 C377.95372935 344.86304999 363.54307597 344.8499966 349.13229243 344.84371033 C325.75294502 344.8327617 302.37368477 344.79951495 278.99438477 344.75219727 C256.28084771 344.70628006 233.56733394 344.67085958 210.85375977 344.6496582 C210.15370517 344.64900057 209.45365058 344.64834294 208.73238221 344.64766538 C201.70218592 344.64107282 194.67198945 344.63469374 187.64179282 344.62847109 C173.32030143 344.61578981 158.99881156 344.60168355 144.67732239 344.5867157 C142.70431262 344.58465525 142.70431262 344.58465525 140.69144408 344.58255317 C97.37759515 344.53669448 54.06379159 344.45802511 10.75 344.375 C10.75888245 345.54740234 10.76776489 346.71980469 10.7769165 347.92773438 C10.85810249 358.99172904 10.91801358 370.05566304 10.95724869 381.11988831 C10.97809819 386.80775393 11.00636804 392.49537854 11.05175781 398.18310547 C11.09530904 403.67499146 11.11915694 409.16664602 11.12950897 414.65869141 C11.13688365 416.7510136 11.15128468 418.84332354 11.17292023 420.93554688 C11.20207715 423.87267143 11.20595082 426.8088471 11.20410156 429.74609375 C11.21848267 430.6056517 11.23286377 431.46520966 11.24768066 432.35081482 C11.20437524 438.73277318 9.7594885 444.1177256 5.33795547 448.90330505 C0.27065011 453.37679814 -4.27443546 454.85720161 -10.90625 454.69140625 C-16.15326112 453.98305975 -20.01837009 451.67145254 -23.625 447.875 C-26.77325292 443.03153397 -27.50121646 440.08580027 -27.51006222 434.18968582 C-27.51386789 433.46146653 -27.51767356 432.73324724 -27.52159455 431.9829607 C-27.53194498 429.52968648 -27.52799785 427.07664216 -27.52415466 424.62335205 C-27.5286052 422.85193491 -27.53391863 421.08051976 -27.54002339 419.30910754 C-27.554236 414.43089784 -27.55586606 409.55275175 -27.55542648 404.67452431 C-27.55707182 399.41739197 -27.57013303 394.16028606 -27.58161926 388.90316772 C-27.60449037 377.40323457 -27.61239213 365.90331985 -27.61744571 354.40336704 C-27.62070025 347.22515398 -27.62722124 340.04694629 -27.6344471 332.86873627 C-27.6540157 313.00111183 -27.67041841 293.13349239 -27.67332363 273.2658577 C-27.6735112 271.99393784 -27.67369877 270.72201798 -27.67389202 269.4115551 C-27.67425828 266.83296951 -27.67462198 264.25438392 -27.67498314 261.67579833 C-27.67516595 260.39575363 -27.67534876 259.11570893 -27.67553711 257.796875 C-27.67571766 256.51527114 -27.67589821 255.23366728 -27.67608423 253.91322693 C-27.67962663 233.14188973 -27.70665205 212.37065615 -27.744035 191.59935489 C-27.7820931 170.28263014 -27.80148092 148.96595683 -27.80178314 127.64919734 C-27.80236827 115.67702185 -27.81089606 103.70496996 -27.83978081 91.73282623 C-27.86426127 81.53915107 -27.87160011 71.34564459 -27.85653328 61.151948 C-27.84935078 55.94992118 -27.85027963 50.74822767 -27.87294388 45.54623795 C-27.8934935 40.78402495 -27.89097105 36.02240238 -27.87006903 31.26019606 C-27.86656645 29.53743467 -27.87151663 27.81463102 -27.88577347 26.09192505 C-28.00612423 10.54765373 -28.00612423 10.54765373 -23.62731415 4.75625491 C-17.08583788 -1.80393779 -8.50435607 -3.88908883 0 0 Z " fill="#FE4B55" transform="translate(27.25,29.625)"/>
<path d="M0 0 C53.50451698 -0.16121214 53.50451698 -0.16121214 75.875 -0.1953125 C91.33924649 -0.21907421 106.803406 -0.24705225 122.26757812 -0.30175781 C133.52858393 -0.34157546 144.78951937 -0.36742092 156.05059361 -0.37635398 C162.01553509 -0.3815773 167.98027522 -0.39388807 173.94515228 -0.42292023 C179.55606354 -0.45000909 185.16668993 -0.45845817 190.77766037 -0.45243073 C192.84006929 -0.45353389 194.90248744 -0.4615264 196.96483994 -0.4768219 C199.77515132 -0.49664752 202.58437925 -0.49196632 205.39471436 -0.48101807 C206.21572592 -0.49266943 207.03673749 -0.5043208 207.8826282 -0.51632524 C211.36959102 -0.47946507 213.58329534 -0.28107642 216.50776672 1.69154358 C218.32406514 4.5013226 218.49388764 6.0831006 218.48101807 9.4163208 C218.48652805 10.51337971 218.49203804 11.61043861 218.497715 12.74074173 C218.47612635 14.54598375 218.47612635 14.54598375 218.45410156 16.38769531 C218.4545837 17.67676159 218.45506584 18.96582787 218.45556259 20.29395676 C218.45646511 23.77882923 218.43329424 27.26315156 218.40512085 30.74789429 C218.38232931 34.01860031 218.38126775 37.2892826 218.37841797 40.56005859 C218.35743444 50.12344518 218.30158971 59.68672955 218.25 69.25 C218.1675 90.6175 218.085 111.985 218 134 C146.06 134 74.12 134 0 134 C0 89.78 0 45.56 0 0 Z " fill="#F3F1F2" transform="translate(294,56)"/>
<path d="M0 0 C71.94 0 143.88 0 218 0 C218.103125 21.181875 218.20625 42.36375 218.3125 64.1875 C218.35802002 70.87668701 218.40354004 77.56587402 218.45043945 84.45776367 C218.47302246 92.62365723 218.47302246 92.62365723 218.47721863 96.44599915 C218.48489979 99.11708273 218.50061976 101.78698683 218.52787781 104.45783997 C218.56860735 108.50231036 218.56953243 112.54590133 218.56762695 116.59057617 C218.58561749 117.78110438 218.60360804 118.9716326 218.62214375 120.19823742 C218.61525626 121.28827729 218.60836878 122.37831717 218.60127258 123.50138855 C218.60818603 124.92141064 218.60818603 124.92141064 218.61523914 126.37012005 C217.70739271 130.25076898 216.20172043 131.66276676 213 134 C209.91530979 134.48146824 207.39099249 134.65634073 204.31242371 134.60127258 C203.00132054 134.60768077 203.00132054 134.60768077 201.66373044 134.61421841 C198.73517835 134.62245364 195.80805878 134.59495466 192.87963867 134.56762695 C190.78040602 134.5662166 188.68117091 134.56700821 186.5819397 134.56983948 C180.88178869 134.57127551 175.18216253 134.54185481 169.48213363 134.50696969 C163.52573915 134.47573777 157.56933298 134.47277793 151.61286926 134.46684265 C140.332934 134.45129496 129.05324071 134.41025373 117.77341205 134.3600952 C102.53138668 134.29378737 87.28929526 134.26677471 72.04716206 134.23758411 C48.03126009 134.19055273 24.01586876 134.09094623 0 134 C0 89.78 0 45.56 0 0 Z " fill="#F4F1F2" transform="translate(294,240)"/>
<path d="M0 0 C67.98 0 135.96 0 206 0 C206 44.22 206 88.44 206 134 C138.02 134 70.04 134 0 134 C0 128.39 0 122.78 0 117 C58.905 116.505 58.905 116.505 119 116 C97.60258366 101.71952167 97.60258366 101.71952167 76.125 87.5625 C74.78403557 86.68385225 73.44313585 85.80510573 72.10229492 84.92626953 C69.38581143 83.1460436 66.66893474 81.36642054 63.95166016 79.58740234 C60.14803442 77.09713983 56.34537157 74.60541052 52.54296875 72.11328125 C48.95648565 69.76273087 45.36987194 67.41238137 41.7824707 65.06323242 C36.14755356 61.37325845 30.5136978 57.68169576 24.88337708 53.98471069 C22.17882011 52.20893411 19.47375034 50.43393954 16.76864624 48.65899658 C15.47332581 47.80876005 14.17825791 46.95813866 12.88345337 46.1071167 C11.0961169 44.93241568 9.30792062 43.7590347 7.51953125 42.5859375 C6.49964111 41.9161084 5.47975098 41.2462793 4.42895508 40.55615234 C2.11622321 39.01397005 2.11622321 39.01397005 0 38 C0 33.71 0 29.42 0 25 C7.0610926 28.75143944 13.68376108 33.02118867 20.30081177 37.49661255 C23.30908865 39.53018417 26.32594392 41.55091824 29.34375 43.5703125 C30.22680565 44.16130486 30.22680565 44.16130486 31.12770081 44.76423645 C35.39171031 47.61077181 39.69463455 50.37872457 44.0625 53.0625 C51.04076142 57.35375692 57.89917885 61.8211254 64.75 66.3125 C65.31074219 66.68007416 65.87148437 67.04764832 66.44921875 67.42636108 C69.24428876 69.25886477 72.03895684 71.09197992 74.83349609 72.92529297 C79.40291219 75.91919413 83.98128455 78.89919473 88.5625 81.875 C89.37170898 82.4006958 90.18091797 82.9263916 91.01464844 83.46801758 C96.85362928 87.25930854 102.69835508 91.0416877 108.54443359 94.82202148 C114.26295447 98.52077213 119.97636929 102.2273494 125.6875 105.9375 C126.52539062 106.48148437 127.36328125 107.02546875 128.2265625 107.5859375 C129.02191406 108.10285156 129.81726563 108.61976563 130.63671875 109.15234375 C131.33498779 109.60601318 132.03325684 110.05968262 132.75268555 110.52709961 C134.49435644 111.66859885 136.18038759 112.89521098 137.83959961 114.15356445 C141.54476836 116.31827602 143.67192748 116.46598358 147.9296875 116.390625 C149.86328125 116.37128906 149.86328125 116.37128906 151.8359375 116.3515625 C153.18230268 116.31814906 154.52865685 116.28428937 155.875 116.25 C157.24476569 116.22991356 158.61455966 116.21166655 159.984375 116.1953125 C163.32363986 116.1482806 166.66145562 116.08255864 170 116 C160.16127499 109.39788613 150.25604218 102.90833307 140.29931641 96.48583984 C136.19376306 93.83279274 132.09733165 91.16571965 128 88.5 C121.8382503 84.4923627 115.67271766 80.49072357 109.5 76.5 C100.83978459 70.9005909 92.19351997 65.27981268 83.54833984 59.65722656 C79.36604137 56.93741031 75.18299634 54.21874278 71 51.5 C65.96446304 48.22714758 60.92909879 44.95403102 55.89453125 41.6796875 C48.10149124 36.61182099 40.30618762 31.54759619 32.5 26.5 C30.42519063 25.15771015 28.35049182 23.81524972 26.27587891 22.47265625 C24.64552035 21.41769779 23.01496372 20.36304542 21.38427734 19.30859375 C18.65106479 17.54053018 15.91916631 15.77045136 13.1875 14 C12.33285156 13.44763672 11.47820313 12.89527344 10.59765625 12.32617188 C9.79585937 11.80603516 8.9940625 11.28589844 8.16796875 10.75 C7.45922607 10.29109375 6.7504834 9.8321875 6.02026367 9.359375 C5.35357666 8.91078125 4.68688965 8.4621875 4 8 C3.25403564 7.55140625 2.50807129 7.1028125 1.73950195 6.640625 C1.16546631 6.09921875 0.59143066 5.5578125 0 5 C0 3.35 0 1.7 0 0 Z " fill="#F4F3F3" transform="translate(38,56)"/>
<path d="M0 0 C67.98 0 135.96 0 206 0 C206 44.22 206 88.44 206 134 C141.32 134 76.64 134 10 134 C14.49824698 129.50175302 14.49824698 129.50175302 17.40625 127.66015625 C18.05698486 127.2439502 18.70771973 126.82774414 19.37817383 126.39892578 C20.07837646 125.95790527 20.7785791 125.51688477 21.5 125.0625 C23.03538804 124.08239427 24.57053445 123.10190992 26.10546875 122.12109375 C26.90774902 121.61046387 27.7100293 121.09983398 28.53662109 120.57373047 C32.64485187 117.94918581 36.72770262 115.28580944 40.8125 112.625 C42.50643494 111.52332144 44.20044594 110.42175981 45.89453125 109.3203125 C46.73838379 108.77149414 47.58223633 108.22267578 48.45166016 107.65722656 C52.63395863 104.93741031 56.81701304 102.21875722 61 99.5 C62.66667039 98.41667239 64.33333705 97.33333905 66 96.25 C76 89.75 86 83.25 96 76.75 C96.8252417 76.21358887 97.6504834 75.67717773 98.50073242 75.12451172 C100.1649428 74.0427831 101.82916803 72.96107732 103.4934082 71.87939453 C107.69777895 69.14669755 111.90187914 66.41358595 116.10546875 63.6796875 C124.58637217 58.16449877 133.07152291 52.65607459 141.56713867 47.16357422 C147.0502724 43.61751111 152.52595103 40.06006779 158 36.5 C161.33314148 34.33303808 164.66651699 32.1664365 168 30 C168.82790039 29.46181641 169.65580078 28.92363281 170.50878906 28.36914062 C172.88012328 26.8282895 175.25241258 25.28892054 177.625 23.75 C178.34171875 23.28400391 179.0584375 22.81800781 179.796875 22.33789062 C184.7707471 19.11462645 184.7707471 19.11462645 187 18 C164.84891266 15.95781148 164.84891266 15.95781148 145.546875 24.953125 C144.99064453 25.44748047 144.43441406 25.94183594 143.86132812 26.45117188 C140.21374681 29.48635759 136.12825589 31.90356024 132.125 34.4375 C130.40765186 35.54892567 128.69149609 36.66219602 126.9765625 37.77734375 C121.79714611 41.13230624 116.61636174 44.48515539 111.43408203 47.83569336 C105.95048212 51.38190835 100.4743762 54.93956602 95 58.5 C88.15059012 62.9547307 81.29514037 67.39992815 74.43359375 71.8359375 C68.95023145 75.38218676 63.47422466 78.93966457 58 82.5 C51.83818224 86.50753338 45.6726809 90.50921872 39.5 94.5 C33.16278654 98.5981956 26.82946032 102.70233896 20.5 106.8125 C19.68724609 107.33972656 18.87449219 107.86695313 18.03710938 108.41015625 C17.25142578 108.920625 16.46574219 109.43109375 15.65625 109.95703125 C14.89054687 110.45412598 14.12484375 110.9512207 13.3359375 111.46337891 C11.70686405 112.5350123 10.08775121 113.62187548 8.4765625 114.72021484 C7.66960938 115.27016113 6.86265625 115.82010742 6.03125 116.38671875 C5.30486328 116.88776123 4.57847656 117.38880371 3.83007812 117.9050293 C2 119 2 119 0 119 C-2.62345284 100.16574533 -2.62345284 100.16574533 1.15283203 94.16943359 C4.8099555 90.75398593 9.4891876 88.79958185 13.94335938 86.62011719 C19.61349971 83.61476165 24.86730519 79.94271004 30.19369507 76.37353516 C33.66816866 74.05271612 37.16540658 71.76668245 40.66015625 69.4765625 C42.06926059 68.55123987 43.4782781 67.625785 44.88720703 66.70019531 C51.15088711 62.58709008 57.41911277 58.48092628 63.6875 54.375 C64.87069198 53.59986134 66.05387883 52.82471487 67.23706055 52.04956055 C72.77690013 48.42034213 78.31733839 44.79204081 83.85874939 41.16522217 C86.46668461 39.45825101 89.0743735 37.75090374 91.68203735 36.04351807 C92.90861864 35.24055411 94.13531801 34.43777051 95.3621521 33.63519287 C97.07637314 32.51376783 98.79017503 31.39170464 100.50390625 30.26953125 C101.47142822 29.63635986 102.4389502 29.00318848 103.43579102 28.35083008 C108.63695325 24.92032174 113.81582078 21.45611948 119 18 C79.73 17.67 40.46 17.34 0 17 C0 11.39 0 5.78 0 0 Z " fill="#F3F2F3" transform="translate(38,240)"/>
<path d="M0 0 C5.45862355 3.07727184 8.8326035 7.38041537 10.75 13.375 C11.00299966 16.71831161 11.00299966 16.71831161 11.00726891 20.62089252 C11.01077498 21.34351216 11.01428105 22.0661318 11.01789337 22.81064901 C11.02721807 25.23885808 11.02228134 27.66682788 11.01742554 30.095047 C11.02116126 31.85082768 11.02576247 33.6066067 11.03115618 35.36238307 C11.04341124 40.19273087 11.04312277 45.02300954 11.04076743 49.85336936 C11.0403599 55.06071967 11.05139233 60.26804763 11.06088257 65.47538757 C11.07750722 75.67963235 11.08299277 85.88385402 11.08410732 96.0881112 C11.08505709 104.38121513 11.08916383 112.67431143 11.09550858 120.96741295 C11.1131249 144.47113788 11.12234682 167.97484452 11.12084763 191.4785761 C11.12076772 192.74610741 11.1206878 194.01363873 11.12060547 195.31958008 C11.12052371 196.58865598 11.12044195 197.85773188 11.12035771 199.16526463 C11.11954467 219.73606087 11.13868576 240.30678392 11.1668822 260.87755898 C11.1955944 281.99091283 11.20942342 303.10423095 11.20769465 324.21760482 C11.20703018 336.07460888 11.21254752 347.93153622 11.23405075 359.78852272 C11.25224063 369.88334457 11.25662791 379.9780549 11.2430319 390.07288603 C11.23649122 395.22424277 11.23642478 400.37538543 11.2537384 405.52672195 C11.26942545 410.24256686 11.26665021 414.95802715 11.24917014 419.67386242 C11.24609061 421.37976765 11.24976841 423.08570127 11.26089029 424.79157303 C11.36852167 442.47113292 11.36852167 442.47113292 5.33811319 448.8741172 C0.31872381 453.40088164 -4.28851934 454.85684952 -10.90625 454.69140625 C-16.15326112 453.98305975 -20.01837009 451.67145254 -23.625 447.875 C-26.77325292 443.03153397 -27.50121646 440.08580027 -27.51006222 434.18968582 C-27.51386789 433.46146653 -27.51767356 432.73324724 -27.52159455 431.9829607 C-27.53194498 429.52968648 -27.52799785 427.07664216 -27.52415466 424.62335205 C-27.5286052 422.85193491 -27.53391863 421.08051976 -27.54002339 419.30910754 C-27.554236 414.43089784 -27.55586606 409.55275175 -27.55542648 404.67452431 C-27.55707182 399.41739197 -27.57013303 394.16028606 -27.58161926 388.90316772 C-27.60449037 377.40323457 -27.61239213 365.90331985 -27.61744571 354.40336704 C-27.62070025 347.22515398 -27.62722124 340.04694629 -27.6344471 332.86873627 C-27.6540157 313.00111183 -27.67041841 293.13349239 -27.67332363 273.2658577 C-27.6735112 271.99393784 -27.67369877 270.72201798 -27.67389202 269.4115551 C-27.67425828 266.83296951 -27.67462198 264.25438392 -27.67498314 261.67579833 C-27.67516595 260.39575363 -27.67534876 259.11570893 -27.67553711 257.796875 C-27.67571766 256.51527114 -27.67589821 255.23366728 -27.67608423 253.91322693 C-27.67962663 233.14188973 -27.70665205 212.37065615 -27.744035 191.59935489 C-27.7820931 170.28263014 -27.80148092 148.96595683 -27.80178314 127.64919734 C-27.80236827 115.67702185 -27.81089606 103.70496996 -27.83978081 91.73282623 C-27.86426127 81.53915107 -27.87160011 71.34564459 -27.85653328 61.151948 C-27.84935078 55.94992118 -27.85027963 50.74822767 -27.87294388 45.54623795 C-27.8934935 40.78402495 -27.89097105 36.02240238 -27.87006903 31.26019606 C-27.86656645 29.53743467 -27.87151663 27.81463102 -27.88577347 26.09192505 C-28.00612423 10.54765373 -28.00612423 10.54765373 -23.62731415 4.75625491 C-17.08583788 -1.80393779 -8.50435607 -3.88908883 0 0 Z " fill="#2E3033" transform="translate(27.25,29.625)"/>
<path d="M0 0 C0.33 0 0.66 0 1 0 C1.19207031 0.89847656 1.38414063 1.79695313 1.58203125 2.72265625 C3.38728792 6.89513655 5.87913352 8.30147475 9.6875 10.4375 C11.14624658 11.30179893 12.60317097 12.16917816 14.05859375 13.0390625 C14.85120605 13.50860352 15.64381836 13.97814453 16.46044922 14.46191406 C21.13392091 17.29241509 25.68420407 20.31256731 30.25 23.3125 C32.23030211 24.60832762 34.21077108 25.90390027 36.19140625 27.19921875 C37.65151123 28.15513916 37.65151123 28.15513916 39.14111328 29.13037109 C43.48423843 31.97064884 47.83545786 34.79841149 52.1875 37.625 C53.00057617 38.15327393 53.81365234 38.68154785 54.65136719 39.22583008 C56.28365003 40.28635925 57.91597406 41.34682505 59.54833984 42.40722656 C63.69939383 45.10404754 67.84964316 47.80210631 72 50.5 C72.82306641 51.03496094 73.64613281 51.56992188 74.49414062 52.12109375 C78.69827479 54.85361635 82.9021251 57.58657401 87.10546875 60.3203125 C94.89850804 65.38817854 102.69366783 70.45262818 110.5 75.5 C121.755252 82.7773539 132.98869318 90.08827876 144.22265625 97.3984375 C145.07851318 97.95515137 145.93437012 98.51186523 146.81616211 99.08544922 C148.50343123 100.18303541 150.19044879 101.28100841 151.87719727 102.37939453 C155.69641594 104.86396669 159.52127065 107.33816873 163.3671875 109.78125 C164.02799316 110.20180664 164.68879883 110.62236328 165.36962891 111.05566406 C166.59126728 111.83159953 167.8148018 112.6045606 169.04052734 113.37402344 C170.37726183 114.22330058 171.69168056 115.10757018 173 116 C173 116.33 173 116.66 173 117 C150.11659937 119.53724239 137.16953663 116.53219737 118.76953125 102.13232422 C115.03364311 99.25598016 111.12041201 96.7454085 107.125 94.25 C105.78888594 93.39031459 104.45424373 92.52833729 103.12109375 91.6640625 C102.45706543 91.23512695 101.79303711 90.80619141 101.10888672 90.36425781 C94.5806208 86.14106379 88.0662874 81.89631943 81.54833984 77.65722656 C77.36604137 74.93741031 73.18298696 72.21875722 69 69.5 C67.33332961 68.41667239 65.66666295 67.33333905 64 66.25 C63.175 65.71375 62.35 65.1775 61.5 64.625 C54 59.75 54 59.75 51.49926758 58.12451172 C49.8350572 57.0427831 48.17083197 55.96107732 46.5065918 54.87939453 C42.30222105 52.14669755 38.09812086 49.41358595 33.89453125 46.6796875 C23.2723373 39.77200933 12.64128196 32.87823795 2 26 C1.67 29.96 1.34 33.92 1 38 C2.65 38.66 4.3 39.32 6 40 C7.74475538 41.03957772 9.46205565 42.12600506 11.15625 43.24609375 C12.16316895 43.90834961 13.17008789 44.57060547 14.20751953 45.25292969 C15.29403809 45.97383789 16.38055664 46.69474609 17.5 47.4375 C18.65838676 48.20130857 19.81708507 48.96464485 20.97607422 49.72753906 C23.41732291 51.33510538 25.85710601 52.94486234 28.29589844 54.55615234 C31.87139371 56.91704773 35.45386713 59.26714887 39.0390625 61.61328125 C39.9096933 62.18301918 39.9096933 62.18301918 40.7979126 62.76426697 C41.97796515 63.53640981 43.1580393 64.30851967 44.33813477 65.08059692 C47.37479955 67.06792371 50.41010167 69.05732857 53.4453125 71.046875 C54.36688141 71.65094933 54.36688141 71.65094933 55.30706787 72.26722717 C59.8487706 75.24459598 64.38944781 78.22352575 68.9296875 81.203125 C69.59424957 81.63923096 70.25881165 82.07533691 70.94351196 82.5246582 C74.29178442 84.72205216 77.6396465 86.92006755 80.98681641 89.11914062 C87.10469246 93.1376508 93.22580242 97.15090245 99.3605957 101.14355469 C102.09019881 102.9200885 104.81829574 104.6989285 107.54638672 106.4777832 C108.84275716 107.32199544 110.13995118 108.16494441 111.43798828 109.0065918 C113.22108472 110.16280029 115.00143736 111.32312041 116.78125 112.484375 C117.79251953 113.14147461 118.80378906 113.79857422 119.84570312 114.47558594 C120.55662109 114.97864258 121.26753906 115.48169922 122 116 C122 116.33 122 116.66 122 117 C82.07 117 42.14 117 1 117 C1 144.72 1 172.44 1 201 C40.6 201 80.2 201 121 201 C115.37997473 206.62002527 115.37997473 206.62002527 111.98828125 208.69140625 C110.86703857 209.38568726 110.86703857 209.38568726 109.72314453 210.09399414 C108.92763184 210.57860107 108.13211914 211.06320801 107.3125 211.5625 C105.58608707 212.63356118 103.86085159 213.7065223 102.13671875 214.78125 C101.26966309 215.32136719 100.40260742 215.86148438 99.50927734 216.41796875 C95.83633745 218.73365765 92.22738988 221.13900516 88.625 223.5625 C80.9100523 228.74151182 73.15044239 233.85001802 65.375 238.9375 C64.14257124 239.7441301 62.91014943 240.55077082 61.67773438 241.35742188 C59.77251651 242.60435335 57.86726018 243.85122593 55.96191406 245.09796143 C49.03317415 249.63186697 42.10760933 254.17060672 35.18389893 258.71218872 C33.8396094 259.59382953 32.49517417 260.47524824 31.15057373 261.35641479 C29.24845954 262.60294652 27.34684468 263.85023691 25.4453125 265.09765625 C24.83734833 265.49587082 24.22938416 265.89408539 23.60299683 266.30436707 C20.31682556 268.4611707 17.0465863 270.63905211 13.79199219 272.84326172 C12.75955887 273.54013344 12.75955887 273.54013344 11.70626831 274.25108337 C10.38124971 275.14682324 9.05880256 276.04638182 7.73928833 276.95021057 C3.22254124 280 3.22254124 280 1 280 C1 287.59 1 295.18 1 303 C16.06102785 293.46134903 31.02166152 283.78510106 45.93017578 274.01025391 C57.11551977 266.68560603 68.34066899 259.42172964 79.56860352 252.16259766 C85.05127921 248.61690749 90.52651325 245.0598555 96 241.5 C102.16181795 237.49246649 108.32735921 233.49084351 114.5 229.5 C122.5244157 224.31164552 122.5244157 224.31164552 130.5402832 219.11010742 C132.26220899 217.99582447 133.98994969 216.89047601 135.72338867 215.79418945 C139.53122258 213.36796869 143.14977724 210.97522771 146.51171875 207.953125 C158.47853052 197.64910748 174.13720698 200.09551395 189 201 C185.91543925 204.24353472 182.32189192 206.49074507 178.5625 208.875 C177.0219294 209.86165757 175.48157367 210.84865069 173.94140625 211.8359375 C173.1333252 212.3525293 172.32524414 212.86912109 171.49267578 213.40136719 C167.31519463 216.08051964 163.15851852 218.79154686 159 221.5 C152.83846747 225.50797003 146.67271668 229.50927707 140.5 233.5 C131.83978459 239.0994091 123.19351997 244.72018732 114.54833984 250.34277344 C110.36604137 253.06258969 106.18298696 255.78124278 102 258.5 C100.33332961 259.58332761 98.66666295 260.66666095 97 261.75 C67 281.25 67 281.25 64.50024414 282.87475586 C62.83265955 283.95874283 61.16517916 285.04289012 59.49780273 286.12719727 C55.34601741 288.82685039 51.19249177 291.52374425 47.03515625 294.21484375 C46.21450684 294.74698486 45.39385742 295.27912598 44.54833984 295.82739258 C42.89804785 296.89630593 41.24603981 297.96257476 39.59228516 299.02612305 C35.13567114 301.90546497 30.75346082 304.85939966 26.42578125 307.9296875 C25.49822021 308.57752197 24.57065918 309.22535645 23.61499023 309.89282227 C21.83910532 311.13703353 20.07586648 312.39957316 18.32836914 313.68334961 C12.36549141 317.82914963 8.18036623 318.68949674 1 318 C0.24910695 308.90770613 -0.14351949 299.89716463 -0.12025452 290.77542114 C-0.12110894 289.52205928 -0.12196337 288.26869741 -0.12284368 286.97735488 C-0.12505328 283.54289542 -0.12111656 280.10846783 -0.11606562 276.67401242 C-0.11170981 272.95370574 -0.11321115 269.23340056 -0.1139679 265.51309204 C-0.1144899 259.08212998 -0.11137701 252.65117815 -0.10573006 246.22021866 C-0.09757107 236.92235874 -0.09499534 227.62450371 -0.09374207 218.32664059 C-0.09155843 203.23810265 -0.08491708 188.14957015 -0.07543945 173.06103516 C-0.06624748 158.41194689 -0.05917539 143.7628601 -0.05493164 129.11376953 C-0.05453756 127.75721674 -0.05453756 127.75721674 -0.05413551 126.37325884 C-0.05283038 121.83589007 -0.0515667 117.29852129 -0.05032361 112.76115251 C-0.03997245 75.17409784 -0.02237294 37.58704934 0 0 Z " fill="#434898" transform="translate(37,56)"/>
<path d="M0 0 C0 33.66 0 67.32 0 102 C-51.15 102 -102.3 102 -155 102 C-151.96691064 99.57352851 -149.13673588 97.34111817 -145.9375 95.21484375 C-145.15632813 94.69446533 -144.37515625 94.17408691 -143.5703125 93.63793945 C-142.72210938 93.07679443 -141.87390625 92.51564941 -141 91.9375 C-140.08992188 91.33317139 -139.17984375 90.72884277 -138.2421875 90.10620117 C-127.40545623 82.9223514 -116.52385031 75.80652515 -105.64245605 68.69059753 C-99.52736028 64.69158537 -93.41568863 60.68735768 -87.30444336 56.6824646 C-84.2864448 54.70474863 -81.26821023 52.72739291 -78.25 50.75 C-77.04166554 49.95833505 -75.83333221 49.16666838 -74.625 48.375 C-71 46 -71 46 -67.375 43.625 C-66.7769606 43.23318039 -66.1789212 42.84136078 -65.5627594 42.43766785 C-64.35356397 41.64543776 -63.14436597 40.85321161 -61.93516541 40.06098938 C-58.92750103 38.09047507 -55.91988041 36.11989405 -52.91235352 34.14916992 C-47.31823218 30.48364298 -41.72369967 26.81874868 -36.12765503 23.15615845 C-33.52325044 21.45152822 -30.91908763 19.74652881 -28.31494141 18.04150391 C-27.08963806 17.23940026 -25.86422011 16.43747162 -24.63867188 15.63574219 C-17.06425878 10.68621513 -17.06425878 10.68621513 -9.53173828 5.67333984 C-8.43974121 4.93937988 -7.34774414 4.20541992 -6.22265625 3.44921875 C-4.75131226 2.45474731 -4.75131226 2.45474731 -3.25024414 1.44018555 C-1 0 -1 0 0 0 Z " fill="#42489B" transform="translate(228,272)"/>
<path d="M0 0 C51.15 0 102.3 0 155 0 C151.28739246 2.97008603 147.60591039 5.66703036 143.63671875 8.24609375 C142.71295944 8.85078743 142.71295944 8.85078743 141.77053833 9.46769714 C139.74437559 10.79330124 137.71593266 12.11537251 135.6875 13.4375 C134.2539756 14.37456991 132.82062905 15.31191193 131.38745117 16.24951172 C128.40839688 18.19814882 125.42857992 20.14561164 122.44824219 22.09228516 C116.22579607 26.1579977 110.01338992 30.23898494 103.80059814 34.31942749 C89.99853281 43.38316367 76.18708616 52.43258663 62.37414551 61.47973633 C57.51989367 64.65922645 52.66624335 67.83963375 47.81298828 71.02064514 C44.78350628 73.00618063 41.75359338 74.99105159 38.72265625 76.97436523 C33.25687782 80.55149598 27.79400818 84.13271188 22.34407043 87.73394775 C19.9144032 89.33881985 17.4825322 90.94033307 15.05038452 92.54144287 C13.89973475 93.30024494 12.75016065 94.06068091 11.60171509 94.82281494 C10.0249437 95.86904011 8.44421423 96.90929278 6.86328125 97.94921875 C5.52197144 98.83613403 5.52197144 98.83613403 4.15356445 99.7409668 C2 101 2 101 0 101 C0 67.67 0 34.34 0 0 Z " fill="#42489B" transform="translate(311,56)"/>
<path d="M0 0 C51.15 0 102.3 0 155 0 C155 33.33 155 66.66 155 101 C150.82810934 99.33124374 147.78038252 97.69409305 144.08203125 95.24609375 C143.51651047 94.87368057 142.95098969 94.5012674 142.36833191 94.11756897 C140.51365795 92.8949593 138.66314168 91.66620278 136.8125 90.4375 C135.50617911 89.57503635 134.19953364 88.71306415 132.89257812 87.8515625 C130.21709391 86.08753535 127.54291239 84.32155947 124.86962891 82.55419922 C119.26022072 78.8483397 113.62983922 75.17473054 108 71.5 C95.2175998 63.14618638 82.44513486 54.77723918 69.67333984 46.40722656 C66.02849584 44.01861227 62.3834228 41.63034768 58.73828125 39.2421875 C58.13994476 38.85017151 57.54160828 38.45815552 56.92514038 38.05426025 C53.92415033 36.08810656 50.92307973 34.12207599 47.921875 32.15625 C42.28805326 28.46584308 36.65500148 24.77427631 31.02450562 21.07879639 C28.38169512 19.34433053 25.73847042 17.61049646 23.09521484 15.87670898 C21.8422413 15.05459542 20.58946798 14.23217659 19.33691406 13.40942383 C11.31037437 8.13197434 11.31037437 8.13197434 3.17578125 3.0234375 C1.60376953 2.02183594 1.60376953 2.02183594 0 1 C0 0.67 0 0.34 0 0 Z " fill="#42489B" transform="translate(73,56)"/>
<path d="M0 0 C4.24995063 1.69998025 7.71054081 3.61142663 11.46875 6.12109375 C12.40481331 6.73823494 12.40481331 6.73823494 13.35978699 7.36784363 C15.4092603 8.7203058 17.45456807 10.07893523 19.5 11.4375 C20.94084163 12.3896453 22.38200849 13.34129861 23.82348633 14.29248047 C26.78145681 16.24479887 29.73810908 18.19908957 32.69384766 20.15478516 C38.4220983 23.9425875 44.16716823 27.70458224 49.91381836 31.46438599 C52.89512196 33.41521113 55.87520061 35.36790602 58.85546875 37.3203125 C60.04475282 38.09929346 61.23404318 38.87826482 62.42333984 39.65722656 C66.02850119 42.01860416 69.63342109 44.38035016 73.23828125 46.7421875 C74.13651108 47.33067223 74.13651108 47.33067223 75.05288696 47.93104553 C78.07804502 49.9130395 81.10308745 51.89520961 84.12792969 53.87768555 C90.15444152 57.8271794 96.18279576 61.77380978 102.21484375 65.71484375 C114.42611387 73.6951447 126.61981104 81.70195698 138.77249146 89.77127075 C140.12725303 90.67027697 141.48277785 91.56813414 142.83908081 92.46481323 C144.71400347 93.70493123 146.58591582 94.94946011 148.45703125 96.1953125 C149.52928955 96.90703613 150.60154785 97.61875977 151.70629883 98.35205078 C152.84168091 99.16778564 152.84168091 99.16778564 154 100 C154 100.33 154 100.66 154 101 C103.18 101 52.36 101 0 101 C0 67.67 0 34.34 0 0 Z " fill="#42489B" transform="translate(311,273)"/>
<path d="M0 0 C43.56 0 87.12 0 132 0 C132 28.71 132 57.42 132 87 C124.15263318 82.42236935 116.56095205 77.82650322 109.0625 72.75 C106.9538187 71.33360212 104.84441155 69.91828441 102.734375 68.50390625 C101.91638176 67.95516594 101.91638176 67.95516594 101.0818634 67.39533997 C94.68964035 63.11231449 88.25214662 58.89874012 81.8125 54.6875 C80.5860184 53.88509187 79.35953729 53.08268302 78.13305664 52.28027344 C75.6574679 50.66092622 73.18158319 49.04203249 70.70556641 47.42333984 C65.23508622 43.84652199 59.76866078 40.2635159 54.30197144 36.6809082 C51.31081377 34.7206759 48.31948561 32.76070384 45.328125 30.80078125 C44.73410385 30.41157501 44.1400827 30.02236877 43.52806091 29.62136841 C39.70260684 27.1150575 35.87661374 24.60957126 32.05029297 22.10458374 C29.41678752 20.38045763 26.78346054 18.65605904 24.15014648 16.93164062 C22.9043043 16.11591253 21.65837633 15.30031544 20.41235352 14.48486328 C17.60485835 12.64749533 14.79851552 10.80843982 11.99414062 8.96630859 C10.05778705 7.6946687 8.11913294 6.42652202 6.17773438 5.16259766 C4.93733398 4.34927979 4.93733398 4.34927979 3.671875 3.51953125 C2.95612305 3.05264893 2.24037109 2.5857666 1.50292969 2.10473633 C1.00696289 1.74017334 0.51099609 1.37561035 0 1 C0 0.67 0 0.34 0 0 Z " fill="#41479B" transform="translate(380,257)"/>
<path d="M0 0 C0 28.71 0 57.42 0 87 C-43.23 87 -86.46 87 -131 87 C-125.38095238 81.38095238 -125.38095238 81.38095238 -122.09375 79.37890625 C-121.36196533 78.92652588 -120.63018066 78.47414551 -119.8762207 78.00805664 C-118.69999146 77.2925061 -118.69999146 77.2925061 -117.5 76.5625 C-110.69162728 72.34069431 -103.96240407 68.02982108 -97.3125 63.5625 C-88.47194498 57.63425562 -79.58944102 51.77293246 -70.6875 45.9375 C-70.01283691 45.49510986 -69.33817383 45.05271973 -68.64306641 44.59692383 C-63.058216 40.93488983 -57.47207728 37.27482308 -51.88586426 33.61486816 C-47.70746426 30.87717913 -43.52941071 28.13896302 -39.35198975 25.39978027 C-37.99908642 24.51269029 -36.64610059 23.62572611 -35.29302979 22.7388916 C-25.80047879 16.51620028 -16.33496346 10.25576264 -6.92504883 3.90844727 C-6.14669678 3.38565186 -5.36834473 2.86285645 -4.56640625 2.32421875 C-3.89552979 1.87135498 -3.22465332 1.41849121 -2.53344727 0.9519043 C-1 0 -1 0 0 0 Z " fill="#41479B" transform="translate(512,86)"/>
<path d="M0 0 C39.6 0 79.2 0 120 0 C114.37997473 5.62002527 114.37997473 5.62002527 110.98828125 7.69140625 C110.24078613 8.15426025 109.49329102 8.61711426 108.72314453 9.09399414 C107.92763184 9.57860107 107.13211914 10.06320801 106.3125 10.5625 C104.58608707 11.63356118 102.86085159 12.7065223 101.13671875 13.78125 C100.26966309 14.32136719 99.40260742 14.86148437 98.50927734 15.41796875 C94.83633745 17.73365765 91.22738988 20.13900516 87.625 22.5625 C79.9100523 27.74151182 72.15044239 32.85001802 64.375 37.9375 C63.14257124 38.7441301 61.91014943 39.55077082 60.67773438 40.35742188 C58.77251651 41.60435335 56.86726018 42.85122593 54.96191406 44.09796143 C48.03317415 48.63186697 41.10760933 53.17060672 34.18389893 57.71218872 C32.8396094 58.59382953 31.49517417 59.47524824 30.15057373 60.35641479 C28.24845954 61.60294652 26.34684468 62.85023691 24.4453125 64.09765625 C23.83734833 64.49587082 23.22938416 64.89408539 22.60299683 65.30436707 C19.31682556 67.4611707 16.0465863 69.63905211 12.79199219 71.84326172 C12.10370331 72.30784286 11.41541443 72.77242401 10.70626831 73.25108337 C9.38124971 74.14682324 8.05880256 75.04638182 6.73928833 75.95021057 C2.22254124 79 2.22254124 79 0 79 C0 52.93 0 26.86 0 0 Z " fill="#41479B" transform="translate(38,257)"/>
<path d="M0 0 C2.39345717 2.87593272 3 4.25449197 3 8 C1.13354492 9.52368164 1.13354492 9.52368164 -1.51953125 11.16015625 C-3.0036853 12.08997314 -3.0036853 12.08997314 -4.51782227 13.03857422 C-6.14868774 14.04041748 -6.14868774 14.04041748 -7.8125 15.0625 C-10.11096037 16.50146393 -12.40794673 17.94254829 -14.703125 19.38671875 C-15.29968399 19.76080872 -15.89624298 20.13489868 -16.51087952 20.52032471 C-23.11573513 24.6744857 -29.58781535 29.02195374 -36.0625 33.375 C-43.66238622 38.47357182 -51.28384432 43.51375096 -59.07739258 48.31274414 C-67.87656601 53.74423287 -76.49042137 59.46682425 -85.14111328 65.13037109 C-89.48423843 67.97064884 -93.83545786 70.79841149 -98.1875 73.625 C-99.00057617 74.15327393 -99.81365234 74.68154785 -100.65136719 75.22583008 C-102.28365003 76.28635925 -103.91597406 77.34682505 -105.54833984 78.40722656 C-108.86396711 80.5612947 -112.1790702 82.71616878 -115.49414062 84.87109375 C-117.99212815 86.49488299 -120.49020455 88.11853545 -122.98828125 89.7421875 C-129.32120215 93.85772 -129.32120215 93.85772 -135.64990234 97.97973633 C-137.33843936 99.07450744 -139.03280168 100.16034692 -140.73291016 101.23706055 C-144.66380932 103.73955171 -148.40766717 106.26561149 -151.98046875 109.26171875 C-164.95708647 119.6863879 -179.16734145 118.1125652 -195 117 C-192.6660707 114.57902661 -190.43566498 112.45990041 -187.59375 110.66015625 C-186.94301514 110.2439502 -186.29228027 109.82774414 -185.62182617 109.39892578 C-184.92162354 108.95790527 -184.2214209 108.51688477 -183.5 108.0625 C-181.96461196 107.08239427 -180.42946555 106.10190992 -178.89453125 105.12109375 C-178.09225098 104.61046387 -177.2899707 104.09983398 -176.46337891 103.57373047 C-172.35514813 100.94918581 -168.27229738 98.28580944 -164.1875 95.625 C-162.49356506 94.52332144 -160.79955406 93.42175981 -159.10546875 92.3203125 C-158.26161621 91.77149414 -157.41776367 91.22267578 -156.54833984 90.65722656 C-152.36604137 87.93741031 -148.18298696 85.21875722 -144 82.5 C-142.33332961 81.41667239 -140.66666295 80.33333905 -139 79.25 C-115.66666667 64.08333333 -92.33333333 48.91666667 -69 33.75 C-68.1747583 33.21358887 -67.3495166 32.67717773 -66.49926758 32.12451172 C-64.8350572 31.0427831 -63.17083197 29.96107732 -61.5065918 28.87939453 C-53.92514143 23.95231374 -53.92514143 23.95231374 -46.34692383 19.02026367 C-44.66647704 17.9293735 -42.98274099 16.84353247 -41.2956543 15.76293945 C-37.29510423 13.19332058 -33.3787609 10.57572925 -29.5625 7.73828125 C-20.22742477 0.94121612 -11.70937222 -3.00102903 0 0 Z " fill="#FE4D57" transform="translate(508,56)"/>
<path d="M0 0 C-3.08456075 3.24353472 -6.67810808 5.49074507 -10.4375 7.875 C-11.9780706 8.86165757 -13.51842633 9.84865069 -15.05859375 10.8359375 C-16.27071533 11.6108252 -16.27071533 11.6108252 -17.50732422 12.40136719 C-21.68480537 15.08051964 -25.84148148 17.79154686 -30 20.5 C-36.16153253 24.50797003 -42.32728332 28.50927707 -48.5 32.5 C-57.16021541 38.0994091 -65.80648003 43.72018732 -74.45166016 49.34277344 C-78.63395863 52.06258969 -82.81701304 54.78124278 -87 57.5 C-88.66667039 58.58332761 -90.33333705 59.66666095 -92 60.75 C-122 80.25 -122 80.25 -124.49975586 81.87475586 C-126.16734045 82.95874283 -127.83482084 84.04289012 -129.50219727 85.12719727 C-133.65398259 87.82685039 -137.80750823 90.52374425 -141.96484375 93.21484375 C-142.78549316 93.74698486 -143.60614258 94.27912598 -144.45166016 94.82739258 C-146.10195215 95.89630593 -147.75396019 96.96257476 -149.40771484 98.02612305 C-153.86432886 100.90546497 -158.24653918 103.85939966 -162.57421875 106.9296875 C-163.50177979 107.57752197 -164.42934082 108.22535645 -165.38500977 108.89282227 C-167.16089468 110.13703353 -168.92413352 111.39957316 -170.67163086 112.68334961 C-176.55857832 116.77635772 -180.86133762 117.84379785 -188 117 C-189.4364751 111.81998373 -190.25208307 107.00199502 -188 102 C-182.87145716 96.66424331 -175.7164888 93.41450038 -169.30273438 89.88037109 C-163.65474801 86.6647597 -158.28448499 83.03499807 -152.875 79.4375 C-150.67678544 77.99456278 -148.47757804 76.55313685 -146.27734375 75.11328125 C-145.2188623 74.41928223 -144.16038086 73.7252832 -143.06982422 73.01025391 C-131.88448023 65.68560603 -120.65933101 58.42172964 -109.43139648 51.16259766 C-103.94872079 47.61690749 -98.47348675 44.0598555 -93 40.5 C-86.83818205 36.49246649 -80.67264079 32.49084351 -74.5 28.5 C-66.4755843 23.31164552 -66.4755843 23.31164552 -58.4597168 18.11010742 C-56.73779101 16.99582447 -55.01005031 15.89047601 -53.27661133 14.79418945 C-49.46877742 12.36796869 -45.85022276 9.97522771 -42.48828125 6.953125 C-30.52146948 -3.35089252 -14.86279302 -0.90448605 0 0 Z " fill="#FE4D57" transform="translate(226,257)"/>
<path d="M0 0 C31.28541323 -2.19843444 31.28541323 -2.19843444 45.09765625 9.45654297 C48.30788977 12.06114978 51.81410766 14.18286222 55.3125 16.375 C56.73071777 17.28926504 58.14736526 18.20597014 59.5625 19.125 C60.28308594 19.59164063 61.00367188 20.05828125 61.74609375 20.5390625 C70.02431002 25.90483873 78.2916993 31.28731948 86.56152344 36.66601562 C95.20231276 42.28566539 103.84424817 47.90341546 112.5 53.5 C122.86641623 60.20265575 133.21320546 66.93546646 143.56152344 73.66601562 C152.45414905 79.4494504 161.34779577 85.23131628 170.25 91 C170.91668701 91.4326416 171.58337402 91.8652832 172.27026367 92.31103516 C172.90810791 92.72401855 173.54595215 93.13700195 174.203125 93.5625 C174.81953857 93.96670166 175.43595215 94.37090332 176.07104492 94.78735352 C177.43300124 95.64355362 178.8251358 96.45262172 180.2355957 97.22631836 C185.78890941 100.34441027 185.78890941 100.34441027 186.88671875 103.75390625 C186.78810547 105.14416016 186.78810547 105.14416016 186.6875 106.5625 C186.65011719 107.49191406 186.61273437 108.42132813 186.57421875 109.37890625 C185.90077629 112.45291912 185.38020919 113.91424968 183 116 C177.4752778 116.99893501 174.39571821 115.4310774 170.00244141 112.39477539 C169.27976074 111.87262451 168.55708008 111.35047363 167.8125 110.8125 C166.21322783 109.70170082 164.6129299 108.59237733 163.01171875 107.484375 C161.77494385 106.6190918 161.77494385 106.6190918 160.51318359 105.73632812 C156.44119102 102.92303775 152.28379761 100.24505513 148.125 97.5625 C146.44384249 96.4729153 144.76285394 95.38306988 143.08203125 94.29296875 C142.24494629 93.75075684 141.40786133 93.20854492 140.54541016 92.64990234 C137.14228849 90.44404236 133.74277604 88.23265399 130.34326172 86.02124023 C123.40113289 81.50544102 116.45455682 76.99663598 109.5 72.5 C100.83981253 66.9005475 92.19352012 61.27981278 83.54833984 55.65722656 C79.36604137 52.93741031 75.18298696 50.21875722 71 47.5 C69.33332961 46.41667239 67.66666295 45.33333905 66 44.25 C64.7625 43.445625 64.7625 43.445625 63.5 42.625 C56 37.75 56 37.75 53.49926758 36.12451172 C51.8350572 35.0427831 50.17083197 33.96107732 48.5065918 32.87939453 C44.30222105 30.14669755 40.09812086 27.41358595 35.89453125 24.6796875 C34.63189453 23.8587561 34.63189453 23.8587561 33.34375 23.02124023 C31.67018359 21.93280868 29.99699975 20.84378864 28.32421875 19.75415039 C24.26281417 17.11061116 20.19362902 14.48091064 16.10546875 11.87890625 C15.32905029 11.38277832 14.55263184 10.88665039 13.75268555 10.37548828 C12.29723434 9.44640975 10.83922878 8.52131525 9.37817383 7.60107422 C8.72743896 7.18486816 8.0767041 6.76866211 7.40625 6.33984375 C6.84228516 5.98269287 6.27832031 5.62554199 5.69726562 5.25756836 C3.58656871 3.6936731 1.8206643 1.88856613 0 0 Z " fill="#FE4D57" transform="translate(326,257)"/>
<path d="M0 0 C7.04617606 3.96265395 13.84671946 8.16613403 20.54223633 12.69091797 C26.54535619 16.73237389 32.64339832 20.61720884 38.75 24.5 C47.93296757 30.3455516 57.02180829 36.31289333 66.0625 42.375 C73.66413145 47.47107692 81.2837421 52.51368802 89.07739258 57.31274414 C97.87656601 62.74423287 106.49042137 68.46682425 115.14111328 74.13037109 C119.4842383 76.97064876 123.83543765 79.79844278 128.1875 82.625 C129.81901747 83.68488498 131.4505279 84.74478078 133.08203125 85.8046875 C133.88721191 86.32772461 134.69239258 86.85076172 135.52197266 87.38964844 C138.08167863 89.05307904 140.64054807 90.71778992 143.19921875 92.3828125 C144.05845947 92.94178223 144.9177002 93.50075195 145.80297852 94.07666016 C147.49510246 95.17754459 149.18700327 96.27877209 150.87866211 97.38037109 C154.69740557 99.86459717 158.52176613 102.33848347 162.3671875 104.78125 C163.02799316 105.20180664 163.68879883 105.62236328 164.36962891 106.05566406 C165.59126728 106.83159953 166.8148018 107.6045606 168.04052734 108.37402344 C169.37726183 109.22330058 170.69168056 110.10757018 172 111 C172 111.33 172 111.66 172 112 C149.11659937 114.53724239 136.16953663 111.53219737 117.76953125 97.13232422 C114.03364311 94.25598016 110.12041201 91.7454085 106.125 89.25 C104.78888594 88.39031459 103.45424373 87.52833729 102.12109375 86.6640625 C101.45706543 86.23512695 100.79303711 85.80619141 100.10888672 85.36425781 C93.5806208 81.14106379 87.0662874 76.89631943 80.54833984 72.65722656 C76.36604137 69.93741031 72.18298696 67.21875722 68 64.5 C66.33332961 63.41667239 64.66666295 62.33333905 63 61.25 C61.7625 60.445625 61.7625 60.445625 60.5 59.625 C58 58 55.5 56.375 53 54.75 C52.17483887 54.21366943 51.34967773 53.67733887 50.49951172 53.12475586 C48.83438339 52.04237365 47.16934418 50.95985431 45.50439453 49.87719727 C40.47106773 46.60450121 35.43603382 43.33451095 30.39355469 40.07592773 C28.72398239 38.98979942 27.06044692 37.89433052 25.40332031 36.78930664 C21.27063357 34.04362313 17.146989 31.50695857 12.7421875 29.21875 C0.85306104 22.76019175 0.85306104 22.76019175 -0.76464844 17.52587891 C-1.52892264 11.61810287 -1.01521322 5.84832229 0 0 Z " fill="#FE4D57" transform="translate(38,61)"/>
</svg>
