<?xml version="1.0" encoding="UTF-8"?>
<svg version="1.1" xmlns="http://www.w3.org/2000/svg" width="512" height="512">
<path d="M0 0 C7.80135542 6.31988591 11.4659916 14.46020478 12.75 24.3125 C13.01045008 32.97246524 11.20824951 40.45225745 6.16015625 47.546875 C4.2676082 51.25857588 4.19110322 54.5133712 4.0625 58.625 C4.02833984 59.36556641 3.99417969 60.10613281 3.95898438 60.86914062 C3.87706446 62.68308164 3.81184178 64.49776353 3.75 66.3125 C4.719375 65.6834375 5.68875 65.054375 6.6875 64.40625 C48.97827918 37.26806719 97.50803753 26.79662784 147.375 27 C148.81433395 27.00323273 148.81433395 27.00323273 150.28274536 27.00653076 C165.62396636 27.06158965 180.60560163 27.65931011 195.75 30.3125 C196.89355957 30.51117676 198.03711914 30.70985352 199.21533203 30.91455078 C219.90907304 34.62824136 239.62877758 40.52354102 259.5 47.28125 C276.7422538 53.13937696 293.82409377 58.87110109 311.75 62.3125 C313.0800708 62.57281006 313.0800708 62.57281006 314.43701172 62.83837891 C352.44817083 69.91168681 393.77937983 65.25551558 430.96582031 55.74584961 C436.72041821 54.34814692 442.94236633 54.44096234 448.25 57 C455.60141585 63.80005967 455.60141585 63.80005967 455.87880117 68.49042583 C455.88148402 69.86051449 455.88148402 69.86051449 455.88422108 71.25828171 C455.88867892 72.31054908 455.89313676 73.36281644 455.89772969 74.4469707 C455.89745315 76.19469268 455.89745315 76.19469268 455.89717102 77.97772217 C455.90084771 79.20843044 455.9045244 80.4391387 455.9083125 81.70714116 C455.91745192 85.13432749 455.92205178 88.56146588 455.92470181 91.98865986 C455.92860027 95.68066976 455.93817893 99.37266572 455.94691467 103.06466675 C455.96669223 111.98644206 455.976747 120.90821853 455.98564246 129.83001029 C455.99002332 134.02920409 455.99539066 138.22839662 456.00063133 142.42758942 C456.01764503 156.38293064 456.03213978 170.33827106 456.03938007 184.29362106 C456.04129004 187.91645051 456.04321036 191.53927995 456.04516602 195.16210938 C456.04564976 196.06257017 456.0461335 196.96303097 456.0466319 197.89077845 C456.05493432 212.48158736 456.08027418 227.07231434 456.11274669 241.66308746 C456.14579823 256.63584571 456.16382711 271.60856231 456.16702431 286.58135724 C456.1691912 294.99098364 456.17796585 303.40049058 456.20348549 311.81008148 C456.22516651 318.97135914 456.23325578 326.13248832 456.22351871 333.29379508 C456.21896638 336.94824924 456.22091386 340.60239689 456.24028015 344.25680923 C456.2610899 348.21778199 456.2509509 352.17832994 456.23774719 356.13934326 C456.25420106 357.87368091 456.25420106 357.87368091 456.27098733 359.64305568 C456.22082209 365.85575662 455.93985416 369.6017335 451.75 374.3125 C443.35443086 382.33489398 428.94764814 383.2791988 417.9375 385.375 C417.26980591 385.50256683 416.60211182 385.63013367 415.91418457 385.76156616 C357.31462362 396.88972306 305.15983836 390.73095111 249.19265747 371.25402832 C228.03609236 363.90075054 206.9282302 358.56981305 184.75 355.3125 C183.57848389 355.13460937 183.57848389 355.13460937 182.38330078 354.953125 C127.49519215 346.9642125 62.57900608 355.68455353 16.75 388.3125 C12.57985609 391.46039073 8.44842831 394.61407169 4.75 398.3125 C4.44850663 400.20275384 4.44850663 400.20275384 4.4984436 402.39167786 C4.49306076 403.2454451 4.48767792 404.09921234 4.48213196 404.97885132 C4.48625595 405.91758087 4.49037994 406.85631042 4.49462891 407.82348633 C4.49100845 408.81061111 4.487388 409.7977359 4.48365784 410.81477356 C4.47675152 412.9635456 4.4742607 415.11233522 4.47560501 417.26111794 C4.47656718 420.66107243 4.46366433 424.06070808 4.44662476 427.46061707 C4.40026002 437.1290742 4.37574473 446.79750007 4.36914062 456.46606445 C4.36413019 462.37533273 4.339901 468.28426991 4.30381393 474.19342613 C4.29400243 476.44726258 4.29169131 478.70114452 4.29698563 480.95499611 C4.30404365 484.10813457 4.28679835 487.26028499 4.26416016 490.41333008 C4.27233261 491.34598694 4.28050507 492.2786438 4.28892517 493.23956299 C4.23614811 497.36801192 4.07257837 499.74894951 1.98799133 503.39076233 C-0.46726314 505.49906138 -1.39232599 505.9423781 -4.57202148 505.95947266 C-5.83869911 505.98311386 -5.83869911 505.98311386 -7.13096619 506.00723267 C-8.03520828 505.99711151 -8.93945038 505.98699036 -9.87109375 505.9765625 C-11.27646141 505.98373795 -11.27646141 505.98373795 -12.71022034 505.99105835 C-14.68972453 505.99445752 -16.66928485 505.98525383 -18.64868164 505.96435547 C-21.67396763 505.93761959 -24.69553342 505.96408658 -27.72070312 505.99609375 C-29.64584151 505.99278907 -31.57097757 505.98638162 -33.49609375 505.9765625 C-34.39831161 505.98668365 -35.30052948 505.99680481 -36.23008728 506.00723267 C-37.07769119 505.99147186 -37.9252951 505.97571106 -38.79858398 505.95947266 C-39.53930649 505.95549469 -40.28002899 505.95151672 -41.04319763 505.94741821 C-44.50725735 504.950775 -45.99091825 503.0768786 -48.25 500.3125 C-48.73880715 497.55759366 -48.91716606 495.42328178 -48.86688995 492.67617321 C-48.87582937 491.52892974 -48.87582937 491.52892974 -48.88494939 490.35850963 C-48.89888721 487.78625553 -48.87708803 485.21554063 -48.85559082 482.64335632 C-48.85832073 480.78445323 -48.86325915 478.92555229 -48.87022066 477.06666023 C-48.88305341 471.95110541 -48.8647598 466.83605693 -48.84157586 461.7205559 C-48.822063 456.20645762 -48.83142063 450.69240248 -48.83750916 445.17828369 C-48.84431046 435.62046663 -48.83337895 426.06280192 -48.8110199 416.5050106 C-48.77913469 402.67728014 -48.77945812 388.8496924 -48.78866035 375.02193496 C-48.80318458 352.57686051 -48.79913904 330.13183378 -48.77978516 307.68676758 C-48.77921177 307.01505403 -48.77863839 306.34334048 -48.77804763 305.65127197 C-48.76872233 294.75192437 -48.75844601 283.85257771 -48.74804723 272.9532311 C-48.73831772 262.74526968 -48.72893443 252.53730804 -48.72021484 242.3293457 C-48.71963595 241.65844862 -48.71905706 240.98755155 -48.71846063 240.29632425 C-48.69871358 217.26277825 -48.69855362 194.22927143 -48.71387625 171.19571906 C-48.72210106 157.40139933 -48.71257566 143.60730597 -48.68028057 129.81302045 C-48.65926509 120.36210909 -48.65580907 110.91129785 -48.66622889 101.46036919 C-48.67160381 96.00517664 -48.66865664 90.55030926 -48.64388847 85.09516335 C-48.62134376 80.10170756 -48.6217335 75.10879959 -48.64037412 70.11533258 C-48.64302267 68.30847917 -48.63718431 66.50158934 -48.62202317 64.6947976 C-48.38990318 52.13173264 -48.38990318 52.13173264 -54.25 41.3125 C-57.6758263 33.31194225 -57.70984229 23.1160252 -55.1875 14.81640625 C-50.76191019 5.37594973 -44.13983292 -2.0099781 -34.25 -5.6875 C-22.55611228 -9.53348974 -9.88465691 -6.6702854 0 0 Z " fill="#010101" transform="translate(56.25,6.6875)"/>
<path d="M0 0 C27.38895859 0 27.38895859 0 41 2 C41.969375 2.14002441 42.93875 2.28004883 43.9375 2.42431641 C63.2858015 5.33563115 81.51139305 10.81716644 100 17 C100.72707153 17.24268616 101.45414307 17.48537231 102.20324707 17.7354126 C104.45081757 18.48572596 106.69810295 19.23688758 108.9453125 19.98828125 C109.68492218 20.23539856 110.42453186 20.48251587 111.18655396 20.73712158 C114.74059505 21.92575723 118.29211206 23.12087388 121.83837891 24.33251953 C122.49579071 24.55522018 123.15320251 24.77792084 123.83053589 25.00737 C125.59347601 25.60461064 127.35491131 26.20628826 129.11621094 26.80834961 C134.35118821 28.41458069 139.68764235 29.67191059 145 31 C145 126.7 145 222.4 145 321 C138.67968756 319.73593751 132.95750673 318.50743747 126.95703125 316.42578125 C126.23387726 316.1809903 125.51072327 315.93619934 124.76565552 315.68399048 C123.23353242 315.16503729 121.70227176 314.64353154 120.17184448 314.11959839 C116.16889156 312.75024479 112.15868831 311.40249068 108.1484375 310.0546875 C107.35845871 309.78887375 106.56847992 309.52306 105.75456238 309.24919128 C99.17943655 307.04391402 92.57595611 304.94471199 85.9375 302.9375 C85.07294189 302.67557861 84.20838379 302.41365723 83.31762695 302.14379883 C80.88229097 301.41504571 78.44260223 300.70398357 76 300 C74.72116943 299.62415771 74.72116943 299.62415771 73.41650391 299.24072266 C49.56828539 292.44114903 24.56091099 291.10522094 0 289 C0 193.63 0 98.26 0 0 Z " fill="#F4F4F4" transform="translate(205,52)"/>
<path d="M0 0 C0 95.7 0 191.4 0 290 C-9.69970287 292.58658743 -19.03067718 294.92667448 -28.875 296.5625 C-30.12966064 296.77156982 -31.38432129 296.98063965 -32.67700195 297.19604492 C-36.44906849 297.81277244 -40.22363615 298.41021233 -44 299 C-45.06041504 299.16951172 -46.12083008 299.33902344 -47.21337891 299.51367188 C-72.120353 303.38943023 -103.72063638 306.09312121 -128 298 C-128 202.63 -128 107.26 -128 9 C-116.95254989 9 -116.95254989 9 -111.44140625 9.97265625 C-103.26180138 11.21807417 -95.1897207 11.43891806 -86.9375 11.4375 C-86.1477478 11.43889984 -85.35799561 11.44029968 -84.54431152 11.44174194 C-56.00509955 11.40082117 -27.6932424 0 0 0 Z " fill="#F34234" transform="translate(495,79)"/>
<path d="M0 0 C0 95.7 0 191.4 0 290 C-9.9 290.99 -19.8 291.98 -30 293 C-62.77033643 298.06944431 -97.32913775 307.44794125 -124.21484375 327.78515625 C-126 329 -126 329 -128 329 C-128.2289475 292.97342446 -128.40512595 256.9469766 -128.51065329 220.9198232 C-128.52316019 216.66537899 -128.53610343 212.41093621 -128.54931641 208.15649414 C-128.55193951 207.30952034 -128.55456261 206.46254654 -128.55726521 205.58990686 C-128.60076472 191.88026141 -128.67960232 178.17103579 -128.77152796 164.46163929 C-128.86508256 150.39183763 -128.9205959 136.32225566 -128.94088495 122.25215572 C-128.9545986 113.57163416 -128.99788923 104.89229922 -129.07916467 96.212143 C-129.13207393 90.25772776 -129.14799049 84.30392486 -129.13501377 78.34929169 C-129.12861505 74.9145363 -129.13833438 71.48185209 -129.19205475 68.04746628 C-129.24186168 64.31800523 -129.22984167 60.59360855 -129.20254517 56.86402893 C-129.23167358 55.78521519 -129.26080199 54.70640144 -129.29081309 53.59489638 C-129.19728294 48.86352401 -128.88991456 46.07632687 -125.81554103 42.35795772 C-123.30141811 40.06422682 -120.75349372 37.99722579 -118 36 C-117.38524736 35.53688512 -116.77049472 35.07377024 -116.13711321 34.59662157 C-107.4169199 28.31169867 -97.70585653 23.53943798 -88 19 C-86.87078125 18.46503906 -85.7415625 17.93007812 -84.578125 17.37890625 C-74.70321448 12.91665208 -64.43854704 9.85055669 -54 7 C-52.63343262 6.62113647 -52.63343262 6.62113647 -51.23925781 6.23461914 C-43.23269612 4.11243831 -35.20747947 2.87781425 -27 1.8125 C-25.72382813 1.63525391 -24.44765625 1.45800781 -23.1328125 1.27539062 C-21.87210937 1.10845703 -20.61140625 0.94152344 -19.3125 0.76953125 C-17.63607422 0.54680542 -17.63607422 0.54680542 -15.92578125 0.31958008 C-10.63362499 -0.1112304 -5.30966247 0 0 0 Z " fill="#3E50B4" transform="translate(188,52)"/>
<path d="M0 0 C0 141.24 0 282.48 0 428 C-5.61 428 -11.22 428 -17 428 C-17 287.09 -17 146.18 -17 1 C-4 0 -4 0 0 0 Z " fill="#5E7A88" transform="translate(43,67)"/>
<path d="M0 0 C0 95.7 0 191.4 0 290 C-15 294 -15 294 -18 294 C-17.67 198.63 -17.34 103.26 -17 5 C-17.66 4.67 -18.32 4.34 -19 4 C-16.20895657 3.3306277 -13.41722977 2.66438908 -10.625 2 C-9.43390625 1.71382813 -9.43390625 1.71382813 -8.21875 1.421875 C-7.45820313 1.24140625 -6.69765625 1.0609375 -5.9140625 0.875 C-4.8614624 0.62363281 -4.8614624 0.62363281 -3.78759766 0.3671875 C-2 0 -2 0 0 0 Z " fill="#C71D1D" transform="translate(495,79)"/>
<path d="M0 0 C5.1187084 1.94127887 8.96971729 5.10062353 11.375 10.05078125 C13.08043755 15.3696146 12.61970469 20.23833561 10.375 25.3125 C7.73643834 30.02622937 4.0753212 32.30822627 -1 34 C-6.98082837 34.8257554 -11.32670878 34.07105939 -16.26953125 30.5390625 C-19.86717135 27.3393555 -21.64658313 24.31929818 -22.375 19.5390625 C-22.64845313 13.84781928 -21.87873571 10.38909568 -18 6 C-12.1555286 0.51335338 -7.98217655 -1.01527684 0 0 Z " fill="#7C8B91" transform="translate(39,17)"/>
</svg>
