<?xml version="1.0" encoding="UTF-8"?>
<svg version="1.1" xmlns="http://www.w3.org/2000/svg" width="512" height="512">
<path d="M0 0 C5.08001175 3.03941506 8.5671683 7.17538249 10.9375 12.5625 C11.53370095 15.30502438 11.60948838 17.64638995 11.5625 20.4375 C12.54029535 20.43598112 13.5180907 20.43446224 14.52551621 20.43289733 C72.43618136 20.34329364 130.34684474 20.2747775 188.2575645 20.23323868 C195.20597086 20.22824924 202.15437706 20.22306303 209.1027832 20.21777344 C210.13997076 20.21698888 210.13997076 20.21698888 211.1981116 20.21618848 C233.61952203 20.19913612 256.04089219 20.16908569 278.46227821 20.13231112 C302.15145243 20.09352764 325.84059273 20.06952017 349.52979928 20.06114602 C363.72528549 20.05564874 377.92065614 20.03826603 392.11610679 20.00583413 C401.84128627 19.9847428 411.56640573 19.97828773 421.29160645 19.98349449 C426.90836929 19.98606466 432.52492973 19.98203601 438.14165688 19.9606781 C443.27941735 19.94128346 448.41683836 19.94018378 453.5546141 19.95390442 C455.41741625 19.95560142 457.28023917 19.9504674 459.14300015 19.93796727 C461.66789259 19.92200334 464.19154638 19.93051067 466.71641827 19.94530869 C467.81093357 19.9295466 467.81093357 19.9295466 468.9275603 19.9134661 C472.38701138 19.95954286 474.49306009 20.39768032 477.51355475 22.12975526 C480.00116058 24.9315672 480.18856027 26.14832772 480.1917057 29.85360718 C480.20474444 30.95985758 480.21778318 32.06610798 480.23121703 33.20588112 C480.22006342 34.42104094 480.20890981 35.63620075 480.19741821 36.88818359 C480.20521817 38.17918158 480.21301812 39.47017956 480.22105443 40.80029869 C480.24196627 44.38665642 480.23159359 47.97235065 480.21612334 51.55871105 C480.2048312 55.42519358 480.22226186 59.29156034 480.23602295 63.15802002 C480.25828289 70.73353819 480.25344199 78.30880899 480.23895974 85.88433695 C480.22767829 92.039835 480.22613185 98.19526362 480.23157883 104.35076904 C480.23272807 105.66374499 480.23272807 105.66374499 480.23390054 107.00324571 C480.23549913 108.78130867 480.23712019 110.55937161 480.2387635 112.33743453 C480.25302907 129.01934395 480.23661563 145.70111609 480.20976166 162.383003 C480.18742214 176.7039718 480.19130204 191.02473798 480.21435547 205.34570312 C480.24109924 221.96697388 480.25165569 238.58812426 480.23629415 255.20941353 C480.23470137 256.98101932 480.23312951 258.75262513 480.23157883 260.52423096 C480.23042176 261.83180502 480.23042176 261.83180502 480.22924132 263.16579473 C480.22492004 269.31553556 480.23222006 275.46520017 480.24397659 281.6149292 C480.25798436 289.10711727 480.25423816 296.59904334 480.22757287 304.09120131 C480.21441121 307.91557457 480.2093217 311.73951067 480.22581863 315.56388092 C480.24341308 319.70524179 480.22243926 323.84549417 480.19741821 327.98681641 C480.20857182 329.20197622 480.21972543 330.41713604 480.23121703 331.66911888 C480.21817829 332.77536928 480.20513955 333.88161968 480.1917057 335.02139282 C480.19048806 336.45576156 480.19048806 336.45576156 480.18924582 337.91910744 C479.5625 340.4375 479.5625 340.4375 477.51355475 342.74524474 C473.84291376 344.85014013 470.8319098 344.98895838 466.71641827 344.92969131 C465.92893203 344.93430669 465.14144579 344.93892207 464.33009633 344.94367731 C461.6810451 344.95429791 459.03295878 344.93629429 456.38395691 344.91851807 C454.46985674 344.9202618 452.55575751 344.92376307 450.64166337 344.92887473 C445.37390968 344.93783739 440.10648004 344.92179325 434.83876765 344.90176249 C429.16122918 344.88452051 423.48370962 344.89033188 417.80615234 344.89337158 C407.96676985 344.895471 398.12749329 344.88289989 388.28813744 344.86042023 C374.06202273 344.82793939 359.83595935 344.81749721 345.60981158 344.81246826 C322.5299631 344.80370946 299.45017812 344.77711232 276.37036133 344.73925781 C253.94783827 344.7025238 231.52533032 344.67418753 209.1027832 344.65722656 C208.06614782 344.65643741 208.06614782 344.65643741 207.00857031 344.65563231 C200.06839435 344.65035825 193.12821828 344.64525499 186.18804211 344.64027687 C127.97949015 344.59850842 69.77099608 344.52791953 11.5625 344.4375 C11.56664807 345.26907372 11.56664807 345.26907372 11.57087994 346.1174469 C11.63724557 359.63110085 11.68664017 373.14472609 11.71793652 386.6585083 C11.73358096 393.19378744 11.7547973 399.7289488 11.78881836 406.26416016 C11.82145481 412.57299963 11.83936221 418.88172592 11.84713173 425.19064331 C11.85266749 427.59554831 11.86347747 430.00044723 11.87969017 432.40530396 C11.9015209 435.77815047 11.90446449 439.1505315 11.90307617 442.5234375 C11.913862 443.51390579 11.92464783 444.50437408 11.9357605 445.52485657 C11.90558376 452.31639091 11.20265195 458.26710832 6.6953125 463.6796875 C5.70144531 464.48792969 5.70144531 464.48792969 4.6875 465.3125 C4.03007813 465.86679687 3.37265625 466.42109375 2.6953125 466.9921875 C-3.60434338 471.26118507 -10.05618951 471.13452448 -17.4375 470.4375 C-24.15774779 468.7193784 -27.98109429 464.26196222 -31.4375 458.4375 C-32.6014514 454.94564581 -32.57942989 451.81954132 -32.57172108 448.1878252 C-32.57407331 447.44049927 -32.57642554 446.69317334 -32.57884905 445.92320117 C-32.58554836 443.39896643 -32.58508054 440.87478306 -32.58467102 438.35054016 C-32.58796906 436.53048997 -32.5916945 434.71044052 -32.5958125 432.89039201 C-32.60584736 427.87311824 -32.60955168 422.85585643 -32.61220181 417.83857405 C-32.61610045 412.43351012 -32.62567906 407.0284557 -32.63441467 401.62339783 C-32.65419124 388.56257729 -32.66424666 375.50175597 -32.67314246 362.4409242 C-32.67752329 356.29392542 -32.68289061 350.14692752 -32.68813133 343.99992943 C-32.70514457 323.57217875 -32.71963956 303.14442862 -32.72688007 282.71667194 C-32.72879004 277.41373506 -32.73071036 272.11079819 -32.73266602 266.80786133 C-32.73339163 264.83077622 -32.73339163 264.83077622 -32.7341319 262.81374999 C-32.74243523 241.45391315 -32.76777686 220.09413898 -32.80024669 198.73432551 C-32.83329385 176.81647025 -32.8513267 154.89864345 -32.85452431 132.98076314 C-32.85669155 120.66988767 -32.86547145 108.35909379 -32.89098549 96.04824257 C-32.91266044 85.56544243 -32.92075869 75.08274371 -32.91101871 64.59992371 C-32.90646476 59.25010355 -32.90842383 53.90049277 -32.92778015 48.55070114 C-32.94534634 43.65344653 -32.94446737 38.75655505 -32.92888286 33.85929694 C-32.92649683 32.08738082 -32.93088169 30.31543998 -32.94271151 28.54356173 C-33.04583945 12.07741646 -33.04583945 12.07741646 -28.4375 5.4375 C-26.40234375 3.37890625 -26.40234375 3.37890625 -24.375 2 C-23.70339844 1.52691406 -23.03179687 1.05382812 -22.33984375 0.56640625 C-16.13037609 -3.11847292 -6.4995181 -2.94745588 0 0 Z " fill="#010101" transform="translate(32.4375,21.5625)"/>
<path d="M0 0 C45.54 0 91.08 0 138 0 C138.33 18.81 138.66 37.62 139 57 C139.33 57.99 139.66 58.98 140 60 C143.63 60 147.26 60 151 60 C157.32806799 41.01579604 152.64898194 20.00802916 153 0 C198.87 0 244.74 0 292 0 C292 96.36 292 192.72 292 292 C246.13 292 200.26 292 153 292 C152.94392578 269.20486328 152.94392578 269.20486328 152.88671875 245.94921875 C152.8564586 236.34699593 152.82544663 226.74478539 152.79101562 217.14257812 C152.73645337 201.88681122 152.6850442 186.63107847 152.65356445 171.37524414 C152.63062728 160.26618256 152.59727743 149.15721003 152.55129844 138.04821903 C152.52730836 132.16330908 152.50861756 126.27848766 152.50238609 120.39352989 C152.49636134 114.85892568 152.47645656 109.32454812 152.44572449 103.79002762 C152.43690223 101.75464384 152.43323027 99.71923049 152.43499184 97.68382835 C152.43663349 94.9126668 152.42004071 92.14220541 152.39872742 89.37113953 C152.40357499 88.55888796 152.40842257 87.74663639 152.41341704 86.90977114 C152.38152463 82.73014486 152.38152463 82.73014486 150.69382954 79.00024128 C147.79587597 77.28893992 145.26087343 77.6506207 142 78 C140.14267201 78.9281742 140.14267201 78.9281742 139 81 C138.69951587 83.86176893 138.58418273 86.50759266 138.60127258 89.37113953 C138.59462576 90.23533235 138.58797893 91.09952517 138.58113068 91.98990566 C138.56242195 94.8966278 138.56511125 97.80294116 138.56762695 100.7097168 C138.5586146 102.78895656 138.54828869 104.86819098 138.53674316 106.94741821 C138.50908521 112.6020328 138.49987672 118.25654683 138.49388909 123.91122031 C138.48452827 129.81697842 138.45832681 135.72266072 138.43388367 141.62837219 C138.39015177 152.81616138 138.36164592 164.00393592 138.33856028 175.19178468 C138.30649575 190.3067524 138.25101262 205.42163277 138.19681454 220.53653431 C138.11201786 244.35766365 138.05859835 268.17875847 138 292 C92.46 292 46.92 292 0 292 C0 195.64 0 99.28 0 0 Z " fill="#EB1E33" transform="translate(205,58)"/>
<path d="M0 0 C45.54 0 91.08 0 138 0 C138.33 18.81 138.66 37.62 139 57 C139.33 57.99 139.66 58.98 140 60 C141.65 60.33 143.3 60.66 145 61 C145.13494246 63.6058889 145.23402299 66.20482111 145.3125 68.8125 C145.3753418 69.91948242 145.3753418 69.91948242 145.43945312 71.04882812 C145.48828125 73.20703125 145.48828125 73.20703125 145 77 C142.54296875 78.94921875 142.54296875 78.94921875 140 80 C137.95954575 82.04045425 138.84513412 86.32663758 138.84178162 89.13063049 C138.83684364 89.99311447 138.83190566 90.85559844 138.82681805 91.74421829 C138.81136366 94.65703215 138.80306106 97.56982384 138.79467773 100.48266602 C138.78510544 102.56160683 138.77509575 104.64054567 138.76467896 106.71948242 C138.7375535 112.38245318 138.71658544 118.04543233 138.69667697 123.70843244 C138.67486437 129.61951572 138.64745264 135.53057289 138.62062073 141.44163513 C138.57062972 152.64365803 138.52571475 163.84569537 138.48259836 175.0477466 C138.42406741 190.1790196 138.35774627 205.31025829 138.29184818 220.44150066 C138.1881733 244.29431069 138.09495079 268.14714996 138 292 C92.46 292 46.92 292 0 292 C0 195.64 0 99.28 0 0 Z " fill="#FEFEFE" transform="translate(205,58)"/>
<path d="M0 0 C45.54 0 91.08 0 138 0 C138 96.36 138 192.72 138 292 C92.46 292 46.92 292 0 292 C0 195.64 0 99.28 0 0 Z " fill="#259245" transform="translate(51,58)"/>
<path d="M0 0 C3.5625 0.3125 3.5625 0.3125 5.26156104 1.38586235 C7.26448387 4.35210954 6.9387092 6.90126568 6.94002342 10.45120239 C6.94656391 11.55417778 6.94656391 11.55417778 6.95323652 12.67943549 C6.96425391 15.16293899 6.95374095 17.64589436 6.94345093 20.12939453 C6.94690494 21.92001189 6.95166776 23.71062712 6.95763266 25.50123787 C6.97020764 30.43700841 6.96394288 35.37260593 6.95467401 40.30837727 C6.94791034 45.62541719 6.95835137 50.94242652 6.96661377 56.25946045 C6.97998206 66.68156357 6.97705961 77.10360202 6.96837585 87.52570772 C6.96161186 95.99291294 6.960677 104.46009999 6.9639473 112.92730713 C6.964407 114.13054127 6.96486669 115.33377541 6.96534032 116.57347119 C6.96629946 119.0175074 6.9672721 121.46154361 6.9682581 123.90557981 C6.97682106 146.84520517 6.96696366 169.78479463 6.950857 192.72441411 C6.937453 212.42501803 6.93978084 232.12556892 6.95361328 251.82617188 C6.96965311 274.6814378 6.975997 297.53667221 6.96677649 320.39194298 C6.9658208 322.82719294 6.96487769 325.2624429 6.9639473 327.69769287 C6.96348447 328.89600963 6.96302164 330.09432638 6.96254479 331.32895577 C6.9599501 339.78996988 6.96433619 348.25096407 6.97138596 356.7119751 C6.97978343 367.01741718 6.97755784 377.32279067 6.96154372 387.62822485 C6.95363734 392.89029816 6.95060955 398.15225696 6.96049118 403.41432953 C6.96938978 408.22554686 6.96458562 413.03654286 6.94855852 417.84773993 C6.9451901 419.59398864 6.94695061 421.34025581 6.95418589 423.08649278 C6.96322915 425.44919851 6.95403368 427.81113306 6.94002342 430.17379761 C6.93953637 431.48942122 6.93904931 432.80504482 6.93854749 434.16053581 C6.5625 437.3125 6.5625 437.3125 5.26156104 439.23913765 C2.42342461 441.03209783 -0.19029707 440.60770027 -3.4375 440.3125 C-5.85368807 437.89631193 -5.6771286 436.66126806 -5.70337117 433.36484432 C-5.69868883 432.67117543 -5.6940065 431.97750654 -5.68918228 431.26281738 C-5.69208916 430.52497796 -5.69499604 429.78713854 -5.69799101 429.02694035 C-5.70534985 426.5289471 -5.69832052 424.031195 -5.69146729 421.53320312 C-5.6937694 419.73448815 -5.69694423 417.93577412 -5.70092177 416.13706207 C-5.70931273 411.17433049 -5.7051251 406.21167528 -5.69894934 401.24894333 C-5.69444334 395.90464496 -5.70139936 390.56036017 -5.70690918 385.21606445 C-5.71582471 374.73869172 -5.71387158 364.26134757 -5.7080839 353.78397369 C-5.70357588 345.27240259 -5.70295076 336.76083953 -5.70513153 328.24926758 C-5.705438 327.0400585 -5.70574446 325.83084943 -5.70606022 324.58499765 C-5.70669964 322.12888018 -5.70734806 319.67276271 -5.7080054 317.21664524 C-5.71371502 294.15974669 -5.7071409 271.10286401 -5.69640467 248.04596806 C-5.68746858 228.24157492 -5.68902045 208.43720522 -5.69824219 188.6328125 C-5.70893368 165.66110599 -5.71316564 142.68941342 -5.70701766 119.71770477 C-5.70638053 117.27038066 -5.70575179 114.82305654 -5.70513153 112.37573242 C-5.70482298 111.17145175 -5.70451443 109.96717107 -5.70419653 108.72639704 C-5.70246622 100.22034529 -5.70539191 91.71430234 -5.71009064 83.20825195 C-5.71568704 72.84897249 -5.71420928 62.48972335 -5.70352915 52.13044739 C-5.69825565 46.84017263 -5.69624408 41.54994851 -5.70282745 36.25967407 C-5.7087545 31.42384175 -5.70556593 26.58810739 -5.69487235 21.75228405 C-5.69262445 19.99592785 -5.69380538 18.2395635 -5.69862393 16.48321247 C-5.70464058 14.10941551 -5.69853431 11.73596118 -5.68918228 9.36218262 C-5.69386461 8.66851373 -5.69854695 7.97484484 -5.70337117 7.26015568 C-5.66359729 2.26401439 -5.37499129 0.48863557 0 0 Z " fill="#2D2F32" transform="translate(21.4375,35.6875)"/>
</svg>
