<?xml version="1.0" encoding="UTF-8"?>
<svg version="1.1" xmlns="http://www.w3.org/2000/svg" width="512" height="512">
<path d="M0 0 C0.95003906 -0.02384766 1.90007813 -0.04769531 2.87890625 -0.07226562 C4.25369141 -0.06936523 4.25369141 -0.06936523 5.65625 -0.06640625 C6.48962891 -0.06713135 7.32300781 -0.06785645 8.18164062 -0.06860352 C11.67242766 0.88165812 12.68385998 2.48752669 14.5 5.5625 C14.95410156 8.97583008 14.95410156 8.97583008 14.890625 12.83203125 C14.88496521 13.51303391 14.87930542 14.19403656 14.87347412 14.89567566 C14.85120481 17.05618645 14.80103318 19.21499646 14.75 21.375 C14.72992247 22.84567905 14.71167389 24.31638429 14.6953125 25.78710938 C14.65137326 29.3794525 14.58241456 32.97081006 14.5 36.5625 C15.75180652 36.92159108 17.00361303 37.28068216 18.29335308 37.65065479 C22.10797876 38.9124644 25.31412308 40.54344208 28.73482227 42.64410686 C49.04012829 54.70404576 68.35553896 54.40477373 91.42448819 54.15589607 C96.89041119 54.11151787 102.35600525 54.14343214 107.82199097 54.16543579 C117.26081704 54.19329162 126.69857827 54.17428676 136.13728905 54.12218666 C149.78336529 54.04693231 163.42872143 54.04431799 177.07496277 54.05865004 C199.22213756 54.07997275 221.36881974 54.04367019 243.51586914 53.97045898 C265.01199975 53.89942927 286.50789971 53.85621521 308.00415039 53.84936523 C309.35928971 53.84889487 310.71442902 53.8484237 312.06956834 53.84795171 C322.56381918 53.84443686 333.05807022 53.8426741 343.55232155 53.84133327 C394.86859271 53.83437037 446.18361566 53.68877776 497.5 53.5625 C497.5 153.5525 497.5 253.5425 497.5 356.5625 C465.71042969 356.43746094 433.92085938 356.31242187 401.16796875 356.18359375 C381.00191642 356.14232536 360.83598802 356.1052743 340.66992188 356.08789062 C330.74466797 356.07912762 320.81941531 356.06966923 310.89416412 356.05823579 C309.54819286 356.05668741 308.20222157 356.05516403 306.85625025 356.05366597 C284.80886161 356.02891425 262.76226113 355.94399854 240.71513589 355.83270787 C218.73726232 355.72311638 196.75993996 355.67889887 174.78179532 355.69396263 C161.24586312 355.70122188 147.71202153 355.65894907 134.17650972 355.5510155 C124.86424355 355.4816696 115.55324049 355.47646234 106.24082132 355.51914638 C100.8863479 355.54187362 95.53563079 355.53878074 90.18162537 355.45863152 C62.84701059 355.0718492 42.86861142 358.87840961 19.22718221 373.03403622 C16.5 374.5625 16.5 374.5625 14.5 374.5625 C14.50368717 375.24333743 14.50737434 375.92417486 14.51117325 376.62564373 C14.59951398 393.19258686 14.6657045 409.75945538 14.70724869 426.32657909 C14.72787321 434.33832953 14.75599156 442.34992274 14.80175781 450.36157227 C14.84162913 457.34460741 14.86743362 464.32752868 14.87635398 471.31067449 C14.8815683 475.00819038 14.89382105 478.70538051 14.92292023 482.40279198 C14.95514342 486.53063782 14.95595923 490.65791747 14.95410156 494.78588867 C14.96848267 496.01156052 14.98286377 497.23723236 14.99768066 498.50004578 C14.95728795 506.77122987 14.95728795 506.77122987 12.61651611 510.82159424 C10.09910824 512.89224697 8.88953487 513.19421943 5.65625 513.19140625 C4.73972656 513.19333984 3.82320312 513.19527344 2.87890625 513.19726562 C1.92886719 513.17341797 0.97882812 513.14957031 0 513.125 C-1.42505859 513.14143555 -1.42505859 513.14143555 -2.87890625 513.15820312 C-9.76860117 513.08552702 -9.76860117 513.08552702 -12.61343718 511.05117035 C-15.25267082 507.5696099 -15.05267435 504.40662045 -15.00336456 500.21032715 C-15.00917833 499.35596982 -15.01499209 498.50161249 -15.02098203 497.62136555 C-15.03565972 494.73883135 -15.02166066 491.85713833 -15.00793457 488.97460938 C-15.01254041 486.89510409 -15.01889118 484.81560205 -15.02684355 482.73610687 C-15.04360347 477.00638556 -15.03526025 471.27692937 -15.02289867 465.54720688 C-15.01387771 459.3739819 -15.0278032 453.20080369 -15.03881836 447.02758789 C-15.05560886 435.62811315 -15.05410901 424.22874697 -15.04317249 412.82927489 C-15.03311935 402.29917871 -15.03047921 391.76911367 -15.03526306 381.23901367 C-15.0355686 380.54115035 -15.03587414 379.84328703 -15.03618894 379.12427634 C-15.03743425 376.2915851 -15.03870784 373.45889388 -15.040028 370.62620267 C-15.05227032 344.0409206 -15.04116014 317.45569263 -15.01964041 290.87041891 C-15.00065727 267.23910445 -15.00235576 243.6078762 -15.02148438 219.9765625 C-15.04289226 193.44062222 -15.05140218 166.90472976 -15.03903532 140.36878204 C-15.03775241 137.54118348 -15.03650105 134.71358491 -15.03526306 131.88598633 C-15.03494675 131.18973418 -15.03463044 130.49348203 -15.03430455 129.77613133 C-15.02975025 119.25137589 -15.03508395 108.72665496 -15.04518127 98.2019043 C-15.05660237 86.2375269 -15.0534069 74.27325137 -15.0320583 62.30887794 C-15.02151871 56.20009198 -15.01747552 50.09148135 -15.03065491 43.98269653 C-15.04252444 38.39671366 -15.03610639 32.81106957 -15.0147447 27.22511768 C-15.01025548 25.19826501 -15.01259643 23.17138404 -15.02224785 21.14454937 C-15.03431639 18.40084349 -15.02203461 15.65831595 -15.00336456 12.91467285 C-15.01741156 11.71926486 -15.01741156 11.71926486 -15.03174233 10.49970722 C-14.9829534 6.94114013 -14.79373853 4.94998689 -12.61343718 2.07382965 C-8.76291251 -0.67970008 -4.57719269 -0.05278987 0 0 Z M14.5 54.5625 C14.5 154.2225 14.5 253.8825 14.5 356.5625 C22.43095202 353.91884933 29.93575413 350.12214511 37.5 346.5625 C37.5 253.5025 37.5 160.4425 37.5 64.5625 C26.40604097 57.76538678 26.40604097 57.76538678 14.5 54.5625 Z " fill="#F1F1F1" transform="translate(14.5,-0.5625)"/>
<path d="M0 0 C16.29207587 12.85998882 26.14406977 31.18165512 28.640625 51.6796875 C29.82940964 73.28356228 24.13776135 93.36840292 9.578125 109.7421875 C-3.5809356 123.96948622 -21.73036752 132.68452105 -41.1015625 133.91796875 C-60.58613955 134.44655604 -79.09254464 128.74256682 -94.0546875 115.87109375 C-108.24725919 102.37612304 -118.84774289 85.52790091 -119.6953125 65.39453125 C-120.06968123 41.77674768 -113.92459767 22.85373918 -97.359375 5.6796875 C-70.73863965 -19.87086753 -29.62713663 -21.22039237 0 0 Z " fill="#02479F" transform="translate(327.359375,145.3203125)"/>
<path d="M0 0 C0.95003906 -0.02384766 1.90007813 -0.04769531 2.87890625 -0.07226562 C4.25369141 -0.06936523 4.25369141 -0.06936523 5.65625 -0.06640625 C6.48962891 -0.06713135 7.32300781 -0.06785645 8.18164062 -0.06860352 C11.67242766 0.88165812 12.68385998 2.48752669 14.5 5.5625 C14.95410156 8.97583008 14.95410156 8.97583008 14.890625 12.83203125 C14.88496521 13.51303391 14.87930542 14.19403656 14.87347412 14.89567566 C14.85120481 17.05618645 14.80103318 19.21499646 14.75 21.375 C14.72992247 22.84567905 14.71167389 24.31638429 14.6953125 25.78710938 C14.65137326 29.3794525 14.58241456 32.97081006 14.5 36.5625 C15.69625 36.92214844 16.8925 37.28179687 18.125 37.65234375 C24.20041393 39.6794656 29.90520029 42.43929617 35.65966797 45.2331543 C37.5203521 46.13486286 39.38676376 47.02386422 41.25390625 47.91210938 C42.42824219 48.47865234 43.60257813 49.04519531 44.8125 49.62890625 C46.41544922 50.4014978 46.41544922 50.4014978 48.05078125 51.18969727 C50.5 52.5625 50.5 52.5625 51.5 54.5625 C46.88 54.5625 42.26 54.5625 37.5 54.5625 C37.5 57.8625 37.5 61.1625 37.5 64.5625 C29.56904798 61.91884933 22.06424587 58.12214511 14.5 54.5625 C14.5 154.2225 14.5 253.8825 14.5 356.5625 C21.43 353.2625 28.36 349.9625 35.5 346.5625 C36.16 346.5625 36.82 346.5625 37.5 346.5625 C37.5 349.8625 37.5 353.1625 37.5 356.5625 C42.12 356.5625 46.74 356.5625 51.5 356.5625 C47.90896713 359.25577466 44.4080841 361.21170515 40.3984375 363.13671875 C39.72076324 363.46541458 39.04308899 363.79411041 38.34487915 364.13276672 C36.91876329 364.82312202 35.4916064 365.51133045 34.06347656 366.19750977 C31.8726075 367.25115061 29.68614938 368.31356022 27.5 369.37695312 C26.11223378 370.04740228 24.72422136 370.71734211 23.3359375 371.38671875 C22.68072113 371.70541428 22.02550476 372.0241098 21.35043335 372.35246277 C16.73017394 374.5625 16.73017394 374.5625 14.5 374.5625 C14.50368717 375.24333743 14.50737434 375.92417486 14.51117325 376.62564373 C14.59951398 393.19258686 14.6657045 409.75945538 14.70724869 426.32657909 C14.72787321 434.33832953 14.75599156 442.34992274 14.80175781 450.36157227 C14.84162913 457.34460741 14.86743362 464.32752868 14.87635398 471.31067449 C14.8815683 475.00819038 14.89382105 478.70538051 14.92292023 482.40279198 C14.95514342 486.53063782 14.95595923 490.65791747 14.95410156 494.78588867 C14.96848267 496.01156052 14.98286377 497.23723236 14.99768066 498.50004578 C14.95728795 506.77122987 14.95728795 506.77122987 12.61651611 510.82159424 C10.09910824 512.89224697 8.88953487 513.19421943 5.65625 513.19140625 C4.73972656 513.19333984 3.82320312 513.19527344 2.87890625 513.19726562 C1.92886719 513.17341797 0.97882812 513.14957031 0 513.125 C-1.42505859 513.14143555 -1.42505859 513.14143555 -2.87890625 513.15820312 C-9.76860117 513.08552702 -9.76860117 513.08552702 -12.61343718 511.05117035 C-15.25267082 507.5696099 -15.05267435 504.40662045 -15.00336456 500.21032715 C-15.00917833 499.35596982 -15.01499209 498.50161249 -15.02098203 497.62136555 C-15.03565972 494.73883135 -15.02166066 491.85713833 -15.00793457 488.97460938 C-15.01254041 486.89510409 -15.01889118 484.81560205 -15.02684355 482.73610687 C-15.04360347 477.00638556 -15.03526025 471.27692937 -15.02289867 465.54720688 C-15.01387771 459.3739819 -15.0278032 453.20080369 -15.03881836 447.02758789 C-15.05560886 435.62811315 -15.05410901 424.22874697 -15.04317249 412.82927489 C-15.03311935 402.29917871 -15.03047921 391.76911367 -15.03526306 381.23901367 C-15.0355686 380.54115035 -15.03587414 379.84328703 -15.03618894 379.12427634 C-15.03743425 376.2915851 -15.03870784 373.45889388 -15.040028 370.62620267 C-15.05227032 344.0409206 -15.04116014 317.45569263 -15.01964041 290.87041891 C-15.00065727 267.23910445 -15.00235576 243.6078762 -15.02148438 219.9765625 C-15.04289226 193.44062222 -15.05140218 166.90472976 -15.03903532 140.36878204 C-15.03775241 137.54118348 -15.03650105 134.71358491 -15.03526306 131.88598633 C-15.03494675 131.18973418 -15.03463044 130.49348203 -15.03430455 129.77613133 C-15.02975025 119.25137589 -15.03508395 108.72665496 -15.04518127 98.2019043 C-15.05660237 86.2375269 -15.0534069 74.27325137 -15.0320583 62.30887794 C-15.02151871 56.20009198 -15.01747552 50.09148135 -15.03065491 43.98269653 C-15.04252444 38.39671366 -15.03610639 32.81106957 -15.0147447 27.22511768 C-15.01025548 25.19826501 -15.01259643 23.17138404 -15.02224785 21.14454937 C-15.03431639 18.40084349 -15.02203461 15.65831595 -15.00336456 12.91467285 C-15.01741156 11.71926486 -15.01741156 11.71926486 -15.03174233 10.49970722 C-14.9829534 6.94114013 -14.79373853 4.94998689 -12.61343718 2.07382965 C-8.76291251 -0.67970008 -4.57719269 -0.05278987 0 0 Z " fill="#84858A" transform="translate(14.5,-0.5625)"/>
<path d="M0 0 C16.29207587 12.85998882 26.14406977 31.18165512 28.640625 51.6796875 C29.33652581 64.32634645 27.79348811 75.65444042 23.640625 87.6796875 C23.310625 87.6796875 22.980625 87.6796875 22.640625 87.6796875 C22.55425781 86.78507812 22.46789062 85.89046875 22.37890625 84.96875 C21.09841594 73.94948475 18.15118678 64.26114864 9.640625 56.6796875 C-0.47796352 49.35838796 -9.88777222 46.58461994 -22.359375 47.6796875 C-32.49020771 49.4364793 -40.67768989 54.6386249 -47.66015625 62.01171875 C-55.01578882 69.23207532 -64.2733618 71.80308413 -74.359375 72.0546875 C-86.27660373 71.73225166 -94.69805984 67.93342697 -103.40234375 59.76171875 C-110.8536116 51.80204883 -113.89775826 42.68343179 -113.75390625 31.89453125 C-112.29925439 20.04127896 -101.45360284 8.89634795 -92.671875 1.4296875 C-64.93155343 -19.37555367 -28.43138707 -20.36393853 0 0 Z " fill="#CC2E3A" transform="translate(327.359375,145.3203125)"/>
<path d="M0 0 C3.6578218 2.03993908 5.66946174 3.50419262 8 7 C8.69739403 10.12901571 8.58584635 12.85596817 8 16 C6.82470703 17.80249023 6.82470703 17.80249023 5.1953125 19.55859375 C4.56020752 20.24638916 3.92510254 20.93418457 3.27075195 21.64282227 C-0.83238521 25.90212657 -4.9527762 30.13874225 -9.13500977 34.3203125 C-10.7003339 35.88785207 -12.25744291 37.46326961 -13.81445312 39.0390625 C-14.81721942 40.04475855 -15.82045763 41.04998435 -16.82421875 42.0546875 C-17.72229248 42.95687012 -18.62036621 43.85905273 -19.5456543 44.78857422 C-22.65484975 47.59003571 -24.7412779 48.83581886 -28.875 49.375 C-32.90106566 48.89187212 -34.91157177 47.59708738 -38 45 C-40.10863429 41.35781349 -40.50962203 38.16191328 -40 34 C-37.31179578 29.45645098 -34.04438961 25.74920108 -30.31640625 22.05078125 C-29.77902328 21.51148483 -29.24164032 20.97218842 -28.68797302 20.41654968 C-27.55835333 19.28557738 -26.42623766 18.15709304 -25.29174805 17.03100586 C-23.56388002 15.31387145 -21.84697402 13.58629391 -20.13085938 11.85742188 C-19.02668251 10.75456635 -17.92188553 9.65233126 -16.81640625 8.55078125 C-16.30791641 8.03824295 -15.79942657 7.52570465 -15.27552795 6.99763489 C-10.59992604 2.38253104 -6.80227851 -0.97175407 0 0 Z " fill="#040404" transform="translate(194,84)"/>
<path d="M0 0 C2.24560547 1.72216797 2.24560547 1.72216797 4.6171875 3.9296875 C5.49165527 4.74187744 6.36612305 5.55406738 7.26708984 6.39086914 C11.72791451 10.64965359 16.13739583 14.95316125 20.5 19.3125 C21.39203125 20.19228516 22.2840625 21.07207031 23.203125 21.97851562 C24.05390625 22.82736328 24.9046875 23.67621094 25.78125 24.55078125 C26.54501953 25.31044189 27.30878906 26.07010254 28.09570312 26.8527832 C30.44708858 29.50412103 31.90362834 31.61867283 32.15234375 35.18359375 C31.74090882 39.49992018 31.37821936 41.53449925 28.5625 45 C24.79646501 47.93934438 22.78997521 48.46057454 18 48 C13.17656769 45.1909932 9.42973616 41.71039191 5.54296875 37.7734375 C4.9545369 37.18454742 4.36610504 36.59565735 3.75984192 35.98892212 C2.52639639 34.75247306 1.29536426 33.51361217 0.06665039 32.27246094 C-1.81893155 30.36850578 -3.71251081 28.47279115 -5.60742188 26.578125 C-6.80776661 25.37286865 -8.00765294 24.16715556 -9.20703125 22.9609375 C-9.77363968 22.39321625 -10.34024811 21.825495 -10.92402649 21.24057007 C-14.49687113 17.62398449 -16.15050016 15.76065289 -16.3125 10.6875 C-16.27398147 7.26485329 -16.06154761 6.10331205 -14.25 3.0625 C-9.79392844 -1.02223226 -5.88956078 -2.2282406 0 0 Z " fill="#040404" transform="translate(378,85)"/>
<path d="M0 0 C3.07469523 1.70251719 5.40613254 3.81226508 7 7 C7.25635525 10.86135101 6.96923784 14.56749674 4.7644043 17.82617188 C4.22726807 18.40947266 3.69013184 18.99277344 3.13671875 19.59375 C2.50556152 20.28098145 1.8744043 20.96821289 1.22412109 21.67626953 C-2.71277173 25.78947984 -6.68149015 29.8674627 -10.70776367 33.89306641 C-12.20066182 35.38818136 -13.68533392 36.89116956 -15.16992188 38.39453125 C-16.12711532 39.35465427 -17.08478056 40.31430722 -18.04296875 41.2734375 C-18.89914795 42.13372559 -19.75532715 42.99401367 -20.63745117 43.88037109 C-23.91776222 46.82339688 -26.00973377 47.87163216 -30.375 48.4375 C-35.1853299 47.85694294 -36.61392593 46.38607407 -40 43 C-41.79762938 39.40474124 -41.67381921 35.90921194 -41 32 C-39.83520508 30.19360352 -39.83520508 30.19360352 -38.20703125 28.44140625 C-37.57168457 27.75433594 -36.93633789 27.06726563 -36.28173828 26.359375 C-32.14133612 22.07809461 -27.97510293 17.82746678 -23.75512695 13.62475586 C-22.16954204 12.04460356 -20.58946558 10.45908024 -19.00976562 8.87304688 C-18.00032108 7.86426194 -16.99056701 6.85578662 -15.98046875 5.84765625 C-14.61764771 4.4865271 -14.61764771 4.4865271 -13.22729492 3.09790039 C-9.23554976 -0.66194464 -5.30613999 -0.81906859 0 0 Z " fill="#030303" transform="translate(403,277)"/>
<path d="M0 0 C2.88662724 0.68685797 4.04773897 1.44615906 6.2019043 3.44165039 C6.88671875 4.07361328 7.5715332 4.70557617 8.27709961 5.35668945 C12.55897446 9.48913452 16.80384244 13.65377978 21.00292969 17.87011719 C22.58308198 19.4557021 24.16860531 21.03577856 25.75463867 22.61547852 C26.7634236 23.62492306 27.77189893 24.63467713 28.7800293 25.64477539 C29.68744873 26.55332275 30.59486816 27.46187012 31.52978516 28.39794922 C34.88003704 31.95483831 35.04394453 34.54973776 34.9597168 39.29711914 C34.35869102 43.51137049 32.94521307 44.91705841 29.62768555 47.62524414 C26.54641891 48.67876545 23.85091885 49.14392536 20.62768555 48.62524414 C15.96106316 45.82791165 12.23771109 42.54258996 8.42456055 38.72290039 C7.86069641 38.16332138 7.29683228 37.60374237 6.71588135 37.02720642 C5.53355879 35.85059314 4.35380227 34.67139622 3.17651367 33.48974609 C1.37761498 31.68767345 -0.43424737 29.8993761 -2.24731445 28.11157227 C-3.39916608 26.96199263 -4.55023529 25.81162838 -5.70043945 24.66040039 C-6.24001282 24.13003677 -6.77958618 23.59967316 -7.33551025 23.05323792 C-11.15694409 19.1842954 -12.94785674 16.06587597 -13.87231445 10.75024414 C-13.25191967 6.87277672 -12.0216713 4.83258345 -9.34106445 2.00024414 C-6.25526476 -0.15491755 -3.69689629 -0.36972577 0 0 Z " fill="#030303" transform="translate(167.372314453125,276.374755859375)"/>
<path d="M0 0 C3.6578218 2.03993908 5.66946174 3.50419262 8 7 C8.45885893 12.68985067 8.21357828 15.19998796 5 20 C3.14984399 22.02382632 1.29281739 23.96448356 -0.65625 25.88671875 C-1.47156189 26.70134331 -1.47156189 26.70134331 -2.30334473 27.53242493 C-3.44741963 28.67349203 -4.59391069 29.81214119 -5.74267578 30.94848633 C-7.4996281 32.68713198 -9.24839594 34.43369742 -10.99609375 36.18164062 C-12.11150768 37.29214044 -13.22737758 38.40218249 -14.34375 39.51171875 C-14.86569946 40.03255539 -15.38764893 40.55339203 -15.92541504 41.0900116 C-21.77029641 46.85888647 -21.77029641 46.85888647 -26.8125 47.4375 C-31.64484674 47.33942654 -33.69263085 45.38803669 -37 42 C-38.79669905 38.4066019 -38.67911069 34.9068705 -38 31 C-36.7956543 29.15625 -36.7956543 29.15625 -35.13671875 27.375 C-34.5010498 26.68776855 -33.86538086 26.00053711 -33.21044922 25.29248047 C-32.11627686 24.15770264 -32.11627686 24.15770264 -31 23 C-30.18160645 22.14937988 -29.36321289 21.29875977 -28.52001953 20.42236328 C-25.80484082 17.6353254 -23.06287227 14.8772889 -20.3125 12.125 C-19.36643728 11.16676457 -18.42047317 10.20843178 -17.47460938 9.25 C-16.12012695 7.89261719 -16.12012695 7.89261719 -14.73828125 6.5078125 C-13.92399658 5.68941895 -13.10971191 4.87102539 -12.27075195 4.02783203 C-8.30770447 0.48874243 -5.34048785 -0.64085854 0 0 Z " fill="#040404" transform="translate(222,113)"/>
<path d="M0 0 C3.24227766 2.64675727 4.52193628 4.13589544 5.54296875 8.1171875 C5.84781796 11.44176942 5.67143245 14.00585842 3.77124023 16.81933594 C2.95441772 17.70540527 2.95441772 17.70540527 2.12109375 18.609375 C1.48768066 19.2988623 0.85426758 19.98834961 0.20166016 20.69873047 C-4.04710903 25.13972607 -8.34305059 29.5275231 -12.6875 33.875 C-13.63356272 34.83323543 -14.57952683 35.79156822 -15.52539062 36.75 C-16.87987305 38.10738281 -16.87987305 38.10738281 -18.26171875 39.4921875 C-19.07600342 40.31058105 -19.89028809 41.12897461 -20.72924805 41.97216797 C-23.959443 44.85680395 -26.08097634 45.8808673 -30.375 46.4375 C-35.1853299 45.85694294 -36.61392593 44.38607407 -40 41 C-41.83053719 37.33892562 -41.87955565 33.97337725 -41 30 C-39.01614652 26.81889384 -36.45129647 24.32663297 -33.765625 21.72753906 C-31.57962541 19.58869323 -29.44818357 17.40001316 -27.3125 15.2109375 C-25.60548952 13.47265829 -23.89713994 11.73569314 -22.1875 10 C-21.35114014 9.15002441 -20.51478027 8.30004883 -19.65307617 7.42431641 C-18.85361572 6.62429199 -18.05415527 5.82426758 -17.23046875 5 C-16.51270264 4.278125 -15.79493652 3.55625 -15.05541992 2.8125 C-10.26746557 -1.40958969 -6.03464086 -1.80394958 0 0 Z " fill="#030303" transform="translate(375,250)"/>
<path d="M0 0 C4.63186055 2.73009811 8.27762302 5.9947153 12.01953125 9.7890625 C12.8355909 10.60580948 12.8355909 10.60580948 13.6681366 11.4390564 C14.80742675 12.58134789 15.94430573 13.7260489 17.07885742 14.87304688 C18.81957932 16.63215409 20.56830066 18.38299858 22.31835938 20.1328125 C23.42755853 21.24692293 24.53629912 22.36149014 25.64453125 23.4765625 C26.16739212 24.00053619 26.69025299 24.52450989 27.22895813 25.06436157 C30.63836312 28.51898072 32.16071983 30.40397149 32.375 35.25 C32.34662549 38.76843959 31.91021556 40.74997354 29.6875 43.5 C26.68407957 46.29387947 24.89481671 46.81738435 20.9375 47.625 C16.51364227 46.92280036 15.60019494 46.08222897 12.4140625 43.109375 C11.53580811 42.29227051 10.65755371 41.47516602 9.75268555 40.63330078 C5.26745966 36.34260044 0.82819067 32.01242136 -3.5625 27.625 C-4.46291016 26.73683594 -5.36332031 25.84867188 -6.29101562 24.93359375 C-7.14501953 24.08152344 -7.99902344 23.22945312 -8.87890625 22.3515625 C-9.6479126 21.58666504 -10.41691895 20.82176758 -11.20922852 20.03369141 C-14.16129777 16.68117105 -14.3414942 13.3782634 -14.28515625 9 C-13.82829681 5.79572554 -12.30378028 4.17579249 -10 2 C-6.73065722 -0.28853994 -3.9301848 -0.47162218 0 0 Z " fill="#030303" transform="translate(348,113)"/>
<path d="M0 0 C4.49276724 2.62587647 8.13325926 5.8492763 11.765625 9.53515625 C12.28509705 10.05508652 12.80456909 10.57501678 13.33978271 11.11070251 C14.42779892 12.20171925 15.51340476 13.29514463 16.59667969 14.39086914 C18.25400406 16.0665484 19.91929046 17.73398853 21.5859375 19.40039062 C22.6463079 20.46567367 23.70622008 21.53141305 24.765625 22.59765625 C25.26145081 23.09459488 25.75727661 23.59153351 26.26812744 24.10353088 C32.28678299 30.20548302 32.28678299 30.20548302 32.375 35.375 C32.29802867 38.7562405 32.03984335 39.9331201 30.25 42.9375 C27.14683856 45.78206465 25.31026074 46.82909642 21.125 47.375 C14.72610562 46.60713267 10.32561531 41.61697679 5.98046875 37.2109375 C5.43642899 36.66643951 4.89238922 36.12194153 4.3318634 35.5609436 C3.19257325 34.41865211 2.05569427 33.2739511 0.92114258 32.12695312 C-0.81957932 30.36784591 -2.56830066 28.61700142 -4.31835938 26.8671875 C-5.42755853 25.75307707 -6.53629912 24.63850986 -7.64453125 23.5234375 C-8.16739212 22.99946381 -8.69025299 22.47549011 -9.22895813 21.93563843 C-12.68237 18.43642879 -14.15584221 16.59336252 -14.3125 11.6875 C-14.2790616 8.22105237 -14.07391218 7.1197887 -12.1875 4.0625 C-8.05271532 0.16398873 -5.63964053 -0.57352277 0 0 Z " fill="#030303" transform="translate(198,249)"/>
<path d="M0 0 C3.73451831 0.60811042 6.76830915 1.67923524 10.16796875 3.328125 C11.14443359 3.79863281 12.12089844 4.26914062 13.12695312 4.75390625 C14.13693359 5.24761719 15.14691406 5.74132813 16.1875 6.25 C17.17814453 6.72824219 18.16878906 7.20648438 19.18945312 7.69921875 C25.48624267 10.74645199 31.75097137 13.85611619 38 17 C38 17.33 38 17.66 38 18 C33.38 18 28.76 18 24 18 C24 21.3 24 24.6 24 28 C18.82451456 26.42341672 14.05799007 24.25856048 9.1875 21.9375 C8.41212891 21.57333984 7.63675781 21.20917969 6.83789062 20.83398438 C1.13446065 18.13446065 1.13446065 18.13446065 0 17 C-0.07325168 14.13732433 -0.09238205 11.299281 -0.0625 8.4375 C-0.05798828 7.63119141 -0.05347656 6.82488281 -0.04882812 5.99414062 C-0.03700518 3.99606244 -0.01906914 1.99802217 0 0 Z " fill="#5B5C61" transform="translate(28,36)"/>
<path d="M0 0 C0 3.3 0 6.6 0 10 C4.62 10 9.24 10 14 10 C10.41977558 12.68516832 6.92807208 14.64720382 2.93359375 16.57421875 C2.25829117 16.90291458 1.58298859 17.23161041 0.88722229 17.57026672 C-0.53466259 18.26068753 -1.95762438 18.9488944 -3.3815918 19.63500977 C-5.56215552 20.68733376 -7.73722471 21.75045075 -9.91210938 22.81445312 C-11.29655588 23.48503424 -12.68131116 24.15497832 -14.06640625 24.82421875 C-14.71646133 25.14291428 -15.36651642 25.4616098 -16.03627014 25.78996277 C-18.89120566 27.1557515 -20.79172729 28 -24 28 C-24 22.39 -24 16.78 -24 11 C-21.669375 9.741875 -19.33875 8.48375 -16.9375 7.1875 C-16.21812256 6.79715576 -15.49874512 6.40681152 -14.75756836 6.00463867 C-3.56384869 0 -3.56384869 0 0 0 Z " fill="#5A5A60" transform="translate(52,346)"/>
<path d="M0 0 C0.33 0 0.66 0 1 0 C1 2.64 1 5.28 1 8 C-0.98 8.99 -0.98 8.99 -3 10 C-2.01 6.7 -1.02 3.4 0 0 Z " fill="#525690" transform="translate(213,176)"/>
</svg>
