<?xml version="1.0" encoding="UTF-8"?>
<svg version="1.1" xmlns="http://www.w3.org/2000/svg" width="512" height="512">
<path d="M0 0 C5.08001175 3.03941506 8.5671683 7.17538249 10.9375 12.5625 C11.53370095 15.30502438 11.60948838 17.64638995 11.5625 20.4375 C12.83615138 20.43522168 12.83615138 20.43522168 14.13553309 20.43289733 C64.42217412 20.3434511 114.70880673 20.27478723 164.99551134 20.23323868 C171.02890873 20.22823565 177.06230597 20.22305838 183.09570312 20.21777344 C184.29688102 20.2167242 185.49805892 20.21567495 186.73563614 20.21459392 C206.20367006 20.19717254 225.67165688 20.16562532 245.13966283 20.12888882 C265.1047383 20.09152759 285.06978905 20.06927436 305.03489804 20.06114602 C317.36172382 20.05564824 329.68841653 20.0382629 342.01520136 20.00583413 C350.45973266 19.9847457 358.90419482 19.97828706 367.34875056 19.98349449 C372.22617925 19.98606513 377.10337488 19.98203093 381.98076248 19.9606781 C386.44184906 19.94128968 390.90254466 19.94017948 395.3636488 19.95390442 C396.98148292 19.95560205 398.5993409 19.95046259 400.21712765 19.93796727 C402.40927782 19.9220139 404.59999947 19.93050278 406.7921257 19.94530869 C408.0117874 19.9437898 409.2314491 19.94227092 410.48807025 19.94070601 C414.16277985 20.53449861 415.321303 21.52529871 417.5625 24.4375 C418.3125 26.6875 418.3125 26.6875 418.5625 28.4375 C420.83395346 28.40449341 423.10490126 28.33509995 425.375 28.25 C426.63957031 28.21519531 427.90414063 28.18039063 429.20703125 28.14453125 C432.71558759 27.79691509 432.71558759 27.79691509 434.32421875 25.01171875 C434.93716797 23.73748047 434.93716797 23.73748047 435.5625 22.4375 C439.29066221 19.95205853 442.23484203 20.1142752 446.5546875 20.1015625 C447.33764191 20.0949057 448.12059631 20.0882489 448.92727661 20.08139038 C450.58316704 20.07126973 452.23909821 20.06657318 453.89501953 20.06689453 C456.42158709 20.0625275 458.94639849 20.02622193 461.47265625 19.98828125 C463.08332737 19.98241159 464.69400678 19.97844319 466.3046875 19.9765625 C467.05692596 19.96219147 467.80916443 19.94782043 468.584198 19.93301392 C471.82017482 19.96103163 474.31930698 20.32468606 477.2618618 21.68969727 C481.05003133 26.214156 480.24986523 31.17420296 480.19741821 36.88818359 C480.20521817 38.17918158 480.21301812 39.47017956 480.22105443 40.80029869 C480.24196627 44.38665642 480.23159359 47.97235065 480.21612334 51.55871105 C480.2048312 55.42519358 480.22226186 59.29156034 480.23602295 63.15802002 C480.25828289 70.73353819 480.25344199 78.30880899 480.23895974 85.88433695 C480.22767829 92.039835 480.22613185 98.19526362 480.23157883 104.35076904 C480.23272807 105.66374499 480.23272807 105.66374499 480.23390054 107.00324571 C480.23549913 108.78130867 480.23712019 110.55937161 480.2387635 112.33743453 C480.25302907 129.01934395 480.23661563 145.70111609 480.20976166 162.383003 C480.18742214 176.7039718 480.19130204 191.02473798 480.21435547 205.34570312 C480.24109924 221.96697388 480.25165569 238.58812426 480.23629415 255.20941353 C480.23470137 256.98101932 480.23312951 258.75262513 480.23157883 260.52423096 C480.23042176 261.83180502 480.23042176 261.83180502 480.22924132 263.16579473 C480.22492004 269.31553556 480.23222006 275.46520017 480.24397659 281.6149292 C480.25798436 289.10711727 480.25423816 296.59904334 480.22757287 304.09120131 C480.21441121 307.91557457 480.2093217 311.73951067 480.22581863 315.56388092 C480.24341308 319.70524179 480.22243926 323.84549417 480.19741821 327.98681641 C480.20857182 329.20197622 480.21972543 330.41713604 480.23121703 331.66911888 C480.21817829 332.77536928 480.20513955 333.88161968 480.1917057 335.02139282 C480.19048806 336.45576156 480.19048806 336.45576156 480.18924582 337.91910744 C479.5625 340.4375 479.5625 340.4375 477.51355475 342.74524474 C473.84291376 344.85014013 470.8319098 344.98895838 466.71641827 344.92969131 C465.92893203 344.93430669 465.14144579 344.93892207 464.33009633 344.94367731 C461.6810451 344.95429791 459.03295878 344.93629429 456.38395691 344.91851807 C454.46985674 344.9202618 452.55575751 344.92376307 450.64166337 344.92887473 C445.37390968 344.93783739 440.10648004 344.92179325 434.83876765 344.90176249 C429.16122918 344.88452051 423.48370962 344.89033188 417.80615234 344.89337158 C407.96676985 344.895471 398.12749329 344.88289989 388.28813744 344.86042023 C374.06202273 344.82793939 359.83595935 344.81749721 345.60981158 344.81246826 C322.5299631 344.80370946 299.45017812 344.77711232 276.37036133 344.73925781 C253.94783827 344.7025238 231.52533032 344.67418753 209.1027832 344.65722656 C208.06614782 344.65643741 208.06614782 344.65643741 207.00857031 344.65563231 C200.06839435 344.65035825 193.12821828 344.64525499 186.18804211 344.64027687 C127.97949015 344.59850842 69.77099608 344.52791953 11.5625 344.4375 C11.56664807 345.26907372 11.56664807 345.26907372 11.57087994 346.1174469 C11.63724557 359.63110085 11.68664017 373.14472609 11.71793652 386.6585083 C11.73358096 393.19378744 11.7547973 399.7289488 11.78881836 406.26416016 C11.82145481 412.57299963 11.83936221 418.88172592 11.84713173 425.19064331 C11.85266749 427.59554831 11.86347747 430.00044723 11.87969017 432.40530396 C11.9015209 435.77815047 11.90446449 439.1505315 11.90307617 442.5234375 C11.913862 443.51390579 11.92464783 444.50437408 11.9357605 445.52485657 C11.90558376 452.31639091 11.20265195 458.26710832 6.6953125 463.6796875 C5.70144531 464.48792969 5.70144531 464.48792969 4.6875 465.3125 C4.03007813 465.86679687 3.37265625 466.42109375 2.6953125 466.9921875 C-3.60434338 471.26118507 -10.05618951 471.13452448 -17.4375 470.4375 C-24.15774779 468.7193784 -27.98109429 464.26196222 -31.4375 458.4375 C-32.6014514 454.94564581 -32.57942989 451.81954132 -32.57172108 448.1878252 C-32.57407331 447.44049927 -32.57642554 446.69317334 -32.57884905 445.92320117 C-32.58554836 443.39896643 -32.58508054 440.87478306 -32.58467102 438.35054016 C-32.58796906 436.53048997 -32.5916945 434.71044052 -32.5958125 432.89039201 C-32.60584736 427.87311824 -32.60955168 422.85585643 -32.61220181 417.83857405 C-32.61610045 412.43351012 -32.62567906 407.0284557 -32.63441467 401.62339783 C-32.65419124 388.56257729 -32.66424666 375.50175597 -32.67314246 362.4409242 C-32.67752329 356.29392542 -32.68289061 350.14692752 -32.68813133 343.99992943 C-32.70514457 323.57217875 -32.71963956 303.14442862 -32.72688007 282.71667194 C-32.72879004 277.41373506 -32.73071036 272.11079819 -32.73266602 266.80786133 C-32.73339163 264.83077622 -32.73339163 264.83077622 -32.7341319 262.81374999 C-32.74243523 241.45391315 -32.76777686 220.09413898 -32.80024669 198.73432551 C-32.83329385 176.81647025 -32.8513267 154.89864345 -32.85452431 132.98076314 C-32.85669155 120.66988767 -32.86547145 108.35909379 -32.89098549 96.04824257 C-32.91266044 85.56544243 -32.92075869 75.08274371 -32.91101871 64.59992371 C-32.90646476 59.25010355 -32.90842383 53.90049277 -32.92778015 48.55070114 C-32.94534634 43.65344653 -32.94446737 38.75655505 -32.92888286 33.85929694 C-32.92649683 32.08738082 -32.93088169 30.31543998 -32.94271151 28.54356173 C-33.04583945 12.07741646 -33.04583945 12.07741646 -28.4375 5.4375 C-26.40234375 3.37890625 -26.40234375 3.37890625 -24.375 2 C-23.70339844 1.52691406 -23.03179687 1.05382812 -22.33984375 0.56640625 C-16.13037609 -3.11847292 -6.4995181 -2.94745588 0 0 Z " fill="#EC1E33" transform="translate(32.4375,21.5625)"/>
<path d="M0 0 C5.08001175 3.03941506 8.5671683 7.17538249 10.9375 12.5625 C11.53370095 15.30502438 11.60948838 17.64638995 11.5625 20.4375 C12.83615138 20.43522168 12.83615138 20.43522168 14.13553309 20.43289733 C64.42217412 20.3434511 114.70880673 20.27478723 164.99551134 20.23323868 C171.02890873 20.22823565 177.06230597 20.22305838 183.09570312 20.21777344 C184.29688102 20.2167242 185.49805892 20.21567495 186.73563614 20.21459392 C206.20367006 20.19717254 225.67165688 20.16562532 245.13966283 20.12888882 C265.1047383 20.09152759 285.06978905 20.06927436 305.03489804 20.06114602 C317.36172382 20.05564824 329.68841653 20.0382629 342.01520136 20.00583413 C350.45973266 19.9847457 358.90419482 19.97828706 367.34875056 19.98349449 C372.22617925 19.98606513 377.10337488 19.98203093 381.98076248 19.9606781 C386.44184906 19.94128968 390.90254466 19.94017948 395.3636488 19.95390442 C396.98148292 19.95560205 398.5993409 19.95046259 400.21712765 19.93796727 C402.40927782 19.9220139 404.59999947 19.93050278 406.7921257 19.94530869 C408.0117874 19.9437898 409.2314491 19.94227092 410.48807025 19.94070601 C414.15985668 20.53402626 415.30563951 21.54600496 417.5625 24.4375 C418.75501581 27.07807073 418.63119815 28.18144325 417.875 31 C416.35840132 33.8165404 415.31356721 34.82135531 412.5625 36.4375 C409.53936648 36.81009549 409.53936648 36.81009549 405.91706467 36.80664349 C405.24723006 36.81010502 404.57739545 36.81356655 403.88726282 36.81713298 C401.63252484 36.82510248 399.37842369 36.81159186 397.12371826 36.79826355 C395.49509316 36.79957126 393.86646868 36.80219705 392.23784757 36.80603105 C387.75458444 36.81275473 383.2715354 36.80071754 378.78829956 36.78569686 C373.95669552 36.77276784 369.12510401 36.77712374 364.29348755 36.77940369 C355.91975788 36.78097841 347.54609823 36.77154844 339.17238617 36.75469017 C327.06534473 36.73033166 314.95833721 36.72249813 302.85127392 36.7187262 C283.20942383 36.71215677 263.56761107 36.69218227 243.92578125 36.66381836 C224.84310083 36.63629051 205.7604306 36.61508509 186.67773438 36.60229492 C185.48991017 36.60149093 184.30208597 36.60068694 183.0782671 36.59985858 C173.78900355 36.59362049 164.49973978 36.58774965 155.21047592 36.58199489 C109.66111635 36.55368266 64.11185021 36.49333042 18.5625 36.4375 C18.5625 132.7975 18.5625 229.1575 18.5625 328.4375 C165.7425 328.4375 312.9225 328.4375 464.5625 328.4375 C464.5625 232.0775 464.5625 135.7175 464.5625 36.4375 C455.9825 36.4375 447.4025 36.4375 438.5625 36.4375 C433.5625 31.4375 433.5625 31.4375 432.5625 29.4375 C432.5625 26.43216496 433.80832493 24.81816616 435.5625 22.4375 C439.29066221 19.95205853 442.23484203 20.1142752 446.5546875 20.1015625 C447.33764191 20.0949057 448.12059631 20.0882489 448.92727661 20.08139038 C450.58316704 20.07126973 452.23909821 20.06657318 453.89501953 20.06689453 C456.42158709 20.0625275 458.94639849 20.02622193 461.47265625 19.98828125 C463.08332737 19.98241159 464.69400678 19.97844319 466.3046875 19.9765625 C467.05692596 19.96219147 467.80916443 19.94782043 468.584198 19.93301392 C471.82017482 19.96103163 474.31930698 20.32468606 477.2618618 21.68969727 C481.05003133 26.214156 480.24986523 31.17420296 480.19741821 36.88818359 C480.20521817 38.17918158 480.21301812 39.47017956 480.22105443 40.80029869 C480.24196627 44.38665642 480.23159359 47.97235065 480.21612334 51.55871105 C480.2048312 55.42519358 480.22226186 59.29156034 480.23602295 63.15802002 C480.25828289 70.73353819 480.25344199 78.30880899 480.23895974 85.88433695 C480.22767829 92.039835 480.22613185 98.19526362 480.23157883 104.35076904 C480.23272807 105.66374499 480.23272807 105.66374499 480.23390054 107.00324571 C480.23549913 108.78130867 480.23712019 110.55937161 480.2387635 112.33743453 C480.25302907 129.01934395 480.23661563 145.70111609 480.20976166 162.383003 C480.18742214 176.7039718 480.19130204 191.02473798 480.21435547 205.34570312 C480.24109924 221.96697388 480.25165569 238.58812426 480.23629415 255.20941353 C480.23470137 256.98101932 480.23312951 258.75262513 480.23157883 260.52423096 C480.23042176 261.83180502 480.23042176 261.83180502 480.22924132 263.16579473 C480.22492004 269.31553556 480.23222006 275.46520017 480.24397659 281.6149292 C480.25798436 289.10711727 480.25423816 296.59904334 480.22757287 304.09120131 C480.21441121 307.91557457 480.2093217 311.73951067 480.22581863 315.56388092 C480.24341308 319.70524179 480.22243926 323.84549417 480.19741821 327.98681641 C480.20857182 329.20197622 480.21972543 330.41713604 480.23121703 331.66911888 C480.21817829 332.77536928 480.20513955 333.88161968 480.1917057 335.02139282 C480.19048806 336.45576156 480.19048806 336.45576156 480.18924582 337.91910744 C479.5625 340.4375 479.5625 340.4375 477.51355475 342.74524474 C473.84291376 344.85014013 470.8319098 344.98895838 466.71641827 344.92969131 C465.92893203 344.93430669 465.14144579 344.93892207 464.33009633 344.94367731 C461.6810451 344.95429791 459.03295878 344.93629429 456.38395691 344.91851807 C454.46985674 344.9202618 452.55575751 344.92376307 450.64166337 344.92887473 C445.37390968 344.93783739 440.10648004 344.92179325 434.83876765 344.90176249 C429.16122918 344.88452051 423.48370962 344.89033188 417.80615234 344.89337158 C407.96676985 344.895471 398.12749329 344.88289989 388.28813744 344.86042023 C374.06202273 344.82793939 359.83595935 344.81749721 345.60981158 344.81246826 C322.5299631 344.80370946 299.45017812 344.77711232 276.37036133 344.73925781 C253.94783827 344.7025238 231.52533032 344.67418753 209.1027832 344.65722656 C208.06614782 344.65643741 208.06614782 344.65643741 207.00857031 344.65563231 C200.06839435 344.65035825 193.12821828 344.64525499 186.18804211 344.64027687 C127.97949015 344.59850842 69.77099608 344.52791953 11.5625 344.4375 C11.56664807 345.26907372 11.56664807 345.26907372 11.57087994 346.1174469 C11.63724557 359.63110085 11.68664017 373.14472609 11.71793652 386.6585083 C11.73358096 393.19378744 11.7547973 399.7289488 11.78881836 406.26416016 C11.82145481 412.57299963 11.83936221 418.88172592 11.84713173 425.19064331 C11.85266749 427.59554831 11.86347747 430.00044723 11.87969017 432.40530396 C11.9015209 435.77815047 11.90446449 439.1505315 11.90307617 442.5234375 C11.913862 443.51390579 11.92464783 444.50437408 11.9357605 445.52485657 C11.90558376 452.31639091 11.20265195 458.26710832 6.6953125 463.6796875 C5.70144531 464.48792969 5.70144531 464.48792969 4.6875 465.3125 C4.03007813 465.86679687 3.37265625 466.42109375 2.6953125 466.9921875 C-3.60434338 471.26118507 -10.05618951 471.13452448 -17.4375 470.4375 C-24.15774779 468.7193784 -27.98109429 464.26196222 -31.4375 458.4375 C-32.6014514 454.94564581 -32.57942989 451.81954132 -32.57172108 448.1878252 C-32.57407331 447.44049927 -32.57642554 446.69317334 -32.57884905 445.92320117 C-32.58554836 443.39896643 -32.58508054 440.87478306 -32.58467102 438.35054016 C-32.58796906 436.53048997 -32.5916945 434.71044052 -32.5958125 432.89039201 C-32.60584736 427.87311824 -32.60955168 422.85585643 -32.61220181 417.83857405 C-32.61610045 412.43351012 -32.62567906 407.0284557 -32.63441467 401.62339783 C-32.65419124 388.56257729 -32.66424666 375.50175597 -32.67314246 362.4409242 C-32.67752329 356.29392542 -32.68289061 350.14692752 -32.68813133 343.99992943 C-32.70514457 323.57217875 -32.71963956 303.14442862 -32.72688007 282.71667194 C-32.72879004 277.41373506 -32.73071036 272.11079819 -32.73266602 266.80786133 C-32.73339163 264.83077622 -32.73339163 264.83077622 -32.7341319 262.81374999 C-32.74243523 241.45391315 -32.76777686 220.09413898 -32.80024669 198.73432551 C-32.83329385 176.81647025 -32.8513267 154.89864345 -32.85452431 132.98076314 C-32.85669155 120.66988767 -32.86547145 108.35909379 -32.89098549 96.04824257 C-32.91266044 85.56544243 -32.92075869 75.08274371 -32.91101871 64.59992371 C-32.90646476 59.25010355 -32.90842383 53.90049277 -32.92778015 48.55070114 C-32.94534634 43.65344653 -32.94446737 38.75655505 -32.92888286 33.85929694 C-32.92649683 32.08738082 -32.93088169 30.31543998 -32.94271151 28.54356173 C-33.04583945 12.07741646 -33.04583945 12.07741646 -28.4375 5.4375 C-26.40234375 3.37890625 -26.40234375 3.37890625 -24.375 2 C-23.70339844 1.52691406 -23.03179687 1.05382812 -22.33984375 0.56640625 C-16.13037609 -3.11847292 -6.4995181 -2.94745588 0 0 Z " fill="#000000" transform="translate(32.4375,21.5625)"/>
<path d="M0 0 C1.53234146 1.32009146 3.05343135 2.65336582 4.5625 4 C5.7690625 4.99386719 5.7690625 4.99386719 7 6.0078125 C15.31202097 13.04705525 23.57772007 22.22916891 28.5625 32 C28.44371951 35.44463409 28.1780744 37.93984409 26.4375 40.9375 C23.39712374 42.66037988 20.99937136 42.32409875 17.5625 42 C15.24249554 40.52336823 13.40909843 39.16477757 11.375 37.375 C-4.52181214 24.37434965 -22.29336992 20.44431471 -42.4375 22 C-59.41968732 24.02215641 -75.81005513 34.57000315 -86.25 47.75 C-91.68237376 55.38836453 -95.56925177 63.53110616 -98.0625 72.5625 C-99.13053772 76.33746092 -99.93881056 78.86191201 -103.4375 81 C-106.9375 81.5625 -106.9375 81.5625 -110.4375 81 C-112.875 78.9375 -112.875 78.9375 -114.4375 76 C-114.88220634 70.56396286 -113.80074765 66.24709259 -111.8125 61.25 C-111.53962158 60.55044189 -111.26674316 59.85088379 -110.9855957 59.13012695 C-101.93734488 36.46656169 -85.35699151 20.17174774 -63.06640625 10.35546875 C-49.65194961 5.34490206 -36.645812 4.43292768 -22.4375 5 C-47.9238013 -5.9854747 -74.14446296 -9.60519258 -100.640625 0.578125 C-114.18376512 6.06182147 -125.06488657 13.77286502 -135.4375 24 C-136.18128906 24.73089844 -136.92507812 25.46179688 -137.69140625 26.21484375 C-155.50917655 44.93919336 -161.2559792 69.94944642 -160.72265625 95.015625 C-159.83359732 118.7784219 -149.32594764 140.55468947 -132.4375 157 C-131.69757813 157.73734375 -130.95765625 158.4746875 -130.1953125 159.234375 C-117.28682377 171.43360611 -100.76048363 178.79801233 -83.4375 182 C-82.55449219 182.18175781 -81.67148438 182.36351562 -80.76171875 182.55078125 C-60.77867094 185.25119312 -41.30349252 182.43484998 -23.4375 173 C-24.57445312 173.03480469 -25.71140625 173.06960938 -26.8828125 173.10546875 C-52.95569394 173.66443683 -74.9594601 164.78253822 -93.84375 146.6953125 C-104.27094167 135.80389655 -113.39114013 119.71923056 -114.75 104.5 C-114.4375 101 -114.4375 101 -112.875 98.5625 C-109.49532196 96.39603972 -107.37766013 96.43711998 -103.4375 97 C-99.44491205 100.06600622 -98.44561751 103.31968215 -97.0625 108.0625 C-91.5754394 125.68896188 -81.03734118 139.43524456 -64.69018555 148.25146484 C-47.72718293 156.96658594 -29.17860561 158.88906581 -10.8671875 153.2578125 C-1.99726583 150.00483439 5.29270506 145.84435827 12.50390625 139.734375 C15.4406634 137.26014317 17.13102279 136.05491528 21 135.5625 C24.5625 136 24.5625 136 27.0625 138.0625 C29.03518104 141.92566703 28.5167846 143.80828262 27.5625 148 C25.03438145 152.3448363 21.78652156 156.15239255 18.5625 160 C18.1308252 160.51820313 17.69915039 161.03640625 17.25439453 161.5703125 C2.22609331 179.36507304 -17.7705752 190.74475413 -40.125 196.75 C-40.9089917 196.96100342 -41.6929834 197.17200684 -42.50073242 197.3894043 C-69.26995268 204.24414736 -99.1533602 198.90942843 -122.91796875 185.18359375 C-148.64478135 169.58366813 -166.856259 145.02469302 -174.4375 116 C-174.7571875 114.85660156 -175.076875 113.71320313 -175.40625 112.53515625 C-182.40311609 83.73786941 -175.60920531 54.74438116 -160.78125 29.71875 C-157.48837947 24.37191073 -153.68349796 19.62084529 -149.4375 15 C-148.99035645 14.51047852 -148.54321289 14.02095703 -148.08251953 13.51660156 C-110.4681391 -27.20971354 -44.36743893 -34.74641863 0 0 Z " fill="#030101" transform="translate(263.4375,115)"/>
<path d="M0 0 C0 0.33 0 0.66 0 1 C-1.30710938 0.95359375 -2.61421875 0.9071875 -3.9609375 0.859375 C-31.09551739 0.18433457 -52.73195892 7.74926043 -72.5859375 26.43359375 C-80.87403443 35.04699141 -86.21956126 45.3879654 -90.5 56.4375 C-90.75547607 57.08734863 -91.01095215 57.73719727 -91.27416992 58.40673828 C-92.85690986 62.74049719 -93.64381469 66.41282033 -93 71 C-91.78183594 72.20462891 -91.78183594 72.20462891 -90.5390625 73.43359375 C-87.68485022 76.3185437 -87.35396388 77.92424132 -87.31640625 81.93164062 C-87.33574219 82.63482422 -87.35507813 83.33800781 -87.375 84.0625 C-87.35566406 84.76955078 -87.33632812 85.47660156 -87.31640625 86.20507812 C-87.3359375 88.28515625 -87.3359375 88.28515625 -88 92 C-89.65792158 93.3441918 -91.32428956 94.67805065 -93 96 C-94.69346117 108.67847922 -85.97312569 124.06859222 -78.8671875 133.97265625 C-64.57398265 152.07572233 -44.00169628 164.05729472 -21 167 C-17.54037087 167.11429068 -14.08600608 167.09459207 -10.625 167.0625 C-9.23474609 167.05573242 -9.23474609 167.05573242 -7.81640625 167.04882812 C-5.54420291 167.03711574 -3.27213612 167.02071372 -1 167 C-16.91994494 179.8326659 -40.01531759 180.52706319 -59.39501953 178.78466797 C-83.36563157 175.94398604 -105.54804306 162.24475509 -121 144 C-138.23736939 121.48751602 -143.84857683 94.48524062 -140.57421875 66.58984375 C-138.91895346 57.09491708 -135.28292688 48.56812226 -131 40 C-130.46375 38.92621094 -129.9275 37.85242188 -129.375 36.74609375 C-117.36672661 14.60583968 -95.70316249 -0.39123091 -72.25 -8.2578125 C-47.04062735 -15.68319831 -23.26749684 -10.25152089 0 0 Z " fill="#FDFDFD" transform="translate(243,120)"/>
<path d="M0 0 C4.04110383 2.65530563 6.82012499 6.74180552 9.7109375 10.546875 C10.43168457 11.48926025 10.43168457 11.48926025 11.16699219 12.45068359 C12.12768385 13.71862929 13.07412738 14.99751662 14.00488281 16.28759766 C16.58329944 19.79917351 16.58329944 19.79917351 20.34960938 21.76025391 C23.30297227 22.02740593 25.22985401 21.62296502 28.0546875 20.75 C28.99957031 20.4715625 29.94445312 20.193125 30.91796875 19.90625 C32.88218243 19.3042717 34.84573146 18.70012024 36.80859375 18.09375 C42.32810575 16.47168933 46.38451688 15.48554394 52 17 C54.60555632 19.1853053 54.93933167 20.64345691 55.5078125 23.984375 C55.41988792 29.7573374 51.19815899 34.16074206 47.9375 38.625 C46.5996565 40.46150586 45.27477797 42.30754659 43.96484375 44.1640625 C43.3730835 44.97311035 42.78132324 45.7821582 42.17163086 46.61572266 C40.79196469 48.93434286 40.79196469 48.93434286 41.13085938 51.51367188 C42.08468521 54.24225679 43.27963576 56.25372542 44.94140625 58.6171875 C45.81635742 59.89916016 45.81635742 59.89916016 46.70898438 61.20703125 C47.94228009 62.98224932 49.18185486 64.75312197 50.42773438 66.51953125 C53.87576524 71.59802632 55.96227407 74.80937017 55 81 C53.9375 83.375 53.9375 83.375 52 85 C45.42071585 86.77438638 40.25117388 84.96973681 33.875 83 C31.93802199 82.40636869 29.99797294 81.82264619 28.0546875 81.25 C27.20374512 80.98703125 26.35280273 80.7240625 25.47607422 80.453125 C22.61219497 79.92903115 20.76941428 80.12261594 18 81 C16.02379163 82.98495266 14.34235128 84.8763106 12.625 87.0625 C12.14385742 87.64797607 11.66271484 88.23345215 11.16699219 88.83666992 C9.05742869 91.40500335 6.99821317 94.00233185 4.9765625 96.640625 C0.85415909 101.82627273 0.85415909 101.82627273 -3.6875 102.75 C-7.53089683 101.87979694 -8.58327867 101.04852087 -11 98 C-11.62182617 95.22265625 -11.62182617 95.22265625 -11.79296875 92.0625 C-11.86580078 90.92039062 -11.93863281 89.77828125 -12.01367188 88.6015625 C-12.07103516 87.41304688 -12.12839844 86.22453125 -12.1875 85 C-12.32411216 82.64567447 -12.46332553 80.29149806 -12.60546875 77.9375 C-12.68510864 76.37322266 -12.68510864 76.37322266 -12.76635742 74.77734375 C-12.84345947 73.86082031 -12.92056152 72.94429688 -13 72 C-13.06123047 71.2678125 -13.12246094 70.535625 -13.18554688 69.78125 C-13.90105573 67.75203892 -13.90105573 67.75203892 -16.3449707 66.69140625 C-17.36163818 66.31886719 -18.37830566 65.94632812 -19.42578125 65.5625 C-20.53244141 65.14226562 -21.63910156 64.72203125 -22.77929688 64.2890625 C-24.52823242 63.65097656 -24.52823242 63.65097656 -26.3125 63 C-28.60388457 62.15560367 -30.89181976 61.3017733 -33.17578125 60.4375 C-34.19583252 60.06496094 -35.21588379 59.69242188 -36.2668457 59.30859375 C-39.20821796 57.90030833 -40.93454746 56.51052814 -43 54 C-43.5625 51.0625 -43.5625 51.0625 -43 48 C-38.673749 42.14233272 -32.35466761 40.52938646 -25.6875 38.1875 C-24.56537109 37.78080078 -23.44324219 37.37410156 -22.28710938 36.95507812 C-19.5289864 35.95745918 -16.76689167 34.97297639 -14 34 C-12.9111928 27.44038284 -12.70774116 20.93567083 -12.5703125 14.29492188 C-12.38400876 9.16768774 -11.87576065 5.42697144 -9 1 C-5.75315316 -0.62342342 -3.5965519 -0.47167894 0 0 Z " fill="#030101" transform="translate(329,153)"/>
<path d="M0 0 C3.5625 0.3125 3.5625 0.3125 5.26156104 1.38586235 C7.26448387 4.35210954 6.9387092 6.90126568 6.94002342 10.45120239 C6.94656391 11.55417778 6.94656391 11.55417778 6.95323652 12.67943549 C6.96425391 15.16293899 6.95374095 17.64589436 6.94345093 20.12939453 C6.94690494 21.92001189 6.95166776 23.71062712 6.95763266 25.50123787 C6.97020764 30.43700841 6.96394288 35.37260593 6.95467401 40.30837727 C6.94791034 45.62541719 6.95835137 50.94242652 6.96661377 56.25946045 C6.97998206 66.68156357 6.97705961 77.10360202 6.96837585 87.52570772 C6.96161186 95.99291294 6.960677 104.46009999 6.9639473 112.92730713 C6.964407 114.13054127 6.96486669 115.33377541 6.96534032 116.57347119 C6.96629946 119.0175074 6.9672721 121.46154361 6.9682581 123.90557981 C6.97682106 146.84520517 6.96696366 169.78479463 6.950857 192.72441411 C6.937453 212.42501803 6.93978084 232.12556892 6.95361328 251.82617188 C6.96965311 274.6814378 6.975997 297.53667221 6.96677649 320.39194298 C6.9658208 322.82719294 6.96487769 325.2624429 6.9639473 327.69769287 C6.96348447 328.89600963 6.96302164 330.09432638 6.96254479 331.32895577 C6.9599501 339.78996988 6.96433619 348.25096407 6.97138596 356.7119751 C6.97978343 367.01741718 6.97755784 377.32279067 6.96154372 387.62822485 C6.95363734 392.89029816 6.95060955 398.15225696 6.96049118 403.41432953 C6.96938978 408.22554686 6.96458562 413.03654286 6.94855852 417.84773993 C6.9451901 419.59398864 6.94695061 421.34025581 6.95418589 423.08649278 C6.96322915 425.44919851 6.95403368 427.81113306 6.94002342 430.17379761 C6.93953637 431.48942122 6.93904931 432.80504482 6.93854749 434.16053581 C6.5625 437.3125 6.5625 437.3125 5.26156104 439.23913765 C2.42342461 441.03209783 -0.19029707 440.60770027 -3.4375 440.3125 C-5.85368807 437.89631193 -5.6771286 436.66126806 -5.70337117 433.36484432 C-5.69868883 432.67117543 -5.6940065 431.97750654 -5.68918228 431.26281738 C-5.69208916 430.52497796 -5.69499604 429.78713854 -5.69799101 429.02694035 C-5.70534985 426.5289471 -5.69832052 424.031195 -5.69146729 421.53320312 C-5.6937694 419.73448815 -5.69694423 417.93577412 -5.70092177 416.13706207 C-5.70931273 411.17433049 -5.7051251 406.21167528 -5.69894934 401.24894333 C-5.69444334 395.90464496 -5.70139936 390.56036017 -5.70690918 385.21606445 C-5.71582471 374.73869172 -5.71387158 364.26134757 -5.7080839 353.78397369 C-5.70357588 345.27240259 -5.70295076 336.76083953 -5.70513153 328.24926758 C-5.705438 327.0400585 -5.70574446 325.83084943 -5.70606022 324.58499765 C-5.70669964 322.12888018 -5.70734806 319.67276271 -5.7080054 317.21664524 C-5.71371502 294.15974669 -5.7071409 271.10286401 -5.69640467 248.04596806 C-5.68746858 228.24157492 -5.68902045 208.43720522 -5.69824219 188.6328125 C-5.70893368 165.66110599 -5.71316564 142.68941342 -5.70701766 119.71770477 C-5.70638053 117.27038066 -5.70575179 114.82305654 -5.70513153 112.37573242 C-5.70482298 111.17145175 -5.70451443 109.96717107 -5.70419653 108.72639704 C-5.70246622 100.22034529 -5.70539191 91.71430234 -5.71009064 83.20825195 C-5.71568704 72.84897249 -5.71420928 62.48972335 -5.70352915 52.13044739 C-5.69825565 46.84017263 -5.69624408 41.54994851 -5.70282745 36.25967407 C-5.7087545 31.42384175 -5.70556593 26.58810739 -5.69487235 21.75228405 C-5.69262445 19.99592785 -5.69380538 18.2395635 -5.69862393 16.48321247 C-5.70464058 14.10941551 -5.69853431 11.73596118 -5.68918228 9.36218262 C-5.69386461 8.66851373 -5.69854695 7.97484484 -5.70337117 7.26015568 C-5.66359729 2.26401439 -5.37499129 0.48863557 0 0 Z " fill="#2D2F32" transform="translate(21.4375,35.6875)"/>
<path d="M0 0 C3.58651856 2.68988892 6.24220698 5.4814365 9 9 C11.54252887 10.27126443 12.94029955 9.94002702 15.75 9.625 C17.01070313 9.48964844 17.01070313 9.48964844 18.296875 9.3515625 C21.2120222 8.97242486 24.10329001 8.49972482 27 8 C26.48308594 8.79664063 25.96617187 9.59328125 25.43359375 10.4140625 C24.77488281 11.47367188 24.11617188 12.53328125 23.4375 13.625 C22.77621094 14.66914063 22.11492187 15.71328125 21.43359375 16.7890625 C19.74743339 20.56569415 19.79354534 22.08942283 21 26 C22.36494254 28.79357711 22.36494254 28.79357711 24.0625 31.375 C24.61035156 32.24898437 25.15820312 33.12296875 25.72265625 34.0234375 C26.14417969 34.67570312 26.56570313 35.32796875 27 36 C26.35933594 35.855625 25.71867187 35.71125 25.05859375 35.5625 C22.38045578 34.98775802 19.69454042 34.49135737 17 34 C15.824375 33.7525 14.64875 33.505 13.4375 33.25 C8.28734033 34.3736712 6.08105781 37.83328539 2.8203125 41.8125 C2.21960938 42.534375 1.61890625 43.25625 1 44 C0.67 44 0.34 44 0 44 C-0.04898437 43.18015625 -0.09796875 42.3603125 -0.1484375 41.515625 C-0.26058594 39.89914063 -0.26058594 39.89914063 -0.375 38.25 C-0.44460938 37.18265625 -0.51421875 36.1153125 -0.5859375 35.015625 C-1.10157963 31.21420264 -1.10157963 31.21420264 -3 28 C-5.84618288 26.43090704 -5.84618288 26.43090704 -9.125 25.25 C-10.22070312 24.82203125 -11.31640625 24.3940625 -12.4453125 23.953125 C-13.28835938 23.63859375 -14.13140625 23.3240625 -15 23 C-15 22.34 -15 21.68 -15 21 C-14.15695312 20.68546875 -13.31390625 20.3709375 -12.4453125 20.046875 C-11.34960938 19.61890625 -10.25390625 19.1909375 -9.125 18.75 C-8.03445313 18.33234375 -6.94390625 17.9146875 -5.8203125 17.484375 C-2.99081764 16.25085057 -2.99081764 16.25085057 -1.65625 14.21875 C-0.81703261 11.38139596 -0.56748762 8.70147681 -0.375 5.75 C-0.30023438 4.67234375 -0.22546875 3.5946875 -0.1484375 2.484375 C-0.09945313 1.66453125 -0.05046875 0.8446875 0 0 Z " fill="#FBFBFB" transform="translate(332,182)"/>
</svg>
